<svg width="138" height="46" viewBox="0 0 138 46" fill="none" xmlns="http://www.w3.org/2000/svg">
<path d="M0 10.5C0 7.23841 0 5.60761 0.532843 4.32122C1.2433 2.60602 2.60602 1.2433 4.32122 0.532843C5.60761 0 7.23841 0 10.5 0H127.5C130.762 0 132.392 0 133.679 0.532843C135.394 1.2433 136.757 2.60602 137.467 4.32122C138 5.60761 138 7.23841 138 10.5V35.5C138 38.7616 138 40.3924 137.467 41.6788C136.757 43.394 135.394 44.7567 133.679 45.4672C132.392 46 130.762 46 127.5 46H10.5C7.23841 46 5.60761 46 4.32122 45.4672C2.60602 44.7567 1.2433 43.394 0.532843 41.6788C0 40.3924 0 38.7616 0 35.5V10.5Z" fill="#0C0D10"/>
<path d="M93.7548 22.0812V24.7158H92.1034V26.4436H93.7548V32.3144C93.7548 34.319 94.6617 35.1209 96.9431 35.1209C97.3441 35.1209 97.7259 35.0731 98.06 35.0159V33.3071C97.7736 33.3358 97.5923 33.3549 97.2772 33.3549C96.2558 33.3549 95.8072 32.8776 95.8072 31.7893V26.4436H98.06V24.7158H95.8072V22.0812H93.7548Z" fill="white"/>
<path d="M103.872 35.264C106.908 35.264 108.769 33.2308 108.769 29.8611C108.769 26.5105 106.898 24.4676 103.872 24.4676C100.836 24.4676 98.9653 26.5105 98.9653 29.8611C98.9653 33.2308 100.827 35.264 103.872 35.264ZM103.872 33.4408C102.087 33.4408 101.085 32.133 101.085 29.8611C101.085 27.6082 102.087 26.2909 103.872 26.2909C105.647 26.2909 106.659 27.6082 106.659 29.8611C106.659 32.1234 105.647 33.4408 103.872 33.4408Z" fill="white"/>
<path d="M110.362 35.0636H112.414V28.9256C112.414 27.465 113.512 26.4818 115.068 26.4818C115.43 26.4818 116.041 26.5486 116.213 26.6059V24.5822C115.994 24.5249 115.602 24.4963 115.297 24.4963C113.941 24.4963 112.786 25.2409 112.49 26.2623H112.338V24.6681H110.362V35.0636Z" fill="white"/>
<path d="M121.309 26.2145C122.827 26.2145 123.82 27.2741 123.868 28.9065H118.617C118.732 27.2837 119.791 26.2145 121.309 26.2145ZM123.858 32.2571C123.476 33.0685 122.627 33.5171 121.386 33.5171C119.744 33.5171 118.684 32.3621 118.617 30.5388V30.4243H125.958V29.7083C125.958 26.4436 124.211 24.4676 121.319 24.4676C118.388 24.4676 116.527 26.5773 116.527 29.8993C116.527 33.2212 118.35 35.264 121.328 35.264C123.705 35.264 125.366 34.1185 125.834 32.2571H123.858Z" fill="white"/>
<path d="M80.2957 31.2247C80.454 33.7774 82.5812 35.4099 85.7473 35.4099C89.1311 35.4099 91.2484 33.6982 91.2484 30.9674C91.2484 28.8204 90.0413 27.6332 87.1127 26.9505L85.5395 26.5646C83.6794 26.1293 82.9275 25.5455 82.9275 24.5264C82.9275 23.2402 84.095 22.3992 85.8462 22.3992C87.5084 22.3992 88.6561 23.2204 88.8639 24.5363H91.0208C90.8922 22.1321 88.7749 20.4402 85.8759 20.4402C82.7593 20.4402 80.6816 22.1321 80.6816 24.6748C80.6816 26.7724 81.8589 28.019 84.4413 28.6226L86.2816 29.0678C88.1713 29.513 89.0024 30.166 89.0024 31.2544C89.0024 32.5208 87.6964 33.441 85.9155 33.441C84.0059 33.441 82.6801 32.5802 82.4922 31.2247H80.2957Z" fill="white"/>
<path d="M59.0352 24.4963C57.6225 24.4963 56.4006 25.2027 55.7706 26.3864H55.6178V24.6681H53.6418V38.5192H55.6942V33.4885H55.8565C56.4006 34.5863 57.5747 35.2354 59.0543 35.2354C61.6795 35.2354 63.35 33.1639 63.35 29.8611C63.35 26.5582 61.6795 24.4963 59.0352 24.4963ZM58.4529 33.393C56.7347 33.393 55.656 32.0375 55.656 29.8706C55.656 27.6941 56.7347 26.3386 58.4625 26.3386C60.1998 26.3386 61.2404 27.6655 61.2404 29.8611C61.2404 32.0662 60.1998 33.393 58.4529 33.393Z" fill="white"/>
<path d="M70.5316 24.4963C69.1188 24.4963 67.8969 25.2027 67.2669 26.3864H67.1141V24.6681H65.1381V38.5192H67.1905V33.4885H67.3528C67.8969 34.5863 69.071 35.2354 70.5507 35.2354C73.1758 35.2354 74.8463 33.1639 74.8463 29.8611C74.8463 26.5582 73.1758 24.4963 70.5316 24.4963ZM69.9493 33.393C68.231 33.393 67.1523 32.0375 67.1523 29.8706C67.1523 27.6941 68.231 26.3386 69.9588 26.3386C71.6962 26.3386 72.7367 27.6655 72.7367 29.8611C72.7367 32.0662 71.6962 33.393 69.9493 33.393Z" fill="white"/>
<path d="M49.9595 35.0636H52.3143L47.1595 20.7865H44.775L39.6202 35.0636H41.8959L43.2118 31.2742H48.6535L49.9595 35.0636ZM45.8535 23.3787H46.0217L48.0895 29.4141H43.7757L45.8535 23.3787Z" fill="white"/>
<path d="M40.9988 10.0176V16.905H43.4855C45.5379 16.905 46.7263 15.6401 46.7263 13.4398C46.7263 11.2729 45.5283 10.0176 43.4855 10.0176H40.9988ZM42.0679 10.9913H43.3662C44.7933 10.9913 45.6381 11.8981 45.6381 13.4541C45.6381 15.034 44.8076 15.9313 43.3662 15.9313H42.0679V10.9913Z" fill="white"/>
<path d="M50.3662 17.0052C51.884 17.0052 52.8147 15.9885 52.8147 14.3037C52.8147 12.6284 51.8792 11.607 50.3662 11.607C48.8484 11.607 47.9129 12.6284 47.9129 14.3037C47.9129 15.9885 48.8436 17.0052 50.3662 17.0052ZM50.3662 16.0936C49.4736 16.0936 48.9725 15.4397 48.9725 14.3037C48.9725 13.1773 49.4736 12.5186 50.3662 12.5186C51.2539 12.5186 51.7599 13.1773 51.7599 14.3037C51.7599 15.4349 51.2539 16.0936 50.3662 16.0936Z" fill="white"/>
<path d="M60.7407 11.7072H59.7145L58.7885 15.6735H58.7074L57.6382 11.7072H56.655L55.5859 15.6735H55.5095L54.5788 11.7072H53.5383L54.9702 16.905H56.025L57.0941 13.0771H57.1753L58.2492 16.905H59.3135L60.7407 11.7072Z" fill="white"/>
<path d="M61.9224 16.905H62.9486V13.8646C62.9486 13.0532 63.4307 12.5473 64.1896 12.5473C64.9485 12.5473 65.3112 12.9625 65.3112 13.7978V16.905H66.3374V13.54C66.3374 12.3038 65.6978 11.607 64.538 11.607C63.7552 11.607 63.2398 11.9554 62.9868 12.5329H62.9104V11.7072H61.9224V16.905Z" fill="white"/>
<path d="M67.9535 16.905H68.9797V9.67871H67.9535V16.905Z" fill="white"/>
<path d="M72.8391 17.0052C74.3569 17.0052 75.2876 15.9885 75.2876 14.3037C75.2876 12.6284 74.3521 11.607 72.8391 11.607C71.3213 11.607 70.3858 12.6284 70.3858 14.3037C70.3858 15.9885 71.3166 17.0052 72.8391 17.0052ZM72.8391 16.0936C71.9466 16.0936 71.4454 15.4397 71.4454 14.3037C71.4454 13.1773 71.9466 12.5186 72.8391 12.5186C73.7269 12.5186 74.2328 13.1773 74.2328 14.3037C74.2328 15.4349 73.7269 16.0936 72.8391 16.0936Z" fill="white"/>
<path d="M78.3452 16.127C77.7868 16.127 77.3811 15.8549 77.3811 15.3872C77.3811 14.929 77.7056 14.6855 78.4216 14.6378L79.6912 14.5567V14.991C79.6912 15.6354 79.1184 16.127 78.3452 16.127ZM78.0827 16.9909C78.7652 16.9909 79.3332 16.6949 79.6434 16.1747H79.7246V16.905H80.7126V13.3539C80.7126 12.2561 79.9775 11.607 78.6745 11.607C77.4956 11.607 76.6556 12.1797 76.5506 13.0723H77.5433C77.6579 12.7048 78.054 12.4948 78.6268 12.4948C79.3284 12.4948 79.6912 12.805 79.6912 13.3539V13.8025L78.2831 13.8837C77.047 13.96 76.3501 14.4994 76.3501 15.4349C76.3501 16.3847 77.0804 16.9909 78.0827 16.9909Z" fill="white"/>
<path d="M84.1949 16.9909C84.9109 16.9909 85.517 16.652 85.8273 16.084H85.9084V16.905H86.8916V9.67871H85.8655V12.5329H85.7891C85.5075 11.9602 84.9061 11.6213 84.1949 11.6213C82.8824 11.6213 82.0375 12.6618 82.0375 14.3037C82.0375 15.9504 82.8728 16.9909 84.1949 16.9909ZM84.4861 12.5425C85.3452 12.5425 85.8845 13.225 85.8845 14.3085C85.8845 15.3967 85.35 16.0697 84.4861 16.0697C83.6174 16.0697 83.0971 15.4062 83.0971 14.3037C83.0971 13.2107 83.6222 12.5425 84.4861 12.5425Z" fill="white"/>
<path d="M93.5461 17.0052C95.0639 17.0052 95.9946 15.9885 95.9946 14.3037C95.9946 12.6284 95.0591 11.607 93.5461 11.607C92.0283 11.607 91.0928 12.6284 91.0928 14.3037C91.0928 15.9885 92.0235 17.0052 93.5461 17.0052ZM93.5461 16.0936C92.6535 16.0936 92.1524 15.4397 92.1524 14.3037C92.1524 13.1773 92.6535 12.5186 93.5461 12.5186C94.4339 12.5186 94.9398 13.1773 94.9398 14.3037C94.9398 15.4349 94.4339 16.0936 93.5461 16.0936Z" fill="white"/>
<path d="M97.353 16.905H98.3792V13.8646C98.3792 13.0532 98.8612 12.5473 99.6201 12.5473C100.379 12.5473 100.742 12.9625 100.742 13.7978V16.905H101.768V13.54C101.768 12.3038 101.128 11.607 99.9686 11.607C99.1858 11.607 98.6703 11.9554 98.4174 12.5329H98.341V11.7072H97.353V16.905Z" fill="white"/>
<path d="M106.494 10.4137V11.7311H105.668V12.595H106.494V15.5303C106.494 16.5327 106.948 16.9336 108.088 16.9336C108.289 16.9336 108.48 16.9097 108.647 16.8811V16.0267C108.504 16.0411 108.413 16.0506 108.255 16.0506C107.745 16.0506 107.52 15.8119 107.52 15.2678V12.595H108.647V11.7311H107.52V10.4137H106.494Z" fill="white"/>
<path d="M110.024 16.905H111.05V13.8694C111.05 13.0818 111.518 12.552 112.358 12.552C113.084 12.552 113.47 12.972 113.47 13.8025V16.905H114.496V13.5496C114.496 12.3134 113.814 11.6118 112.707 11.6118C111.924 11.6118 111.375 11.9602 111.122 12.5425H111.041V9.67871H110.024V16.905Z" fill="white"/>
<path d="M118.198 12.4804C118.957 12.4804 119.454 13.0102 119.478 13.8264H116.852C116.91 13.015 117.439 12.4804 118.198 12.4804ZM119.473 15.5017C119.282 15.9074 118.857 16.1317 118.237 16.1317C117.416 16.1317 116.886 15.5542 116.852 14.6426V14.5853H120.523V14.2273C120.523 12.595 119.649 11.607 118.203 11.607C116.738 11.607 115.807 12.6618 115.807 14.3228C115.807 15.9838 116.719 17.0052 118.208 17.0052C119.396 17.0052 120.227 16.4324 120.461 15.5017H119.473Z" fill="white"/>
<path d="M28.4843 23.346C28.5092 21.4128 29.5474 19.5836 31.1944 18.5711C30.1554 17.0872 28.4151 16.1464 26.6045 16.0898C24.6734 15.8871 22.8013 17.2453 21.8172 17.2453C20.8141 17.2453 19.299 16.1099 17.6674 16.1435C15.5408 16.2122 13.5582 17.4213 12.5236 19.2805C10.2995 23.1312 11.9584 28.7904 14.0889 31.903C15.1549 33.4272 16.4006 35.1297 18.0307 35.0693C19.6258 35.0031 20.2216 34.0522 22.147 34.0522C24.0546 34.0522 24.6135 35.0693 26.2767 35.0309C27.9883 35.0031 29.0667 33.5 30.0953 31.9614C30.8611 30.8754 31.4505 29.6751 31.8414 28.405C29.83 27.5543 28.4867 25.53 28.4843 23.346Z" fill="white"/>
<path d="M25.3429 14.0428C26.2762 12.9224 26.7359 11.4824 26.6246 10.0286C25.1988 10.1783 23.8817 10.8598 22.9359 11.9371C22.011 12.9897 21.5296 14.4044 21.6206 15.8027C23.0469 15.8174 24.4491 15.1544 25.3429 14.0428Z" fill="white"/>
<path d="M4.32122 45.4672L3.93853 46.391L4.32122 45.4672ZM0.532843 41.6788L-0.391036 42.0615L0.532843 41.6788ZM137.467 41.6788L138.391 42.0615L137.467 41.6788ZM133.679 45.4672L134.061 46.391L133.679 45.4672ZM133.679 0.532843L133.296 1.45672L133.679 0.532843ZM137.467 4.32122L136.543 4.7039L137.467 4.32122ZM10.5 1H127.5V-1H10.5V1ZM137 10.5V35.5H139V10.5H137ZM127.5 45H10.5V47H127.5V45ZM1 35.5V10.5H-1V35.5H1ZM10.5 45C8.85552 45 7.67224 44.9995 6.73798 44.9357C5.8127 44.8726 5.20494 44.7508 4.7039 44.5433L3.93853 46.391C4.72389 46.7163 5.57473 46.861 6.60184 46.9311C7.61997 47.0005 8.88288 47 10.5 47V45ZM-1 35.5C-1 37.1171 -1.00054 38.38 -0.931075 39.3982C-0.860996 40.4253 -0.716341 41.2761 -0.391036 42.0615L1.45672 41.2961C1.24918 40.7951 1.12742 40.1873 1.06429 39.262C1.00054 38.3278 1 37.1445 1 35.5H-1ZM4.7039 44.5433C3.23373 43.9343 2.06569 42.7663 1.45672 41.2961L-0.391036 42.0615C0.420915 44.0217 1.97831 45.5791 3.93853 46.391L4.7039 44.5433ZM137 35.5C137 37.1445 136.999 38.3278 136.936 39.262C136.873 40.1873 136.751 40.7951 136.543 41.2961L138.391 42.0615C138.716 41.2761 138.861 40.4253 138.931 39.3982C139.001 38.38 139 37.1171 139 35.5H137ZM127.5 47C129.117 47 130.38 47.0005 131.398 46.9311C132.425 46.861 133.276 46.7163 134.061 46.391L133.296 44.5433C132.795 44.7508 132.187 44.8726 131.262 44.9357C130.328 44.9995 129.144 45 127.5 45V47ZM136.543 41.2961C135.934 42.7663 134.766 43.9343 133.296 44.5433L134.061 46.391C136.022 45.5791 137.579 44.0217 138.391 42.0615L136.543 41.2961ZM127.5 1C129.144 1 130.328 1.00054 131.262 1.06429C132.187 1.12742 132.795 1.24918 133.296 1.45672L134.061 -0.391036C133.276 -0.716341 132.425 -0.860996 131.398 -0.931075C130.38 -1.00054 129.117 -1 127.5 -1V1ZM139 10.5C139 8.88289 139.001 7.61997 138.931 6.60184C138.861 5.57473 138.716 4.72389 138.391 3.93853L136.543 4.7039C136.751 5.20494 136.873 5.8127 136.936 6.73798C136.999 7.67225 137 8.85552 137 10.5H139ZM133.296 1.45672C134.766 2.06569 135.934 3.23373 136.543 4.7039L138.391 3.93853C137.579 1.97831 136.022 0.420915 134.061 -0.391036L133.296 1.45672ZM10.5 -1C8.88289 -1 7.61997 -1.00054 6.60184 -0.931075C5.57473 -0.860996 4.72389 -0.716341 3.93853 -0.391036L4.7039 1.45672C5.20494 1.24918 5.8127 1.12742 6.73798 1.06429C7.67225 1.00054 8.85552 1 10.5 1V-1ZM1 10.5C1 8.85552 1.00054 7.67225 1.06429 6.73798C1.12742 5.8127 1.24918 5.20494 1.45672 4.7039L-0.391036 3.93853C-0.716341 4.72389 -0.860996 5.57473 -0.931075 6.60184C-1.00054 7.61997 -1 8.88289 -1 10.5H1ZM3.93853 -0.391036C1.97831 0.420915 0.420915 1.97831 -0.391036 3.93853L1.45672 4.7039C2.06569 3.23373 3.23373 2.06569 4.7039 1.45672L3.93853 -0.391036Z" fill="#A6A6A6"/>
</svg>
