<svg width="156" height="46" viewBox="0 0 156 46" fill="none" xmlns="http://www.w3.org/2000/svg">
<path d="M0 5C0 2.23858 2.23858 0 5 0H151C153.761 0 156 2.23858 156 5V41C156 43.7614 153.761 46 151 46H5C2.23857 46 0 43.7614 0 41V5Z" fill="black"/>
<path d="M78.7349 25.0138C76.017 25.0138 73.8018 27.0712 73.8018 29.9048C73.8018 32.7212 76.017 34.7957 78.7349 34.7957C81.4539 34.7957 83.6691 32.7212 83.6691 29.9048C83.668 27.0712 81.4528 25.0138 78.7349 25.0138ZM78.7349 32.8706C77.2454 32.8706 75.9616 31.6482 75.9616 29.906C75.9616 28.1453 77.2465 26.9412 78.7349 26.9412C80.2244 26.9412 81.5082 28.1453 81.5082 29.906C81.5082 31.6471 80.2244 32.8706 78.7349 32.8706ZM67.972 25.0138C65.2542 25.0138 63.039 27.0712 63.039 29.9048C63.039 32.7212 65.2542 34.7957 67.972 34.7957C70.6911 34.7957 72.9063 32.7212 72.9063 29.9048C72.9063 27.0712 70.6911 25.0138 67.972 25.0138ZM67.972 32.8706C66.4825 32.8706 65.1987 31.6482 65.1987 29.906C65.1987 28.1453 66.4837 26.9412 67.972 26.9412C69.4616 26.9412 70.7454 28.1453 70.7454 29.906C70.7465 31.6471 69.4616 32.8706 67.972 32.8706ZM55.1708 26.5157V28.5903H60.1605C60.0114 29.7576 59.6208 30.6097 59.0246 31.202C58.2989 31.9242 57.163 32.7211 55.1708 32.7211C52.0993 32.7211 49.6981 30.2567 49.6981 27.2C49.6981 24.1433 52.0993 21.6788 55.1708 21.6788C56.8279 21.6788 58.0377 22.3274 58.931 23.1612L60.402 21.6972C59.154 20.5116 57.4981 19.6042 55.1708 19.6042C50.9634 19.6042 47.4263 23.0128 47.4263 27.2C47.4263 31.3871 50.9634 34.7957 55.1708 34.7957C57.4415 34.7957 59.1552 34.054 60.4945 32.6648C61.8719 31.294 62.3006 29.3666 62.3006 27.8106C62.3006 27.3299 62.2636 26.8849 62.1885 26.5146H55.1708V26.5157ZM107.527 28.1269C107.118 27.0344 105.87 25.0138 103.319 25.0138C100.788 25.0138 98.6833 26.9965 98.6833 29.9048C98.6833 32.6464 100.769 34.7957 103.561 34.7957C105.813 34.7957 107.116 33.425 107.657 32.628L105.982 31.5159C105.424 32.3313 104.66 32.8684 103.561 32.8684C102.463 32.8684 101.681 32.3681 101.178 31.386L107.75 28.6812L107.527 28.1269ZM100.824 29.7576C100.769 27.867 102.296 26.9044 103.394 26.9044C104.251 26.9044 104.976 27.3311 105.219 27.9417L100.824 29.7576ZM95.4824 34.5002H97.6409V20.124H95.4824V34.5002ZM91.944 26.1075H91.8701C91.3859 25.5325 90.4545 25.0138 89.2828 25.0138C86.8249 25.0138 84.5728 27.1632 84.5728 29.9243C84.5728 32.6659 86.8249 34.7969 89.2828 34.7969C90.4557 34.7969 91.3859 34.2782 91.8701 33.686H91.944V34.3898C91.944 36.2608 90.9387 37.2614 89.3198 37.2614C87.9978 37.2614 87.1785 36.3172 86.8434 35.5203L84.9633 36.2988C85.503 37.5948 86.9359 39.1887 89.3198 39.1887C91.8516 39.1887 93.9928 37.7064 93.9928 34.0931V25.3117H91.9452V26.1075H91.944ZM89.4689 32.8706C87.9793 32.8706 86.7325 31.6286 86.7325 29.9243C86.7325 28.2005 87.9793 26.9412 89.4689 26.9412C90.9387 26.9412 92.0931 28.2005 92.0931 29.9243C92.0931 31.6286 90.9387 32.8706 89.4689 32.8706ZM117.642 20.124H112.476V34.5002H114.631V29.0538H117.641C120.031 29.0538 122.381 27.3322 122.381 24.5895C122.381 21.8467 120.032 20.124 117.642 20.124ZM117.698 27.0528H114.631V22.125H117.698C119.31 22.125 120.225 23.4533 120.225 24.5895C120.225 25.7027 119.31 27.0528 117.698 27.0528ZM131.024 24.9885C129.463 24.9885 127.846 25.6728 127.177 27.1897L129.091 27.9843C129.5 27.1896 130.262 26.9297 131.061 26.9297C132.176 26.9297 133.309 27.5956 133.328 28.779V28.9273C132.937 28.7053 132.101 28.373 131.079 28.373C129.017 28.373 126.916 29.5011 126.916 31.6091C126.916 33.533 128.608 34.7716 130.503 34.7716C131.952 34.7716 132.751 34.1242 133.253 33.3651H133.327V34.4749H135.409V28.963C135.41 26.4123 133.494 24.9885 131.024 24.9885ZM130.763 32.8672C130.058 32.8672 129.072 32.5153 129.072 31.6459C129.072 30.5362 130.299 30.1106 131.359 30.1106C132.305 30.1106 132.752 30.3142 133.328 30.5914C133.16 31.9242 132.008 32.8672 130.763 32.8672ZM142.992 25.3025L140.52 31.5355H140.446L137.881 25.3025H135.558L139.405 34.0137L137.212 38.8598H139.46L145.39 25.3025H142.992ZM123.572 34.5002H125.727V20.124H123.572V34.5002Z" fill="white"/>
<path d="M54.7941 11.7794C54.7941 12.7431 54.5076 13.5102 53.9333 14.0829C53.2815 14.7637 52.431 15.1041 51.3864 15.1041C50.3857 15.1041 49.5341 14.7591 48.8349 14.0691C48.1347 13.3779 47.7845 12.5223 47.7845 11.5011C47.7845 10.4788 48.1347 9.62317 48.8349 8.93317C49.5341 8.24202 50.3857 7.89702 51.3864 7.89702C51.8833 7.89702 52.3582 7.99362 52.8089 8.18567C53.2607 8.37887 53.6224 8.63532 53.8928 8.95617L53.2838 9.56337C52.8251 9.01712 52.193 8.74457 51.3853 8.74457C50.6549 8.74457 50.024 8.99987 49.4913 9.51047C48.9586 10.0211 48.6928 10.6846 48.6928 11.5C48.6928 12.3153 48.9586 12.9789 49.4913 13.4895C50.024 14.0001 50.6549 14.2554 51.3853 14.2554C52.1595 14.2554 52.8054 13.9989 53.322 13.4849C53.6571 13.1502 53.8512 12.6845 53.9032 12.0876H51.3853V11.2585H54.7445C54.7791 11.439 54.7941 11.6127 54.7941 11.7794Z" fill="white"/>
<path d="M60.1214 8.89759H56.9644V11.0849H59.8117V11.914H56.9644V14.1013H60.1214V14.95H56.0735V8.05004H60.1214V8.89759Z" fill="white"/>
<path d="M63.8779 14.95H62.987V8.89759H61.0503V8.05004H65.8147V8.89759H63.8779V14.95Z" fill="white"/>
<path d="M69.2616 14.95V8.05004H70.1526V14.95H69.2616Z" fill="white"/>
<path d="M74.1036 14.95H73.2127V8.89759H71.2759V8.05004H76.0403V8.89759H74.1036V14.95Z" fill="white"/>
<path d="M85.0592 14.0588C84.3774 14.7557 83.5304 15.1041 82.5169 15.1041C81.5035 15.1041 80.6565 14.7557 79.9759 14.0588C79.2941 13.3619 78.9544 12.5086 78.9544 11.5C78.9544 10.4915 79.2941 9.63818 79.9759 8.94128C80.6565 8.24438 81.5035 7.89478 82.5169 7.89478C83.5246 7.89478 84.3704 8.24552 85.0545 8.94587C85.7386 9.64622 86.0807 10.4972 86.0807 11.5C86.0807 12.5086 85.7398 13.3619 85.0592 14.0588ZM80.6334 13.4803C81.1464 13.9978 81.7739 14.2554 82.5169 14.2554C83.26 14.2554 83.8886 13.9967 84.4005 13.4803C84.9136 12.9628 85.1712 12.3027 85.1712 11.5C85.1712 10.6973 84.9136 10.0372 84.4005 9.51973C83.8886 9.00223 83.26 8.74463 82.5169 8.74463C81.7739 8.74463 81.1464 9.00338 80.6334 9.51973C80.1215 10.0372 79.8638 10.6973 79.8638 11.5C79.8638 12.3027 80.1215 12.9628 80.6334 13.4803Z" fill="white"/>
<path d="M87.331 14.95V8.05004H88.4149L91.7845 13.4171H91.8226L91.7845 12.0877V8.05004H92.6754V14.95H91.7452L88.2196 9.32194H88.1815L88.2196 10.6513V14.95H87.331Z" fill="white"/>
<path d="M54.7941 11.7794C54.7941 12.7431 54.5076 13.5102 53.9333 14.0829C53.2815 14.7637 52.431 15.1041 51.3864 15.1041C50.3857 15.1041 49.5341 14.7591 48.8349 14.0691C48.1347 13.3779 47.7845 12.5223 47.7845 11.5011C47.7845 10.4788 48.1347 9.62317 48.8349 8.93317C49.5341 8.24202 50.3857 7.89702 51.3864 7.89702C51.8833 7.89702 52.3582 7.99362 52.8089 8.18567C53.2607 8.37887 53.6224 8.63532 53.8928 8.95617L53.2838 9.56337C52.8251 9.01712 52.193 8.74457 51.3853 8.74457C50.6549 8.74457 50.024 8.99987 49.4913 9.51047C48.9586 10.0211 48.6928 10.6846 48.6928 11.5C48.6928 12.3153 48.9586 12.9789 49.4913 13.4895C50.024 14.0001 50.6549 14.2554 51.3853 14.2554C52.1595 14.2554 52.8054 13.9989 53.322 13.4849C53.6571 13.1502 53.8512 12.6845 53.9032 12.0876H51.3853V11.2585H54.7445C54.7791 11.439 54.7941 11.6127 54.7941 11.7794Z" stroke="white" stroke-width="0.2" stroke-miterlimit="10"/>
<path d="M60.1214 8.89759H56.9644V11.0849H59.8117V11.914H56.9644V14.1013H60.1214V14.95H56.0735V8.05004H60.1214V8.89759Z" stroke="white" stroke-width="0.2" stroke-miterlimit="10"/>
<path d="M63.8779 14.95H62.987V8.89759H61.0503V8.05004H65.8147V8.89759H63.8779V14.95Z" stroke="white" stroke-width="0.2" stroke-miterlimit="10"/>
<path d="M69.2616 14.95V8.05004H70.1526V14.95H69.2616Z" stroke="white" stroke-width="0.2" stroke-miterlimit="10"/>
<path d="M74.1036 14.95H73.2127V8.89759H71.2759V8.05004H76.0403V8.89759H74.1036V14.95Z" stroke="white" stroke-width="0.2" stroke-miterlimit="10"/>
<path d="M85.0592 14.0588C84.3774 14.7557 83.5304 15.1041 82.5169 15.1041C81.5035 15.1041 80.6565 14.7557 79.9759 14.0588C79.2941 13.3619 78.9544 12.5086 78.9544 11.5C78.9544 10.4915 79.2941 9.63818 79.9759 8.94128C80.6565 8.24438 81.5035 7.89478 82.5169 7.89478C83.5246 7.89478 84.3704 8.24552 85.0545 8.94587C85.7386 9.64622 86.0807 10.4972 86.0807 11.5C86.0807 12.5086 85.7398 13.3619 85.0592 14.0588ZM80.6334 13.4803C81.1464 13.9978 81.7739 14.2554 82.5169 14.2554C83.26 14.2554 83.8886 13.9967 84.4005 13.4803C84.9136 12.9628 85.1712 12.3027 85.1712 11.5C85.1712 10.6973 84.9136 10.0372 84.4005 9.51973C83.8886 9.00223 83.26 8.74463 82.5169 8.74463C81.7739 8.74463 81.1464 9.00338 80.6334 9.51973C80.1215 10.0372 79.8638 10.6973 79.8638 11.5C79.8638 12.3027 80.1215 12.9628 80.6334 13.4803Z" stroke="white" stroke-width="0.2" stroke-miterlimit="10"/>
<path d="M87.331 14.95V8.05004H88.4149L91.7845 13.4171H91.8226L91.7845 12.0877V8.05004H92.6754V14.95H91.7452L88.2196 9.32194H88.1815L88.2196 10.6513V14.95H87.331Z" stroke="white" stroke-width="0.2" stroke-miterlimit="10"/>
<g filter="url(#filter0_ii_5_795)">
<path d="M12.0594 8.66891C11.7232 9.02311 11.5244 9.57281 11.5244 10.2847V35.7181C11.5244 36.4311 11.7232 36.9796 12.0594 37.3338L12.1449 37.4166L26.4611 23.1693V23.0014V22.8335L12.1449 8.58496L12.0594 8.66891Z" fill="url(#paint0_linear_5_795)"/>
<path d="M31.2325 27.9197L26.4612 23.169V23.0011V22.8332L31.2336 18.0837L31.3411 18.1447L36.9952 21.3417C38.6095 22.2548 38.6095 23.7486 36.9952 24.6629L31.3411 27.8599L31.2325 27.9197Z" fill="url(#paint1_linear_5_795)"/>
<g filter="url(#filter1_i_5_795)">
<path d="M31.341 27.8588L26.46 23.0012L12.0594 37.3337C12.591 37.8949 13.4704 37.9639 14.4607 37.405L31.341 27.8588Z" fill="url(#paint2_linear_5_795)"/>
</g>
<path d="M31.341 18.1436L14.4607 8.59864C13.4704 8.03859 12.591 8.10875 12.0594 8.66995L26.4611 23.0024L31.341 18.1436Z" fill="url(#paint3_linear_5_795)"/>
</g>
<path d="M5 1H151V-1H5V1ZM155 5V41H157V5H155ZM151 45H5V47H151V45ZM1 41V5H-1V41H1ZM5 45C2.79086 45 1 43.2091 1 41H-1C-1 44.3137 1.68629 47 5 47V45ZM155 41C155 43.2091 153.209 45 151 45V47C154.314 47 157 44.3137 157 41H155ZM151 1C153.209 1 155 2.79086 155 5H157C157 1.68629 154.314 -1 151 -1V1ZM5 -1C1.68629 -1 -1 1.68629 -1 5H1C1 2.79086 2.79086 1 5 1V-1Z" fill="#A6A6A6"/>
<defs>
<filter id="filter0_ii_5_795" x="11.5244" y="8.21216" width="26.6815" height="29.5789" filterUnits="userSpaceOnUse" color-interpolation-filters="sRGB">
<feFlood flood-opacity="0" result="BackgroundImageFix"/>
<feBlend mode="normal" in="SourceGraphic" in2="BackgroundImageFix" result="shape"/>
<feColorMatrix in="SourceAlpha" type="matrix" values="0 0 0 0 0 0 0 0 0 0 0 0 0 0 0 0 0 0 127 0" result="hardAlpha"/>
<feOffset dy="-0.15"/>
<feComposite in2="hardAlpha" operator="arithmetic" k2="-1" k3="1"/>
<feColorMatrix type="matrix" values="0 0 0 0 0 0 0 0 0 0 0 0 0 0 0 0 0 0 0.12 0"/>
<feBlend mode="normal" in2="shape" result="effect1_innerShadow_5_795"/>
<feColorMatrix in="SourceAlpha" type="matrix" values="0 0 0 0 0 0 0 0 0 0 0 0 0 0 0 0 0 0 127 0" result="hardAlpha"/>
<feOffset dy="0.15"/>
<feComposite in2="hardAlpha" operator="arithmetic" k2="-1" k3="1"/>
<feColorMatrix type="matrix" values="0 0 0 0 1 0 0 0 0 1 0 0 0 0 1 0 0 0 0.25 0"/>
<feBlend mode="normal" in2="effect1_innerShadow_5_795" result="effect2_innerShadow_5_795"/>
</filter>
<filter id="filter1_i_5_795" x="12.0594" y="23.0012" width="19.2816" height="14.7898" filterUnits="userSpaceOnUse" color-interpolation-filters="sRGB">
<feFlood flood-opacity="0" result="BackgroundImageFix"/>
<feBlend mode="normal" in="SourceGraphic" in2="BackgroundImageFix" result="shape"/>
<feColorMatrix in="SourceAlpha" type="matrix" values="0 0 0 0 0 0 0 0 0 0 0 0 0 0 0 0 0 0 127 0" result="hardAlpha"/>
<feOffset dy="-0.15"/>
<feComposite in2="hardAlpha" operator="arithmetic" k2="-1" k3="1"/>
<feColorMatrix type="matrix" values="0 0 0 0 0 0 0 0 0 0 0 0 0 0 0 0 0 0 0.08 0"/>
<feBlend mode="normal" in2="shape" result="effect1_innerShadow_5_795"/>
</filter>
<linearGradient id="paint0_linear_5_795" x1="25.1921" y1="10.0156" x2="5.89302" y2="29.4079" gradientUnits="userSpaceOnUse">
<stop stop-color="#00A0FF"/>
<stop offset="0.0066" stop-color="#00A1FF"/>
<stop offset="0.2601" stop-color="#00BEFF"/>
<stop offset="0.5122" stop-color="#00D2FF"/>
<stop offset="0.7604" stop-color="#00DFFF"/>
<stop offset="1" stop-color="#00E3FF"/>
</linearGradient>
<linearGradient id="paint1_linear_5_795" x1="39.0966" y1="23.0011" x2="11.1369" y2="23.0011" gradientUnits="userSpaceOnUse">
<stop stop-color="#FFE000"/>
<stop offset="0.4087" stop-color="#FFBD00"/>
<stop offset="0.7754" stop-color="#FFA500"/>
<stop offset="1" stop-color="#FF9C00"/>
</linearGradient>
<linearGradient id="paint2_linear_5_795" x1="28.6903" y1="25.6392" x2="2.51835" y2="51.9376" gradientUnits="userSpaceOnUse">
<stop stop-color="#FF3A44"/>
<stop offset="1" stop-color="#C31162"/>
</linearGradient>
<linearGradient id="paint3_linear_5_795" x1="8.43262" y1="0.203416" x2="20.1191" y2="11.9464" gradientUnits="userSpaceOnUse">
<stop stop-color="#32A071"/>
<stop offset="0.0685" stop-color="#2DA771"/>
<stop offset="0.4762" stop-color="#15CF74"/>
<stop offset="0.8009" stop-color="#06E775"/>
<stop offset="1" stop-color="#00F076"/>
</linearGradient>
</defs>
</svg>
