<svg width="108" height="72" viewBox="0 0 108 72" fill="none" xmlns="http://www.w3.org/2000/svg">
<path d="M90.5171 6.36532C88.4872 4.34733 86.077 2.74651 83.4243 1.65433C80.7715 0.562149 77.9282 0 75.0568 0C72.1853 0 69.342 0.562149 66.6893 1.65433C64.0366 2.74651 61.6264 4.34733 59.5964 6.36532L55.3836 10.5514L51.1707 6.36532C47.0704 2.29103 41.5092 0.00211185 35.7104 0.00211189C29.9117 0.00211194 24.3504 2.29103 20.2501 6.36532C16.1497 10.4396 13.8462 15.9655 13.8462 21.7275C13.8462 27.4894 16.1497 33.0153 20.2501 37.0896L24.4629 41.2757L55.3836 72L86.3043 41.2757L90.5171 37.0896C92.548 35.0726 94.159 32.6777 95.2582 30.0418C96.3574 27.4059 96.9231 24.5807 96.9231 21.7275C96.9231 18.8743 96.3574 16.049 95.2582 13.4131C94.159 10.7772 92.548 8.38237 90.5171 6.36532Z" fill="url(#paint0_linear_5_537)"/>
<g filter="url(#filter0_b_5_537)">
<path d="M45 52.6155C44.2109 52.6147 43.4358 52.4064 42.7526 52.0115C42.0694 51.6165 41.5021 51.0489 41.1075 50.3655L33.435 36.5733L28.53 43.9307C28.1079 44.5394 27.542 45.0345 26.8826 45.3721C26.2232 45.7096 25.4907 45.8791 24.75 45.8656H4.5C3.30653 45.8656 2.16193 45.3915 1.31802 44.5476C0.474106 43.7037 0 42.5592 0 41.3657C0 40.1723 0.474106 39.0277 1.31802 38.1838C2.16193 37.3399 3.30653 36.8658 4.5 36.8658H22.3425L30.015 25.3686C30.4436 24.728 31.0297 24.2082 31.7169 23.8591C32.4041 23.51 33.1694 23.3433 33.9396 23.3749C34.7097 23.4066 35.4588 23.6355 36.1151 24.0397C36.7714 24.444 37.3128 25.01 37.6875 25.6836L45 39.1158L56.7675 18.8662C57.1696 18.1695 57.7511 17.5932 58.4515 17.1975C59.152 16.8018 59.9457 16.6011 60.75 16.6163C61.5353 16.621 62.3057 16.8312 62.9846 17.2259C63.6636 17.6206 64.2273 18.1861 64.62 18.8662L75.3975 36.8658L79.8975 33.3109C80.6951 32.6918 81.6778 32.359 82.6875 32.3659H103.5C104.693 32.3659 105.838 32.84 106.682 33.6839C107.526 34.5278 108 35.6724 108 36.8658C108 38.0593 107.526 39.2038 106.682 40.0477C105.838 40.8916 104.693 41.3657 103.5 41.3657H84.2625L76.95 47.1481C76.4462 47.5626 75.8582 47.8625 75.2269 48.0272C74.5956 48.1918 73.9361 48.2173 73.294 48.1017C72.6519 47.9861 72.0426 47.7323 71.5084 47.3578C70.9741 46.9834 70.5277 46.4973 70.2 45.9331L60.75 29.981L48.8925 50.3655C48.4979 51.0489 47.9306 51.6165 47.2474 52.0115C46.5642 52.4064 45.7891 52.6147 45 52.6155Z" fill="white" fill-opacity="0.2"/>
</g>
<defs>
<filter id="filter0_b_5_537" x="-25" y="-8.38452" width="158" height="86" filterUnits="userSpaceOnUse" color-interpolation-filters="sRGB">
<feFlood flood-opacity="0" result="BackgroundImageFix"/>
<feGaussianBlur in="BackgroundImage" stdDeviation="12.5"/>
<feComposite in2="SourceAlpha" operator="in" result="effect1_backgroundBlur_5_537"/>
<feBlend mode="normal" in="SourceGraphic" in2="effect1_backgroundBlur_5_537" result="shape"/>
</filter>
<linearGradient id="paint0_linear_5_537" x1="13.8462" y1="33.6" x2="94.9315" y2="34.0175" gradientUnits="userSpaceOnUse">
<stop stop-color="#FF7070"/>
<stop offset="1" stop-color="#FF7070" stop-opacity="0.65"/>
</linearGradient>
</defs>
</svg>
