<svg width="31" height="31" viewBox="0 0 31 31" fill="none" xmlns="http://www.w3.org/2000/svg">
<circle cx="15.5331" cy="15.4667" r="15.4667" fill="#0077B5"/>
<path fill-rule="evenodd" clip-rule="evenodd" d="M11.9525 8.55367C11.9525 9.4245 11.2895 10.1292 10.2526 10.1292C9.25604 10.1292 8.59298 9.4245 8.6135 8.55367C8.59298 7.64052 9.25603 6.9563 10.2724 6.9563C11.2895 6.9563 11.9327 7.64052 11.9525 8.55367ZM8.69687 21.5173V11.3739H11.8493V21.5167H8.69687V21.5173Z" fill="white"/>
<path fill-rule="evenodd" clip-rule="evenodd" d="M14.3761 14.6111C14.3761 13.3459 14.3344 12.2673 14.2927 11.3753H17.0309L17.1765 12.765H17.2387C17.6536 12.1218 18.6905 11.1477 20.3706 11.1477C22.4444 11.1477 24.0001 12.5168 24.0001 15.5025V21.5188H20.8477V15.8975C20.8477 14.59 20.3917 13.6986 19.2509 13.6986C18.3795 13.6986 17.8613 14.3001 17.6542 14.8805C17.5708 15.0882 17.5298 15.3781 17.5298 15.6692V21.5188H14.3774V14.6111H14.3761Z" fill="white"/>
</svg>
