<svg width="80" height="84" viewBox="0 0 80 84" fill="none" xmlns="http://www.w3.org/2000/svg">
<path d="M16.9802 34.1076C24.4967 23.9154 53.3015 3.69511 63.4937 11.2116C73.6859 18.7282 61.406 51.1351 53.8895 61.3274L45.5142 72.684C37.9977 82.8763 23.6419 85.0454 13.4497 77.5288C3.25743 70.0123 1.08837 55.6565 8.6049 45.4643L16.9802 34.1076Z" fill="url(#paint0_linear_5_556)"/>
<g filter="url(#filter0_b_5_556)">
<path d="M65.7953 6.54949C55.6031 -0.967041 41.2473 1.20202 33.7308 11.3942L20.1209 29.8489L57.0302 57.0687L70.6401 38.614C78.1566 28.4218 75.9875 14.066 65.7953 6.54949Z" fill="white" fill-opacity="0.2"/>
</g>
<path fill-rule="evenodd" clip-rule="evenodd" d="M36.7925 17.0834C42.0942 6.49033 52.4798 5.38541 57.3645 7.3775C58.7811 7.9552 59.4611 9.57188 58.8834 10.9884C58.3057 12.405 56.6891 13.085 55.2725 12.5073C52.8531 11.5207 45.6514 11.7612 41.7467 19.563C41.062 20.931 39.3979 21.485 38.0298 20.8003C36.6617 20.1156 36.1078 18.4515 36.7925 17.0834Z" fill="white"/>
<defs>
<filter id="filter0_b_5_556" x="-4.87915" y="-22.9277" width="104.996" height="104.996" filterUnits="userSpaceOnUse" color-interpolation-filters="sRGB">
<feFlood flood-opacity="0" result="BackgroundImageFix"/>
<feGaussianBlur in="BackgroundImage" stdDeviation="12.5"/>
<feComposite in2="SourceAlpha" operator="in" result="effect1_backgroundBlur_5_556"/>
<feBlend mode="normal" in="SourceGraphic" in2="effect1_backgroundBlur_5_556" result="shape"/>
</filter>
<linearGradient id="paint0_linear_5_556" x1="3.09691" y1="46.4674" x2="67.3911" y2="41.8191" gradientUnits="userSpaceOnUse">
<stop stop-color="#AA80FF"/>
<stop offset="1" stop-color="#A071FF" stop-opacity="0.65"/>
</linearGradient>
</defs>
</svg>
