<svg width="32" height="31" viewBox="0 0 32 31" fill="none" xmlns="http://www.w3.org/2000/svg">
<circle cx="16.0009" cy="15.4667" r="15.4667" fill="#1DA1F2"/>
<path fill-rule="evenodd" clip-rule="evenodd" d="M24.2748 10.1421C23.6663 10.4124 23.0115 10.5944 22.3247 10.6766C23.0259 10.2563 23.5643 9.59098 23.8175 8.79828C23.1621 9.18774 22.4345 9.46963 21.6617 9.62243C21.0422 8.96267 20.159 8.55005 19.1832 8.55005C17.3082 8.55005 15.7879 10.0704 15.7879 11.9454C15.7879 12.2113 15.8182 12.4705 15.8761 12.7193C13.054 12.5781 10.5523 11.226 8.87753 9.17174C8.58516 9.67318 8.41802 10.2563 8.41802 10.8785C8.41802 12.0562 9.01654 13.0955 9.92839 13.7045C9.37124 13.6869 8.84829 13.5341 8.38988 13.2798V13.3222C8.38988 14.9678 9.561 16.3397 11.1133 16.6525C10.8287 16.7297 10.5286 16.7716 10.2191 16.7716C10.0001 16.7716 9.78717 16.7501 9.57976 16.7104C10.0117 18.0591 11.2661 19.0411 12.7517 19.0686C11.5899 19.9788 10.1259 20.5222 8.53496 20.5222C8.26025 20.5222 7.98995 20.5062 7.72461 20.4742C9.22727 21.4374 11.0118 22 12.9293 22C19.1744 22 22.5895 16.8262 22.5895 12.3398C22.5895 12.1925 22.5868 12.0458 22.5796 11.9007C23.2438 11.4208 23.8197 10.8228 24.2748 10.1421Z" fill="white"/>
</svg>
