<svg width="360" height="386" viewBox="0 0 360 386" fill="none" xmlns="http://www.w3.org/2000/svg">
<rect width="360" height="385.494" rx="8" fill="white"/>
<path d="M25.3399 42H28.1077V36.5923H33.4323V34.3104H28.1077V31.1911H34.0075V28.9091H25.3399V42ZM39.5718 42.1918C42.0008 42.1918 43.6372 41.0092 44.0207 39.1875L41.5022 39.0213C41.2274 39.7692 40.5242 40.1591 39.6166 40.1591C38.2551 40.1591 37.3921 39.2578 37.3921 37.794V37.7876H44.0782V37.0398C44.0782 33.7031 42.0583 32.054 39.4632 32.054C36.574 32.054 34.7011 34.1058 34.7011 37.1357C34.7011 40.2486 36.5484 42.1918 39.5718 42.1918ZM37.3921 36.1001C37.4497 34.9815 38.2998 34.0866 39.5079 34.0866C40.6904 34.0866 41.5086 34.9304 41.515 36.1001H37.3921ZM45.9063 42H48.591V40.4276H48.7124C49.0896 41.2457 49.9142 42.1598 51.4994 42.1598C53.7366 42.1598 55.4816 40.3892 55.4816 37.1037C55.4816 33.7287 53.6599 32.054 51.5058 32.054C49.863 32.054 49.0768 33.032 48.7124 33.831H48.6294V28.9091H45.9063V42ZM48.5718 37.0909C48.5718 35.3395 49.3133 34.2209 50.6365 34.2209C51.9852 34.2209 52.7011 35.3906 52.7011 37.0909C52.7011 38.804 51.9724 39.9929 50.6365 39.9929C49.3261 39.9929 48.5718 38.8423 48.5718 37.0909ZM57.2986 42H60.0216V36.4453C60.0216 35.2372 60.9037 34.4062 62.1054 34.4062C62.4825 34.4062 63.0003 34.4702 63.2559 34.5533V32.1371C63.0131 32.0795 62.6743 32.0412 62.3994 32.0412C61.3 32.0412 60.3987 32.6804 60.0407 33.8949H59.9385V32.1818H57.2986V42ZM70.96 37.8196C70.9664 39.1364 70.0651 39.8267 69.0871 39.8267C68.058 39.8267 67.3932 39.1044 67.3868 37.9474V32.1818H64.6638V38.4332C64.6702 40.728 66.0125 42.1278 67.9877 42.1278C69.4642 42.1278 70.5253 41.3672 70.9664 40.2166H71.0686V42H73.683V32.1818H70.96V37.8196ZM78.6608 42.1854C80.1118 42.1854 81.0514 41.5526 81.5308 40.6385H81.6075V42H84.1899V35.3778C84.1899 33.0384 82.2084 32.054 80.0223 32.054C77.67 32.054 76.1231 33.179 75.746 34.9688L78.2645 35.1733C78.4498 34.5213 79.0315 34.0419 80.0095 34.0419C80.9363 34.0419 81.4669 34.5085 81.4669 35.3139V35.3523C81.4669 35.9851 80.7957 36.0682 79.089 36.2344C77.1459 36.4134 75.4008 37.0653 75.4008 39.2578C75.4008 41.201 76.7879 42.1854 78.6608 42.1854ZM79.4406 40.3061C78.6032 40.3061 78.0024 39.9162 78.0024 39.1683C78.0024 38.4013 78.6352 38.0241 79.594 37.8899C80.1885 37.8068 81.1601 37.6662 81.4861 37.4489V38.4908C81.4861 39.5199 80.6359 40.3061 79.4406 40.3061ZM86.3025 42H89.0255V36.4453C89.0255 35.2372 89.9076 34.4062 91.1093 34.4062C91.4864 34.4062 92.0042 34.4702 92.2599 34.5533V32.1371C92.017 32.0795 91.6782 32.0412 91.4033 32.0412C90.3039 32.0412 89.4026 32.6804 89.0447 33.8949H88.9424V32.1818H86.3025V42ZM95.6476 45.6818C97.6739 45.6818 98.7478 44.6463 99.3039 43.0611L103.12 32.1946L100.237 32.1818L98.1853 39.392H98.083L96.0503 32.1818H93.1867L96.7087 42.2812L96.5489 42.6967C96.191 43.6172 95.507 43.6619 94.5482 43.3679L93.9346 45.4006C94.3245 45.5668 94.9573 45.6818 95.6476 45.6818ZM108.852 42H117.468V40.3061H111.575V40.2102L114.177 37.4872C116.574 35.0646 117.258 33.9077 117.258 32.4439C117.258 30.3409 115.544 28.7301 113.077 28.7301C110.629 28.7301 108.839 30.3153 108.839 32.706H110.725C110.718 31.2997 111.626 30.3793 113.039 30.3793C114.368 30.3793 115.378 31.1974 115.378 32.5014C115.378 33.6584 114.688 34.4893 113.282 35.9787L108.852 40.5682V42ZM124.449 42.2173C127.472 42.2173 129.243 39.75 129.243 35.4609C129.243 31.2038 127.446 28.7301 124.449 28.7301C121.444 28.7301 119.655 31.1974 119.648 35.4609C119.648 39.7436 121.419 42.2109 124.449 42.2173ZM124.449 40.5107C122.678 40.5107 121.611 38.7337 121.611 35.4609C121.617 32.201 122.684 30.4048 124.449 30.4048C126.206 30.4048 127.28 32.201 127.28 35.4609C127.28 38.7337 126.213 40.5107 124.449 40.5107ZM131.51 42H140.127V40.3061H134.233V40.2102L136.835 37.4872C139.232 35.0646 139.916 33.9077 139.916 32.4439C139.916 30.3409 138.203 28.7301 135.735 28.7301C133.287 28.7301 131.497 30.3153 131.497 32.706H133.383C133.377 31.2997 134.284 30.3793 135.697 30.3793C137.027 30.3793 138.036 31.1974 138.036 32.5014C138.036 33.6584 137.346 34.4893 135.94 35.9787L131.51 40.5682V42ZM147.516 28.9091H145.592L142.326 31.044V32.9361L145.458 30.8906H145.534V42H147.516V28.9091Z" fill="#1D2B4F"/>
<rect x="280" y="24" width="24" height="24" rx="4" fill="#8692A6" fill-opacity="0.1"/>
<path opacity="0.8" d="M294.5 31L289.5 36L294.5 41" stroke="#40A3F8" stroke-width="3"/>
<rect width="24" height="24" rx="4" transform="matrix(-1 0 0 1 336 24)" fill="#8692A6" fill-opacity="0.1"/>
<path opacity="0.8" d="M321.172 31L326.828 36L321.172 41" stroke="#40A3F8" stroke-width="3"/>
<path d="M24 64H72" stroke="#0E63F4" stroke-width="3"/>
<path d="M36.7942 99.601V109H35.2537V102.929C35.2537 102.686 35.2667 102.424 35.2927 102.142L32.4522 107.479C32.3178 107.735 32.112 107.862 31.8347 107.862H31.5877C31.3103 107.862 31.1045 107.735 30.9702 107.479L28.0972 102.123C28.1102 102.266 28.121 102.407 28.1297 102.545C28.1383 102.684 28.1427 102.812 28.1427 102.929V109H26.6022V99.601H27.9217C27.9997 99.601 28.0668 99.6032 28.1232 99.6075C28.1795 99.6118 28.2293 99.6227 28.2727 99.64C28.3203 99.6573 28.3615 99.6855 28.3962 99.7245C28.4352 99.7635 28.472 99.8155 28.5067 99.8805L31.3212 105.1C31.3948 105.239 31.462 105.382 31.5227 105.529C31.5877 105.676 31.6505 105.828 31.7112 105.984C31.7718 105.824 31.8347 105.67 31.8997 105.522C31.9647 105.371 32.034 105.226 32.1077 105.087L34.8832 99.8805C34.9178 99.8155 34.9547 99.7635 34.9937 99.7245C35.0327 99.6855 35.0738 99.6573 35.1172 99.64C35.1648 99.6227 35.2168 99.6118 35.2732 99.6075C35.3295 99.6032 35.3967 99.601 35.4747 99.601H36.7942ZM41.3856 102.227C41.8796 102.227 42.3281 102.307 42.7311 102.468C43.1384 102.628 43.4851 102.855 43.7711 103.15C44.0614 103.445 44.2846 103.804 44.4406 104.229C44.5966 104.654 44.6746 105.128 44.6746 105.652C44.6746 106.181 44.5966 106.658 44.4406 107.082C44.2846 107.507 44.0614 107.869 43.7711 108.168C43.4851 108.467 43.1384 108.697 42.7311 108.857C42.3281 109.017 41.8796 109.098 41.3856 109.098C40.8873 109.098 40.4344 109.017 40.0271 108.857C39.6198 108.697 39.2709 108.467 38.9806 108.168C38.6946 107.869 38.4714 107.507 38.3111 107.082C38.1551 106.658 38.0771 106.181 38.0771 105.652C38.0771 105.128 38.1551 104.654 38.3111 104.229C38.4714 103.804 38.6946 103.445 38.9806 103.15C39.2709 102.855 39.6198 102.628 40.0271 102.468C40.4344 102.307 40.8873 102.227 41.3856 102.227ZM41.3856 107.862C41.9403 107.862 42.3498 107.676 42.6141 107.303C42.8828 106.931 43.0171 106.385 43.0171 105.665C43.0171 104.946 42.8828 104.398 42.6141 104.021C42.3498 103.644 41.9403 103.455 41.3856 103.455C40.8223 103.455 40.4041 103.646 40.1311 104.027C39.8624 104.404 39.7281 104.95 39.7281 105.665C39.7281 106.38 39.8624 106.926 40.1311 107.303C40.4041 107.676 40.8223 107.862 41.3856 107.862ZM47.4009 103.15C47.5353 103.016 47.6761 102.892 47.8234 102.779C47.9751 102.662 48.1333 102.565 48.2979 102.487C48.4669 102.405 48.6468 102.342 48.8374 102.298C49.0281 102.251 49.2361 102.227 49.4614 102.227C49.8254 102.227 50.1483 102.29 50.4299 102.415C50.7116 102.537 50.9456 102.71 51.1319 102.935C51.3226 103.156 51.4656 103.423 51.5609 103.735C51.6606 104.043 51.7104 104.383 51.7104 104.755V109H50.1049V104.755C50.1049 104.348 50.0118 104.034 49.8254 103.813C49.6391 103.588 49.3553 103.475 48.9739 103.475C48.6966 103.475 48.4366 103.538 48.1939 103.663C47.9513 103.789 47.7216 103.96 47.5049 104.177V109H45.8994V102.331H46.8809C47.0889 102.331 47.2254 102.428 47.2904 102.623L47.4009 103.15Z" fill="#1D2B4F"/>
<path d="M83.176 101.037H80.342V109H78.5935V101.037H75.7595V99.601H83.176V101.037ZM88.6923 102.331V109H87.7108C87.4985 109 87.3642 108.902 87.3078 108.707L87.1973 108.174C86.9243 108.452 86.6232 108.677 86.2938 108.85C85.9645 109.019 85.5767 109.104 85.1303 109.104C84.7663 109.104 84.4435 109.043 84.1618 108.922C83.8845 108.796 83.6505 108.621 83.4598 108.395C83.2692 108.17 83.124 107.904 83.0243 107.596C82.929 107.284 82.8813 106.942 82.8813 106.569V102.331H84.4868V106.569C84.4868 106.976 84.58 107.293 84.7663 107.518C84.957 107.739 85.2408 107.849 85.6178 107.849C85.8952 107.849 86.1552 107.789 86.3978 107.667C86.6405 107.542 86.8702 107.371 87.0868 107.154V102.331H88.6923ZM94.5807 104.898C94.5807 104.69 94.5504 104.495 94.4897 104.313C94.4334 104.127 94.3467 103.965 94.2297 103.826C94.1127 103.687 93.9632 103.579 93.7812 103.501C93.6035 103.419 93.3955 103.377 93.1572 103.377C92.6935 103.377 92.3274 103.51 92.0587 103.774C91.7944 104.038 91.6254 104.413 91.5517 104.898H94.5807ZM91.5192 105.867C91.5452 106.209 91.6059 106.506 91.7012 106.757C91.7965 107.004 91.9222 107.21 92.0782 107.375C92.2342 107.535 92.4184 107.657 92.6307 107.739C92.8474 107.817 93.0857 107.856 93.3457 107.856C93.6057 107.856 93.8289 107.826 94.0152 107.765C94.2059 107.704 94.3705 107.637 94.5092 107.563C94.6522 107.49 94.7757 107.423 94.8797 107.362C94.988 107.301 95.092 107.271 95.1917 107.271C95.326 107.271 95.4257 107.321 95.4907 107.42L95.9522 108.005C95.7745 108.213 95.5752 108.389 95.3542 108.532C95.1332 108.671 94.9014 108.783 94.6587 108.87C94.4204 108.952 94.1755 109.011 93.9242 109.046C93.6772 109.08 93.4367 109.098 93.2027 109.098C92.739 109.098 92.3079 109.022 91.9092 108.87C91.5105 108.714 91.1639 108.486 90.8692 108.188C90.5745 107.884 90.3427 107.511 90.1737 107.069C90.0047 106.623 89.9202 106.107 89.9202 105.522C89.9202 105.067 89.9939 104.641 90.1412 104.242C90.2885 103.839 90.4987 103.49 90.7717 103.195C91.049 102.896 91.3849 102.66 91.7792 102.487C92.1779 102.314 92.6264 102.227 93.1247 102.227C93.545 102.227 93.9329 102.294 94.2882 102.428C94.6435 102.563 94.949 102.76 95.2047 103.02C95.4604 103.276 95.6597 103.592 95.8027 103.969C95.95 104.342 96.0237 104.768 96.0237 105.249C96.0237 105.492 95.9977 105.657 95.9457 105.743C95.8937 105.826 95.794 105.867 95.6467 105.867H91.5192Z" fill="#1D2B4F"/>
<path d="M132.956 99.601L130.037 109H128.458L126.404 102.578C126.347 102.422 126.295 102.231 126.248 102.006C126.222 102.114 126.196 102.216 126.17 102.311C126.144 102.407 126.116 102.496 126.085 102.578L124.012 109H122.426L119.514 99.601H120.976C121.128 99.601 121.254 99.6378 121.353 99.7115C121.457 99.7808 121.527 99.8762 121.561 99.9975L123.16 105.62C123.195 105.759 123.227 105.91 123.258 106.075C123.292 106.235 123.327 106.404 123.362 106.582C123.396 106.4 123.433 106.229 123.472 106.068C123.516 105.908 123.561 105.759 123.609 105.62L125.455 99.9975C125.489 99.8978 125.557 99.8068 125.656 99.7245C125.76 99.6422 125.886 99.601 126.033 99.601H126.547C126.698 99.601 126.822 99.6378 126.917 99.7115C127.013 99.7852 127.084 99.8805 127.132 99.9975L128.971 105.62C129.062 105.889 129.145 106.198 129.218 106.549C129.275 106.207 129.337 105.897 129.407 105.62L131.006 99.9975C131.032 99.8892 131.097 99.796 131.201 99.718C131.309 99.64 131.437 99.601 131.584 99.601H132.956ZM137.366 104.898C137.366 104.69 137.336 104.495 137.275 104.313C137.219 104.127 137.132 103.965 137.015 103.826C136.898 103.687 136.748 103.579 136.566 103.501C136.389 103.419 136.181 103.377 135.942 103.377C135.479 103.377 135.113 103.51 134.844 103.774C134.58 104.038 134.411 104.413 134.337 104.898H137.366ZM134.304 105.867C134.33 106.209 134.391 106.506 134.486 106.757C134.582 107.004 134.707 107.21 134.863 107.375C135.019 107.535 135.204 107.657 135.416 107.739C135.633 107.817 135.871 107.856 136.131 107.856C136.391 107.856 136.614 107.826 136.8 107.765C136.991 107.704 137.156 107.637 137.294 107.563C137.437 107.49 137.561 107.423 137.665 107.362C137.773 107.301 137.877 107.271 137.977 107.271C138.111 107.271 138.211 107.321 138.276 107.42L138.737 108.005C138.56 108.213 138.36 108.389 138.139 108.532C137.918 108.671 137.687 108.783 137.444 108.87C137.206 108.952 136.961 109.011 136.709 109.046C136.462 109.08 136.222 109.098 135.988 109.098C135.524 109.098 135.093 109.022 134.694 108.87C134.296 108.714 133.949 108.486 133.654 108.188C133.36 107.884 133.128 107.511 132.959 107.069C132.79 106.623 132.705 106.107 132.705 105.522C132.705 105.067 132.779 104.641 132.926 104.242C133.074 103.839 133.284 103.49 133.557 103.195C133.834 102.896 134.17 102.66 134.564 102.487C134.963 102.314 135.412 102.227 135.91 102.227C136.33 102.227 136.718 102.294 137.073 102.428C137.429 102.563 137.734 102.76 137.99 103.02C138.246 103.276 138.445 103.592 138.588 103.969C138.735 104.342 138.809 104.768 138.809 105.249C138.809 105.492 138.783 105.657 138.731 105.743C138.679 105.826 138.579 105.867 138.432 105.867H134.304ZM144.2 104.034C144.018 103.813 143.818 103.657 143.602 103.566C143.389 103.475 143.16 103.429 142.913 103.429C142.67 103.429 142.451 103.475 142.256 103.566C142.061 103.657 141.894 103.796 141.756 103.982C141.617 104.164 141.511 104.398 141.437 104.684C141.364 104.966 141.327 105.299 141.327 105.685C141.327 106.075 141.357 106.406 141.418 106.679C141.483 106.948 141.574 107.169 141.691 107.342C141.808 107.511 141.951 107.635 142.12 107.713C142.289 107.787 142.477 107.823 142.685 107.823C143.019 107.823 143.303 107.754 143.537 107.615C143.771 107.477 143.992 107.28 144.2 107.024V104.034ZM145.805 99.341V109H144.824C144.611 109 144.477 108.902 144.421 108.707L144.284 108.064C144.016 108.372 143.706 108.621 143.355 108.811C143.008 109.002 142.603 109.098 142.139 109.098C141.775 109.098 141.442 109.022 141.138 108.87C140.835 108.718 140.573 108.499 140.352 108.213C140.135 107.923 139.966 107.566 139.845 107.141C139.728 106.716 139.669 106.231 139.669 105.685C139.669 105.191 139.736 104.732 139.871 104.307C140.005 103.882 140.198 103.514 140.449 103.202C140.701 102.89 141.002 102.647 141.353 102.474C141.704 102.296 142.098 102.207 142.536 102.207C142.908 102.207 143.227 102.266 143.491 102.383C143.756 102.5 143.992 102.658 144.2 102.857V99.341H145.805Z" fill="#1D2B4F"/>
<path d="M176.433 101.037H173.599V109H171.851V101.037H169.017V99.601H176.433V101.037ZM178.901 103.046C179.161 102.803 179.447 102.606 179.759 102.454C180.071 102.303 180.437 102.227 180.857 102.227C181.221 102.227 181.544 102.29 181.826 102.415C182.108 102.537 182.342 102.71 182.528 102.935C182.719 103.156 182.862 103.423 182.957 103.735C183.057 104.043 183.106 104.383 183.106 104.755V109H181.501V104.755C181.501 104.348 181.408 104.034 181.221 103.813C181.035 103.588 180.751 103.475 180.37 103.475C180.093 103.475 179.833 103.538 179.59 103.663C179.347 103.789 179.118 103.96 178.901 104.177V109H177.295V99.341H178.901V103.046ZM190.379 102.331V109H189.398C189.185 109 189.051 108.902 188.995 108.707L188.884 108.174C188.611 108.452 188.31 108.677 187.981 108.85C187.651 109.019 187.264 109.104 186.817 109.104C186.453 109.104 186.13 109.043 185.849 108.922C185.571 108.796 185.337 108.621 185.147 108.395C184.956 108.17 184.811 107.904 184.711 107.596C184.616 107.284 184.568 106.942 184.568 106.569V102.331H186.174V106.569C186.174 106.976 186.267 107.293 186.453 107.518C186.644 107.739 186.928 107.849 187.305 107.849C187.582 107.849 187.842 107.789 188.085 107.667C188.327 107.542 188.557 107.371 188.774 107.154V102.331H190.379Z" fill="#1D2B4F"/>
<path d="M222.305 100.992V103.774H225.828V105.171H222.305V109H220.55V99.601H226.478V100.992H222.305ZM228.654 103.488C228.862 103.089 229.109 102.777 229.395 102.552C229.681 102.322 230.019 102.207 230.409 102.207C230.716 102.207 230.963 102.275 231.15 102.409L231.046 103.611C231.024 103.689 230.992 103.746 230.948 103.78C230.909 103.811 230.855 103.826 230.786 103.826C230.721 103.826 230.623 103.815 230.493 103.793C230.368 103.772 230.244 103.761 230.123 103.761C229.945 103.761 229.787 103.787 229.648 103.839C229.51 103.891 229.384 103.967 229.271 104.066C229.163 104.162 229.065 104.279 228.979 104.417C228.896 104.556 228.818 104.714 228.745 104.892V109H227.139V102.331H228.082C228.246 102.331 228.361 102.361 228.426 102.422C228.491 102.478 228.535 102.582 228.556 102.734L228.654 103.488ZM233.653 102.331V109H232.041V102.331H233.653ZM233.874 100.387C233.874 100.526 233.846 100.656 233.789 100.777C233.733 100.899 233.657 101.005 233.562 101.096C233.471 101.187 233.362 101.261 233.237 101.317C233.111 101.369 232.977 101.395 232.834 101.395C232.695 101.395 232.563 101.369 232.437 101.317C232.316 101.261 232.21 101.187 232.119 101.096C232.028 101.005 231.954 100.899 231.898 100.777C231.846 100.656 231.82 100.526 231.82 100.387C231.82 100.244 231.846 100.11 231.898 99.9845C231.954 99.8588 232.028 99.7505 232.119 99.6595C232.21 99.5685 232.316 99.497 232.437 99.445C232.563 99.3887 232.695 99.3605 232.834 99.3605C232.977 99.3605 233.111 99.3887 233.237 99.445C233.362 99.497 233.471 99.5685 233.562 99.6595C233.657 99.7505 233.733 99.8588 233.789 99.9845C233.846 100.11 233.874 100.244 233.874 100.387Z" fill="#1D2B4F"/>
<path d="M270.854 101.31C270.802 101.401 270.745 101.469 270.685 101.512C270.628 101.551 270.557 101.57 270.47 101.57C270.379 101.57 270.28 101.538 270.171 101.473C270.067 101.404 269.942 101.328 269.794 101.245C269.647 101.163 269.474 101.089 269.274 101.024C269.079 100.955 268.847 100.92 268.579 100.92C268.336 100.92 268.124 100.951 267.942 101.011C267.76 101.068 267.606 101.148 267.48 101.252C267.359 101.356 267.268 101.482 267.207 101.629C267.147 101.772 267.116 101.93 267.116 102.103C267.116 102.324 267.177 102.509 267.298 102.656C267.424 102.803 267.589 102.929 267.792 103.033C267.996 103.137 268.228 103.23 268.488 103.312C268.748 103.395 269.014 103.484 269.287 103.579C269.56 103.67 269.827 103.778 270.087 103.904C270.347 104.025 270.579 104.181 270.782 104.372C270.986 104.558 271.148 104.788 271.27 105.061C271.395 105.334 271.458 105.665 271.458 106.055C271.458 106.48 271.385 106.879 271.237 107.251C271.094 107.62 270.882 107.943 270.6 108.22C270.323 108.493 269.983 108.71 269.58 108.87C269.177 109.026 268.715 109.104 268.195 109.104C267.896 109.104 267.602 109.074 267.311 109.013C267.021 108.957 266.741 108.874 266.473 108.766C266.208 108.658 265.959 108.528 265.725 108.376C265.491 108.224 265.283 108.055 265.101 107.869L265.615 107.03C265.658 106.97 265.714 106.92 265.784 106.881C265.853 106.838 265.927 106.816 266.005 106.816C266.113 106.816 266.23 106.861 266.356 106.952C266.481 107.039 266.631 107.137 266.804 107.245C266.978 107.353 267.179 107.453 267.409 107.544C267.643 107.631 267.922 107.674 268.247 107.674C268.746 107.674 269.131 107.557 269.404 107.323C269.677 107.085 269.814 106.744 269.814 106.302C269.814 106.055 269.751 105.854 269.625 105.698C269.504 105.542 269.341 105.412 269.138 105.308C268.934 105.2 268.702 105.109 268.442 105.035C268.182 104.961 267.918 104.881 267.649 104.794C267.381 104.708 267.116 104.604 266.856 104.482C266.596 104.361 266.364 104.203 266.161 104.008C265.957 103.813 265.792 103.57 265.667 103.28C265.545 102.985 265.485 102.623 265.485 102.194C265.485 101.852 265.552 101.518 265.686 101.193C265.825 100.868 266.024 100.58 266.284 100.329C266.544 100.078 266.865 99.8762 267.246 99.7245C267.628 99.5728 268.065 99.497 268.559 99.497C269.114 99.497 269.625 99.5837 270.093 99.757C270.561 99.9303 270.96 100.173 271.289 100.485L270.854 101.31ZM276.164 106.153C275.7 106.175 275.31 106.216 274.994 106.276C274.678 106.333 274.424 106.406 274.234 106.497C274.043 106.588 273.906 106.695 273.824 106.816C273.742 106.937 273.701 107.069 273.701 107.212C273.701 107.494 273.783 107.696 273.948 107.817C274.117 107.938 274.335 107.999 274.604 107.999C274.933 107.999 275.217 107.94 275.456 107.823C275.698 107.702 275.934 107.52 276.164 107.277V106.153ZM272.485 103.26C273.252 102.558 274.175 102.207 275.254 102.207C275.644 102.207 275.993 102.272 276.301 102.402C276.608 102.528 276.868 102.706 277.081 102.935C277.293 103.161 277.453 103.432 277.562 103.748C277.674 104.064 277.731 104.411 277.731 104.788V109H277.003C276.851 109 276.734 108.978 276.652 108.935C276.569 108.887 276.504 108.794 276.457 108.655L276.314 108.174C276.145 108.326 275.98 108.46 275.82 108.577C275.659 108.69 275.492 108.785 275.319 108.863C275.146 108.941 274.959 109 274.76 109.039C274.565 109.082 274.348 109.104 274.11 109.104C273.828 109.104 273.568 109.067 273.33 108.993C273.092 108.915 272.886 108.801 272.713 108.649C272.539 108.497 272.405 108.309 272.31 108.083C272.214 107.858 272.167 107.596 272.167 107.297C272.167 107.128 272.195 106.961 272.251 106.796C272.307 106.627 272.398 106.467 272.524 106.315C272.654 106.164 272.821 106.021 273.025 105.886C273.228 105.752 273.477 105.635 273.772 105.535C274.071 105.436 274.418 105.356 274.812 105.295C275.206 105.23 275.657 105.191 276.164 105.178V104.788C276.164 104.342 276.069 104.012 275.878 103.8C275.687 103.583 275.412 103.475 275.053 103.475C274.793 103.475 274.576 103.505 274.403 103.566C274.234 103.627 274.084 103.696 273.954 103.774C273.824 103.848 273.705 103.915 273.597 103.975C273.493 104.036 273.376 104.066 273.246 104.066C273.133 104.066 273.038 104.038 272.96 103.982C272.882 103.921 272.819 103.852 272.771 103.774L272.485 103.26ZM281.377 109.104C280.796 109.104 280.35 108.941 280.038 108.616C279.73 108.287 279.576 107.834 279.576 107.258V103.533H278.894C278.807 103.533 278.734 103.505 278.673 103.449C278.612 103.393 278.582 103.308 278.582 103.195V102.558L279.654 102.383L279.992 100.563C280.014 100.476 280.055 100.409 280.116 100.361C280.177 100.314 280.255 100.29 280.35 100.29H281.182V102.389H282.963V103.533H281.182V107.147C281.182 107.355 281.232 107.518 281.331 107.635C281.435 107.752 281.576 107.81 281.754 107.81C281.854 107.81 281.936 107.8 282.001 107.778C282.07 107.752 282.129 107.726 282.176 107.7C282.228 107.674 282.274 107.65 282.313 107.628C282.352 107.602 282.391 107.589 282.43 107.589C282.478 107.589 282.517 107.602 282.547 107.628C282.577 107.65 282.61 107.685 282.644 107.732L283.125 108.512C282.891 108.707 282.623 108.855 282.319 108.954C282.016 109.054 281.702 109.104 281.377 109.104Z" fill="#1D2B4F"/>
<path d="M316.203 101.31C316.151 101.401 316.095 101.469 316.034 101.512C315.978 101.551 315.907 101.57 315.82 101.57C315.729 101.57 315.629 101.538 315.521 101.473C315.417 101.404 315.291 101.328 315.144 101.245C314.997 101.163 314.823 101.089 314.624 101.024C314.429 100.955 314.197 100.92 313.928 100.92C313.686 100.92 313.473 100.951 313.291 101.011C313.109 101.068 312.956 101.148 312.83 101.252C312.709 101.356 312.618 101.482 312.557 101.629C312.496 101.772 312.466 101.93 312.466 102.103C312.466 102.324 312.527 102.509 312.648 102.656C312.774 102.803 312.938 102.929 313.142 103.033C313.346 103.137 313.577 103.23 313.837 103.312C314.097 103.395 314.364 103.484 314.637 103.579C314.91 103.67 315.176 103.778 315.436 103.904C315.696 104.025 315.928 104.181 316.132 104.372C316.336 104.558 316.498 104.788 316.619 105.061C316.745 105.334 316.808 105.665 316.808 106.055C316.808 106.48 316.734 106.879 316.587 107.251C316.444 107.62 316.232 107.943 315.95 108.22C315.673 108.493 315.332 108.71 314.929 108.87C314.526 109.026 314.065 109.104 313.545 109.104C313.246 109.104 312.951 109.074 312.661 109.013C312.371 108.957 312.091 108.874 311.822 108.766C311.558 108.658 311.309 108.528 311.075 108.376C310.841 108.224 310.633 108.055 310.451 107.869L310.964 107.03C311.008 106.97 311.064 106.92 311.133 106.881C311.203 106.838 311.276 106.816 311.354 106.816C311.463 106.816 311.58 106.861 311.705 106.952C311.831 107.039 311.981 107.137 312.154 107.245C312.327 107.353 312.529 107.453 312.758 107.544C312.992 107.631 313.272 107.674 313.597 107.674C314.095 107.674 314.481 107.557 314.754 107.323C315.027 107.085 315.163 106.744 315.163 106.302C315.163 106.055 315.101 105.854 314.975 105.698C314.854 105.542 314.691 105.412 314.487 105.308C314.284 105.2 314.052 105.109 313.792 105.035C313.532 104.961 313.268 104.881 312.999 104.794C312.73 104.708 312.466 104.604 312.206 104.482C311.946 104.361 311.714 104.203 311.51 104.008C311.307 103.813 311.142 103.57 311.016 103.28C310.895 102.985 310.834 102.623 310.834 102.194C310.834 101.852 310.902 101.518 311.036 101.193C311.175 100.868 311.374 100.58 311.634 100.329C311.894 100.078 312.215 99.8762 312.596 99.7245C312.977 99.5728 313.415 99.497 313.909 99.497C314.464 99.497 314.975 99.5837 315.443 99.757C315.911 99.9303 316.31 100.173 316.639 100.485L316.203 101.31ZM323.711 102.331V109H322.73C322.518 109 322.383 108.902 322.327 108.707L322.216 108.174C321.943 108.452 321.642 108.677 321.313 108.85C320.984 109.019 320.596 109.104 320.149 109.104C319.785 109.104 319.463 109.043 319.181 108.922C318.904 108.796 318.67 108.621 318.479 108.395C318.288 108.17 318.143 107.904 318.043 107.596C317.948 107.284 317.9 106.942 317.9 106.569V102.331H319.506V106.569C319.506 106.976 319.599 107.293 319.785 107.518C319.976 107.739 320.26 107.849 320.637 107.849C320.914 107.849 321.174 107.789 321.417 107.667C321.66 107.542 321.889 107.371 322.106 107.154V102.331H323.711ZM326.805 103.15C326.939 103.016 327.08 102.892 327.227 102.779C327.379 102.662 327.537 102.565 327.702 102.487C327.871 102.405 328.051 102.342 328.241 102.298C328.432 102.251 328.64 102.227 328.865 102.227C329.229 102.227 329.552 102.29 329.834 102.415C330.115 102.537 330.349 102.71 330.536 102.935C330.726 103.156 330.869 103.423 330.965 103.735C331.064 104.043 331.114 104.383 331.114 104.755V109H329.509V104.755C329.509 104.348 329.416 104.034 329.229 103.813C329.043 103.588 328.759 103.475 328.378 103.475C328.1 103.475 327.84 103.538 327.598 103.663C327.355 103.789 327.125 103.96 326.909 104.177V109H325.303V102.331H326.285C326.493 102.331 326.629 102.428 326.694 102.623L326.805 103.15Z" fill="#1D2B4F"/>
<path opacity="0.4" d="M31.987 145H37.9515V143.984H33.5566V143.911L35.6802 141.639C37.3052 139.899 37.7853 139.086 37.7853 138.038C37.7853 136.58 36.6035 135.416 34.9415 135.416C33.2842 135.416 32.0239 136.543 32.0239 138.205H33.1134C33.1134 137.129 33.8105 136.413 34.9046 136.413C35.9295 136.413 36.7143 137.041 36.7143 138.038C36.7143 138.911 36.2018 139.557 35.1077 140.753L31.987 144.169V145ZM42.868 135.416C40.9476 135.393 39.7104 136.838 39.7104 138.574C39.7104 140.402 41.0584 141.713 42.6834 141.713C43.6621 141.713 44.493 141.233 45.0101 140.457H45.0839C45.0839 142.784 44.1791 144.114 42.7203 144.114C41.7231 144.114 41.1138 143.486 40.9106 142.618H39.7842C40.0058 144.114 41.1322 145.129 42.7203 145.129C44.8439 145.129 46.155 143.246 46.155 139.885C46.155 136.413 44.4192 135.435 42.868 135.416ZM42.868 136.432C44.0498 136.432 44.9177 137.447 44.9177 138.555C44.9177 139.682 43.9945 140.697 42.8311 140.697C41.6677 140.697 40.8183 139.756 40.8183 138.574C40.8183 137.392 41.7047 136.432 42.868 136.432Z" fill="#1D2B4F"/>
<path opacity="0.4" d="M81.9721 145.129C83.8049 145.129 85.1667 143.98 85.1667 142.433C85.1667 141.233 84.4558 140.36 83.2647 140.162V140.088C84.2203 139.797 84.8159 139.012 84.8159 137.946C84.8159 136.607 83.7587 135.416 82.0091 135.416C80.3748 135.416 79.0176 136.423 78.9622 137.909H80.0701C80.1117 136.967 81.0073 136.413 81.9906 136.413C83.0339 136.413 83.7079 137.046 83.7079 138.001C83.7079 138.999 82.9277 139.645 81.8059 139.645H81.0488V140.661H81.8059C83.2417 140.661 84.0403 141.39 84.0403 142.433C84.0403 143.435 83.1678 144.114 81.9537 144.114C80.8596 144.114 79.9917 143.55 79.9224 142.636H78.7591C78.8283 144.123 80.1394 145.129 81.9721 145.129ZM90.1387 145.129C92.2253 145.129 93.4256 143.361 93.4256 140.273C93.4256 137.207 92.2069 135.416 90.1387 135.416C88.0705 135.416 86.8517 137.207 86.8517 140.273C86.8517 143.361 88.052 145.129 90.1387 145.129ZM90.1387 144.114C88.763 144.114 87.9597 142.733 87.9597 140.273C87.9597 137.817 88.7722 136.413 90.1387 136.413C91.5051 136.413 92.3176 137.817 92.3176 140.273C92.3176 142.733 91.5144 144.114 90.1387 144.114Z" fill="#1D2B4F"/>
<path opacity="0.4" d="M130.013 145.129C131.846 145.129 133.208 143.98 133.208 142.433C133.208 141.233 132.497 140.36 131.306 140.162V140.088C132.261 139.797 132.857 139.012 132.857 137.946C132.857 136.607 131.8 135.416 130.05 135.416C128.416 135.416 127.059 136.423 127.003 137.909H128.111C128.153 136.967 129.048 136.413 130.032 136.413C131.075 136.413 131.749 137.046 131.749 138.001C131.749 138.999 130.969 139.645 129.847 139.645H129.09V140.661H129.847C131.283 140.661 132.081 141.39 132.081 142.433C132.081 143.435 131.209 144.114 129.995 144.114C128.901 144.114 128.033 143.55 127.963 142.636H126.8C126.869 144.123 128.18 145.129 130.013 145.129ZM138.42 135.545H137.275L134.911 137.115V138.278L137.219 136.746H137.275V145H138.42V135.545Z" fill="#1D2B4F"/>
<path d="M181.281 135.545H180.136L177.773 137.115V138.278L180.081 136.746H180.136V145H181.281V135.545Z" fill="#1D2B4F"/>
<path d="M224.043 145H230.008V143.984H225.613V143.911L227.736 141.639C229.361 139.899 229.841 139.086 229.841 138.038C229.841 136.58 228.66 135.416 226.998 135.416C225.34 135.416 224.08 136.543 224.08 138.205H225.17C225.17 137.129 225.867 136.413 226.961 136.413C227.986 136.413 228.77 137.041 228.77 138.038C228.77 138.911 228.258 139.557 227.164 140.753L224.043 144.169V145Z" fill="#1D2B4F"/>
<path d="M274.035 145.129C275.867 145.129 277.229 143.98 277.229 142.433C277.229 141.233 276.518 140.36 275.327 140.162V140.088C276.283 139.797 276.878 139.012 276.878 137.946C276.878 136.607 275.821 135.416 274.072 135.416C272.437 135.416 271.08 136.423 271.025 137.909H272.133C272.174 136.967 273.07 136.413 274.053 136.413C275.096 136.413 275.77 137.046 275.77 138.001C275.77 138.999 274.99 139.645 273.868 139.645H273.111V140.661H273.868C275.304 140.661 276.103 141.39 276.103 142.433C276.103 143.435 275.23 144.114 274.016 144.114C272.922 144.114 272.054 143.55 271.985 142.636H270.822C270.891 144.123 272.202 145.129 274.035 145.129Z" fill="#1D2B4F"/>
<path d="M317.587 143.061H322.037V145H323.126V143.061H324.419V142.045H323.126V135.545H321.742L317.587 142.119V143.061ZM322.037 142.045H318.824V141.972L321.963 137.004H322.037V142.045Z" fill="#1D2B4F"/>
<path d="M38.9786 185.129C40.7791 185.129 42.0994 183.8 42.0994 181.99C42.0994 180.157 40.8252 178.814 39.0894 178.814C38.4524 178.814 37.8338 179.04 37.446 179.349H37.3906L37.723 176.561H41.6747V175.545H36.7627L36.1903 180.199L37.2613 180.328C37.6537 180.047 38.3231 179.843 38.9048 179.848C40.1097 179.857 40.9914 180.771 40.9914 182.009C40.9914 183.223 40.142 184.114 38.9786 184.114C38.0092 184.114 37.2382 183.49 37.1505 182.636H36.0426C36.1118 184.077 37.3536 185.129 38.9786 185.129Z" fill="#1D2B4F"/>
<path d="M86.0617 185.129C87.973 185.152 89.2194 183.712 89.2194 181.953C89.2194 180.125 87.8668 178.814 86.2464 178.814C85.2723 178.814 84.4367 179.289 83.9197 180.07H83.8458C83.8505 177.766 84.746 176.432 86.2095 176.432C87.2066 176.432 87.8068 177.06 88.0191 177.909H89.1456C88.9147 176.441 87.7975 175.416 86.2095 175.416C84.0813 175.416 82.7748 177.3 82.7748 180.642C82.7748 184.137 84.5106 185.111 86.0617 185.129ZM86.0617 184.114C84.8753 184.114 84.0074 183.103 84.012 181.972C84.0166 180.841 84.9261 179.83 86.0987 179.83C87.2574 179.83 88.1115 180.781 88.1115 181.953C88.1115 183.153 87.2205 184.114 86.0617 184.114Z" fill="#1D2B4F"/>
<path d="M130.561 185H131.761L135.971 176.616V175.545H129.914V176.561H134.789V176.635L130.561 185Z" fill="#1D2B4F"/>
<path d="M167.892 180.247C167.892 173.483 173.375 168 180.139 168C186.903 168 192.386 173.483 192.386 180.247C192.386 187.011 186.903 192.494 180.139 192.494C173.375 192.494 167.892 187.011 167.892 180.247Z" fill="#40A3F8"/>
<path d="M180.002 185.129C181.89 185.129 183.206 184.026 183.215 182.489C183.206 181.293 182.407 180.277 181.387 180.088V180.033C182.273 179.802 182.855 178.934 182.864 177.928C182.855 176.487 181.645 175.416 180.002 175.416C178.34 175.416 177.13 176.487 177.14 177.928C177.13 178.934 177.712 179.802 178.617 180.033V180.088C177.578 180.277 176.779 181.293 176.789 182.489C176.779 184.026 178.095 185.129 180.002 185.129ZM180.002 184.114C178.705 184.114 177.906 183.449 177.915 182.433C177.906 181.367 178.788 180.605 180.002 180.605C181.197 180.605 182.079 181.367 182.088 182.433C182.079 183.449 181.28 184.114 180.002 184.114ZM180.002 179.626C178.968 179.626 178.238 178.98 178.247 178.001C178.238 177.041 178.94 176.413 180.002 176.413C181.045 176.413 181.747 177.041 181.756 178.001C181.747 178.98 181.017 179.626 180.002 179.626Z" fill="white"/>
<path d="M226.932 175.416C225.012 175.393 223.775 176.838 223.775 178.574C223.775 180.402 225.123 181.713 226.748 181.713C227.727 181.713 228.557 181.233 229.075 180.457H229.148C229.148 182.784 228.244 184.114 226.785 184.114C225.788 184.114 225.178 183.486 224.975 182.618H223.849C224.07 184.114 225.197 185.129 226.785 185.129C228.908 185.129 230.219 183.246 230.219 179.885C230.219 176.413 228.484 175.435 226.932 175.416ZM226.932 176.432C228.114 176.432 228.982 177.447 228.982 178.555C228.982 179.682 228.059 180.697 226.896 180.697C225.732 180.697 224.883 179.756 224.883 178.574C224.883 177.392 225.769 176.432 226.932 176.432Z" fill="#1D2B4F"/>
<path d="M271.219 175.545H270.074L267.71 177.115V178.278L270.018 176.746H270.074V185H271.219V175.545ZM277.021 185.129C279.108 185.129 280.308 183.361 280.308 180.273C280.308 177.207 279.09 175.416 277.021 175.416C274.953 175.416 273.735 177.207 273.735 180.273C273.735 183.361 274.935 185.129 277.021 185.129ZM277.021 184.114C275.646 184.114 274.843 182.733 274.843 180.273C274.843 177.817 275.655 176.413 277.021 176.413C278.388 176.413 279.2 177.817 279.2 180.273C279.2 182.733 278.397 184.114 277.021 184.114Z" fill="#1D2B4F"/>
<circle cx="271" cy="190" r="2" fill="#00CFDE"/>
<circle cx="276" cy="190" r="2" fill="#00CFDE"/>
<path d="M319.26 175.545H318.115L315.751 177.115V178.278L318.059 176.746H318.115V185H319.26V175.545ZM325.303 175.545H324.158L321.794 177.115V178.278L324.102 176.746H324.158V185H325.303V175.545Z" fill="#1D2B4F"/>
<path d="M36.3455 216.04H35.2006L32.837 217.609V218.773L35.1452 217.24H35.2006V225.494H36.3455V216.04ZM39.0646 225.494H45.0291V224.479H40.6342V224.405L42.7578 222.134C44.3828 220.393 44.8629 219.581 44.8629 218.533C44.8629 217.074 43.6811 215.911 42.0192 215.911C40.3619 215.911 39.1016 217.037 39.1016 218.699H40.1911C40.1911 217.623 40.8881 216.908 41.9822 216.908C43.0071 216.908 43.7919 217.536 43.7919 218.533C43.7919 219.405 43.2795 220.052 42.1854 221.247L39.0646 224.663V225.494Z" fill="#1D2B4F"/>
<path d="M83.1424 216.04H81.9975L79.6339 217.609V218.773L81.9421 217.24H81.9975V225.494H83.1424V216.04ZM89.0561 225.624C90.8888 225.624 92.2507 224.474 92.2507 222.928C92.2507 221.727 91.5398 220.855 90.3487 220.656V220.582C91.3043 220.292 91.8999 219.507 91.8999 218.44C91.8999 217.102 90.8427 215.911 89.093 215.911C87.4588 215.911 86.1016 216.917 86.0462 218.403H87.1541C87.1957 217.462 88.0913 216.908 89.0746 216.908C90.1179 216.908 90.7919 217.54 90.7919 218.496C90.7919 219.493 90.0117 220.139 88.8899 220.139H88.1328V221.155H88.8899C90.3256 221.155 91.1243 221.884 91.1243 222.928C91.1243 223.929 90.2518 224.608 89.0376 224.608C87.9435 224.608 87.0756 224.045 87.0064 223.131H85.843C85.9123 224.617 87.2234 225.624 89.0561 225.624Z" fill="#1D2B4F"/>
<path d="M130.111 216.04H128.966L126.602 217.609V218.773L128.91 217.24H128.966V225.494H130.111V216.04ZM132.608 223.555H137.058V225.494H138.148V223.555H139.441V222.54H138.148V216.04H136.763L132.608 222.614V223.555ZM137.058 222.54H133.845V222.466L136.985 217.499H137.058V222.54Z" fill="#1D2B4F"/>
<path d="M177.326 216.04H176.182L173.818 217.609V218.773L176.126 217.24H176.182V225.494H177.326V216.04ZM183 225.624C184.801 225.624 186.121 224.294 186.121 222.484C186.121 220.652 184.847 219.308 183.111 219.308C182.474 219.308 181.855 219.535 181.467 219.844H181.412L181.744 217.055H185.696V216.04H180.784L180.212 220.693L181.283 220.823C181.675 220.541 182.345 220.338 182.926 220.342C184.131 220.352 185.013 221.266 185.013 222.503C185.013 223.717 184.163 224.608 183 224.608C182.031 224.608 181.26 223.985 181.172 223.131H180.064C180.133 224.571 181.375 225.624 183 225.624Z" fill="#1D2B4F"/>
<circle cx="177" cy="230" r="2" fill="#00CFDE"/>
<circle cx="182" cy="230" r="2" fill="#00CFDE"/>
<path d="M224.225 216.04H223.08L220.716 217.609V218.773L223.025 217.24H223.08V225.494H224.225V216.04ZM230.083 225.624C231.994 225.647 233.241 224.206 233.241 222.448C233.241 220.619 231.888 219.308 230.268 219.308C229.294 219.308 228.458 219.784 227.941 220.564H227.867C227.872 218.26 228.768 216.926 230.231 216.926C231.228 216.926 231.828 217.554 232.041 218.403H233.167C232.936 216.935 231.819 215.911 230.231 215.911C228.103 215.911 226.796 217.794 226.796 221.136C226.796 224.631 228.532 225.605 230.083 225.624ZM230.083 224.608C228.897 224.608 228.029 223.597 228.034 222.466C228.038 221.335 228.948 220.324 230.12 220.324C231.279 220.324 232.133 221.275 232.133 222.448C232.133 223.648 231.242 224.608 230.083 224.608Z" fill="#1D2B4F"/>
<path d="M271.568 216.04H270.423L268.059 217.609V218.773L270.367 217.24H270.423V225.494H271.568V216.04ZM274.582 225.494H275.783L279.993 217.111V216.04H273.936V217.055H278.811V217.129L274.582 225.494Z" fill="#1D2B4F"/>
<path d="M318.276 216.04H317.131L314.767 217.609V218.773L317.075 217.24H317.131V225.494H318.276V216.04ZM324.023 225.624C325.911 225.624 327.227 224.52 327.236 222.983C327.227 221.787 326.428 220.772 325.408 220.582V220.527C326.295 220.296 326.876 219.428 326.885 218.422C326.876 216.982 325.667 215.911 324.023 215.911C322.361 215.911 321.152 216.982 321.161 218.422C321.152 219.428 321.733 220.296 322.638 220.527V220.582C321.6 220.772 320.801 221.787 320.81 222.983C320.801 224.52 322.117 225.624 324.023 225.624ZM324.023 224.608C322.726 224.608 321.927 223.943 321.937 222.928C321.927 221.861 322.809 221.099 324.023 221.099C325.219 221.099 326.101 221.861 326.11 222.928C326.101 223.943 325.302 224.608 324.023 224.608ZM324.023 220.121C322.989 220.121 322.26 219.474 322.269 218.496C322.26 217.536 322.961 216.908 324.023 216.908C325.067 216.908 325.768 217.536 325.777 218.496C325.768 219.474 325.039 220.121 324.023 220.121Z" fill="#1D2B4F"/>
<path d="M36.2249 256.04H35.08L32.7164 257.609V258.773L35.0246 257.24H35.08V265.494H36.2249V256.04ZM41.954 255.911C40.0335 255.887 38.7963 257.332 38.7963 259.068C38.7963 260.896 40.1443 262.207 41.7693 262.207C42.748 262.207 43.579 261.727 44.096 260.952H44.1699C44.1699 263.278 43.265 264.608 41.8062 264.608C40.8091 264.608 40.1997 263.98 39.9966 263.112H38.8702C39.0918 264.608 40.2182 265.624 41.8062 265.624C43.9298 265.624 45.2409 263.74 45.2409 260.379C45.2409 256.908 43.5051 255.929 41.954 255.911ZM41.954 256.926C43.1358 256.926 44.0037 257.942 44.0037 259.05C44.0037 260.176 43.0804 261.192 41.917 261.192C40.7537 261.192 39.9043 260.25 39.9043 259.068C39.9043 257.886 40.7906 256.926 41.954 256.926Z" fill="#1D2B4F"/>
<path d="M78.9806 265.494H84.9451V264.479H80.5502V264.405L82.6738 262.134C84.2988 260.393 84.7789 259.581 84.7789 258.533C84.7789 257.074 83.5971 255.911 81.9352 255.911C80.2779 255.911 79.0176 257.037 79.0176 258.699H80.1071C80.1071 257.623 80.8042 256.908 81.8983 256.908C82.9231 256.908 83.7079 257.536 83.7079 258.533C83.7079 259.405 83.1955 260.052 82.1014 261.247L78.9806 264.663V265.494ZM89.9355 265.624C92.0222 265.624 93.2225 263.856 93.2225 260.767C93.2225 257.702 92.0037 255.911 89.9355 255.911C87.8674 255.911 86.6486 257.702 86.6486 260.767C86.6486 263.856 87.8489 265.624 89.9355 265.624ZM89.9355 264.608C88.5598 264.608 87.7566 263.228 87.7566 260.767C87.7566 258.311 88.5691 256.908 89.9355 256.908C91.302 256.908 92.1145 258.311 92.1145 260.767C92.1145 263.228 91.3113 264.608 89.9355 264.608Z" fill="#1D2B4F"/>
<path d="M127.022 265.494H132.986V264.479H128.591V264.405L130.715 262.134C132.34 260.393 132.82 259.581 132.82 258.533C132.82 257.074 131.638 255.911 129.976 255.911C128.319 255.911 127.059 257.037 127.059 258.699H128.148C128.148 257.623 128.845 256.908 129.939 256.908C130.964 256.908 131.749 257.536 131.749 258.533C131.749 259.405 131.237 260.052 130.142 261.247L127.022 264.663V265.494ZM138.217 256.04H137.072L134.708 257.609V258.773L137.016 257.24H137.072V265.494H138.217V256.04Z" fill="#1D2B4F"/>
<path d="M173.108 265.494H179.072V264.479H174.677V264.405L176.801 262.134C178.426 260.393 178.906 259.581 178.906 258.533C178.906 257.074 177.724 255.911 176.062 255.911C174.405 255.911 173.145 257.037 173.145 258.699H174.234C174.234 257.623 174.931 256.908 176.025 256.908C177.05 256.908 177.835 257.536 177.835 258.533C177.835 259.405 177.322 260.052 176.228 261.247L173.108 264.663V265.494ZM180.979 265.494H186.943V264.479H182.548V264.405L184.672 262.134C186.297 260.393 186.777 259.581 186.777 258.533C186.777 257.074 185.595 255.911 183.933 255.911C182.276 255.911 181.016 257.037 181.016 258.699H182.105C182.105 257.623 182.802 256.908 183.896 256.908C184.921 256.908 185.706 257.536 185.706 258.533C185.706 259.405 185.194 260.052 184.099 261.247L180.979 264.663V265.494Z" fill="#1D2B4F"/>
<path d="M219.904 265.494H225.869V264.479H221.474V264.405L223.598 262.134C225.223 260.393 225.703 259.581 225.703 258.533C225.703 257.074 224.521 255.911 222.859 255.911C221.202 255.911 219.941 257.037 219.941 258.699H221.031C221.031 257.623 221.728 256.908 222.822 256.908C223.847 256.908 224.632 257.536 224.632 258.533C224.632 259.405 224.119 260.052 223.025 261.247L219.904 264.663V265.494ZM230.97 265.624C232.803 265.624 234.165 264.474 234.165 262.928C234.165 261.727 233.454 260.855 232.263 260.656V260.582C233.218 260.292 233.814 259.507 233.814 258.44C233.814 257.102 232.757 255.911 231.007 255.911C229.373 255.911 228.016 256.917 227.96 258.403H229.068C229.11 257.462 230.005 256.908 230.989 256.908C232.032 256.908 232.706 257.54 232.706 258.496C232.706 259.493 231.926 260.139 230.804 260.139H230.047V261.155H230.804C232.24 261.155 233.038 261.884 233.038 262.928C233.038 263.929 232.166 264.608 230.952 264.608C229.858 264.608 228.99 264.045 228.92 263.131H227.757C227.826 264.617 229.137 265.624 230.97 265.624Z" fill="#1D2B4F"/>
<path d="M266.974 265.494H272.939V264.479H268.544V264.405L270.667 262.134C272.292 260.393 272.773 259.581 272.773 258.533C272.773 257.074 271.591 255.911 269.929 255.911C268.272 255.911 267.011 257.037 267.011 258.699H268.101C268.101 257.623 268.798 256.908 269.892 256.908C270.917 256.908 271.702 257.536 271.702 258.533C271.702 259.405 271.189 260.052 270.095 261.247L266.974 264.663V265.494ZM274.421 263.555H278.871V265.494H279.96V263.555H281.253V262.54H279.96V256.04H278.576L274.421 262.614V263.555ZM278.871 262.54H275.658V262.466L278.797 257.499H278.871V262.54Z" fill="#1D2B4F"/>
<path d="M314.089 265.494H320.053V264.479H315.658V264.405L317.782 262.134C319.407 260.393 319.887 259.581 319.887 258.533C319.887 257.074 318.705 255.911 317.043 255.911C315.386 255.911 314.125 257.037 314.125 258.699H315.215C315.215 257.623 315.912 256.908 317.006 256.908C318.031 256.908 318.816 257.536 318.816 258.533C318.816 259.405 318.303 260.052 317.209 261.247L314.089 264.663V265.494ZM324.914 265.624C326.715 265.624 328.035 264.294 328.035 262.484C328.035 260.652 326.761 259.308 325.025 259.308C324.388 259.308 323.769 259.535 323.382 259.844H323.326L323.659 257.055H327.61V256.04H322.698L322.126 260.693L323.197 260.823C323.589 260.541 324.259 260.338 324.84 260.342C326.045 260.352 326.927 261.266 326.927 262.503C326.927 263.717 326.078 264.608 324.914 264.608C323.945 264.608 323.174 263.985 323.086 263.131H321.978C322.047 264.571 323.289 265.624 324.914 265.624Z" fill="#1D2B4F"/>
<path d="M31.987 305.494H37.9515V304.479H33.5566V304.405L35.6802 302.134C37.3052 300.393 37.7853 299.581 37.7853 298.533C37.7853 297.074 36.6035 295.911 34.9415 295.911C33.2842 295.911 32.0239 297.037 32.0239 298.699H33.1134C33.1134 297.623 33.8105 296.908 34.9046 296.908C35.9295 296.908 36.7143 297.536 36.7143 298.533C36.7143 299.405 36.2018 300.052 35.1077 301.247L31.987 304.663V305.494ZM42.9973 305.624C44.9085 305.647 46.155 304.206 46.155 302.448C46.155 300.619 44.8023 299.308 43.182 299.308C42.2079 299.308 41.3723 299.784 40.8552 300.564H40.7814C40.786 298.26 41.6816 296.926 43.145 296.926C44.1422 296.926 44.7423 297.554 44.9547 298.403H46.0811C45.8503 296.935 44.7331 295.911 43.145 295.911C41.0168 295.911 39.7104 297.794 39.7104 301.136C39.7104 304.631 41.4462 305.605 42.9973 305.624ZM42.9973 304.608C41.8109 304.608 40.943 303.597 40.9476 302.466C40.9522 301.335 41.8616 300.324 43.0342 300.324C44.193 300.324 45.047 301.275 45.047 302.448C45.047 303.648 44.156 304.608 42.9973 304.608Z" fill="#1D2B4F"/>
<path d="M79.3298 305.494H85.2943V304.479H80.8994V304.405L83.0229 302.134C84.6479 300.393 85.1281 299.581 85.1281 298.533C85.1281 297.074 83.9462 295.911 82.2843 295.911C80.627 295.911 79.3667 297.037 79.3667 298.699H80.4562C80.4562 297.623 81.1533 296.908 82.2474 296.908C83.2722 296.908 84.057 297.536 84.057 298.533C84.057 299.405 83.5446 300.052 82.4505 301.247L79.3298 304.663V305.494ZM87.4963 305.494H88.6966L92.9068 297.111V296.04H86.85V297.055H91.725V297.129L87.4963 305.494Z" fill="#1D2B4F"/>
<path d="M126.038 305.494H132.002V304.479H127.607V304.405L129.731 302.134C131.356 300.393 131.836 299.581 131.836 298.533C131.836 297.074 130.654 295.911 128.992 295.911C127.335 295.911 126.075 297.037 126.075 298.699H127.164C127.164 297.623 127.861 296.908 128.955 296.908C129.98 296.908 130.765 297.536 130.765 298.533C130.765 299.405 130.253 300.052 129.159 301.247L126.038 304.663V305.494ZM136.937 305.624C138.825 305.624 140.141 304.52 140.15 302.983C140.141 301.787 139.342 300.772 138.322 300.582V300.527C139.209 300.296 139.79 299.428 139.799 298.422C139.79 296.982 138.581 295.911 136.937 295.911C135.275 295.911 134.066 296.982 134.075 298.422C134.066 299.428 134.648 300.296 135.552 300.527V300.582C134.514 300.772 133.715 301.787 133.724 302.983C133.715 304.52 135.031 305.624 136.937 305.624ZM136.937 304.608C135.64 304.608 134.841 303.943 134.851 302.928C134.841 301.861 135.723 301.099 136.937 301.099C138.133 301.099 139.015 301.861 139.024 302.928C139.015 303.943 138.216 304.608 136.937 304.608ZM136.937 300.121C135.903 300.121 135.174 299.474 135.183 298.496C135.174 297.536 135.875 296.908 136.937 296.908C137.981 296.908 138.682 297.536 138.692 298.496C138.682 299.474 137.953 300.121 136.937 300.121Z" fill="#1D2B4F"/>
<path opacity="0.4" d="M181.281 296.04H180.136L177.773 297.609V298.773L180.081 297.24H180.136V305.494H181.281V296.04Z" fill="#1D2B4F"/>
<path opacity="0.4" d="M224.043 305.494H230.008V304.479H225.613V304.405L227.736 302.134C229.361 300.393 229.841 299.581 229.841 298.533C229.841 297.074 228.66 295.911 226.998 295.911C225.34 295.911 224.08 297.037 224.08 298.699H225.17C225.17 297.623 225.867 296.908 226.961 296.908C227.986 296.908 228.77 297.536 228.77 298.533C228.77 299.405 228.258 300.052 227.164 301.247L224.043 304.663V305.494Z" fill="#1D2B4F"/>
<path opacity="0.4" d="M274.035 305.624C275.867 305.624 277.229 304.474 277.229 302.928C277.229 301.727 276.518 300.855 275.327 300.656V300.582C276.283 300.292 276.878 299.507 276.878 298.44C276.878 297.102 275.821 295.911 274.072 295.911C272.437 295.911 271.08 296.917 271.025 298.403H272.133C272.174 297.462 273.07 296.908 274.053 296.908C275.096 296.908 275.77 297.54 275.77 298.496C275.77 299.493 274.99 300.139 273.868 300.139H273.111V301.155H273.868C275.304 301.155 276.103 301.884 276.103 302.928C276.103 303.929 275.23 304.608 274.016 304.608C272.922 304.608 272.054 304.045 271.985 303.131H270.822C270.891 304.617 272.202 305.624 274.035 305.624Z" fill="#1D2B4F"/>
<path opacity="0.4" d="M317.587 303.555H322.037V305.494H323.126V303.555H324.419V302.54H323.126V296.04H321.742L317.587 302.614V303.555ZM322.037 302.54H318.824V302.466L321.963 297.499H322.037V302.54Z" fill="#1D2B4F"/>
<path d="M24.8441 349.406H28.0458V358.494H29.2788V349.406H32.4805V348.313H24.8441V349.406ZM36.2191 358.653C38.2873 358.653 39.6793 357.082 39.6793 354.716C39.6793 352.33 38.2873 350.759 36.2191 350.759C34.1509 350.759 32.7589 352.33 32.7589 354.716C32.7589 357.082 34.1509 358.653 36.2191 358.653ZM36.2191 357.599C34.6481 357.599 33.9322 356.247 33.9322 354.716C33.9322 353.185 34.6481 351.813 36.2191 351.813C37.7901 351.813 38.506 353.185 38.506 354.716C38.506 356.247 37.7901 357.599 36.2191 357.599ZM44.3539 358.653C45.8255 358.653 46.3226 357.739 46.5811 357.321H46.7203V358.494H47.8539V348.313H46.6806V352.071H46.5811C46.3226 351.673 45.8652 350.759 44.3738 350.759C42.4448 350.759 41.1124 352.29 41.1124 354.696C41.1124 357.122 42.4448 358.653 44.3539 358.653ZM44.513 357.599C43.0414 357.599 42.2857 356.307 42.2857 354.676C42.2857 353.065 43.0215 351.813 44.513 351.813C45.9448 351.813 46.7005 352.966 46.7005 354.676C46.7005 356.406 45.9249 357.599 44.513 357.599ZM52.4128 358.673C53.7452 358.673 54.4412 357.957 54.6799 357.46H54.7395V358.494H55.9128V353.463C55.9128 351.037 54.0634 350.759 53.089 350.759C51.9355 350.759 50.623 351.156 50.0265 352.548L51.1401 352.946C51.3986 352.389 52.0101 351.793 53.1287 351.793C54.2076 351.793 54.7395 352.364 54.7395 353.344V353.384C54.7395 353.95 54.1628 353.901 52.7708 354.08C51.3539 354.264 49.8077 354.577 49.8077 356.327C49.8077 357.818 50.9611 358.673 52.4128 358.673ZM52.5918 357.619C51.6571 357.619 50.981 357.202 50.981 356.386C50.981 355.492 51.7963 355.213 52.7111 355.094C53.2083 355.034 54.5407 354.895 54.7395 354.656V355.73C54.7395 356.685 53.9838 357.619 52.5918 357.619ZM58.5366 361.358C59.5955 361.358 60.3413 360.796 60.7837 359.608L64.0352 350.878L62.7525 350.858L60.6445 356.943H60.565L58.457 350.858H57.1843L60.0082 358.534L59.7894 359.131C59.3619 360.294 58.8349 360.403 57.9798 360.185L57.6815 361.219C57.8008 361.278 58.1388 361.358 58.5366 361.358ZM67.1138 348.313H66.0002V349.227C66.0002 349.963 65.6422 350.599 65.2246 351.196L65.861 351.713C66.6564 351.077 67.1138 350.023 67.1138 349.207V348.313ZM72.9927 352.568C72.6248 351.484 71.7995 350.759 70.2882 350.759C68.6774 350.759 67.4842 351.673 67.4842 352.966C67.4842 354.02 68.1106 354.726 69.5126 355.054L70.7853 355.352C71.5559 355.531 71.9189 355.899 71.9189 356.426C71.9189 357.082 71.2228 357.619 70.1291 357.619C69.1696 357.619 68.568 357.207 68.3592 356.386L67.2456 356.665C67.519 357.962 68.5879 358.653 70.149 358.653C71.9238 358.653 73.1319 357.684 73.1319 356.367C73.1319 355.303 72.4657 354.631 71.1035 354.298L69.97 354.02C69.0652 353.796 68.6575 353.493 68.6575 352.906C68.6575 352.25 69.3535 351.773 70.2882 351.773C71.3123 351.773 71.7349 352.34 71.9387 352.867L72.9927 352.568ZM81.7191 358.653C83.1907 358.653 83.6879 357.739 83.9464 357.321H84.0856V358.494H85.2191V348.313H84.0458V352.071H83.9464C83.6879 351.673 83.2305 350.759 81.739 350.759C79.81 350.759 78.4776 352.29 78.4776 354.696C78.4776 357.122 79.81 358.653 81.7191 358.653ZM81.8782 357.599C80.4066 357.599 79.6509 356.307 79.6509 354.676C79.6509 353.065 80.3867 351.813 81.8782 351.813C83.31 351.813 84.0657 352.966 84.0657 354.676C84.0657 356.406 83.2901 357.599 81.8782 357.599ZM89.7781 358.673C91.1104 358.673 91.8065 357.957 92.0451 357.46H92.1048V358.494H93.2781V353.463C93.2781 351.037 91.4286 350.759 90.4542 350.759C89.3008 350.759 87.9883 351.156 87.3917 352.548L88.5053 352.946C88.7638 352.389 89.3754 351.793 90.494 351.793C91.5728 351.793 92.1048 352.364 92.1048 353.344V353.384C92.1048 353.95 91.5281 353.901 90.136 354.08C88.7191 354.264 87.1729 354.577 87.1729 356.327C87.1729 357.818 88.3263 358.673 89.7781 358.673ZM89.957 357.619C89.0224 357.619 88.3462 357.202 88.3462 356.386C88.3462 355.492 89.1616 355.213 90.0763 355.094C90.5735 355.034 91.9059 354.895 92.1048 354.656V355.73C92.1048 356.685 91.3491 357.619 89.957 357.619ZM98.7406 350.858H97.1099V349.028H95.9366V350.858H94.7832V351.852H95.9366V356.625C95.9366 357.957 97.0105 358.594 98.0048 358.594C98.4423 358.594 98.7207 358.514 98.8798 358.455L98.6412 357.401C98.5417 357.421 98.3826 357.46 98.1241 357.46C97.6071 357.46 97.1099 357.301 97.1099 356.307V351.852H98.7406V350.858ZM103.625 358.653C105.176 358.653 106.31 357.878 106.668 356.724L105.534 356.406C105.236 357.202 104.545 357.599 103.625 357.599C102.248 357.599 101.298 356.71 101.244 355.074H106.787V354.577C106.787 351.733 105.097 350.759 103.506 350.759C101.438 350.759 100.066 352.389 100.066 354.736C100.066 357.082 101.418 358.653 103.625 358.653ZM101.244 354.06C101.323 352.872 102.164 351.813 103.506 351.813C104.779 351.813 105.594 352.767 105.594 354.06H101.244ZM112.509 358.494H113.683V350.858H112.509V358.494ZM113.106 349.585C113.563 349.585 113.941 349.227 113.941 348.79C113.941 348.352 113.563 347.994 113.106 347.994C112.649 347.994 112.271 348.352 112.271 348.79C112.271 349.227 112.649 349.585 113.106 349.585ZM121.241 352.568C120.873 351.484 120.048 350.759 118.536 350.759C116.925 350.759 115.732 351.673 115.732 352.966C115.732 354.02 116.359 354.726 117.761 355.054L119.033 355.352C119.804 355.531 120.167 355.899 120.167 356.426C120.167 357.082 119.471 357.619 118.377 357.619C117.418 357.619 116.816 357.207 116.607 356.386L115.494 356.665C115.767 357.962 116.836 358.653 118.397 358.653C120.172 358.653 121.38 357.684 121.38 356.367C121.38 355.303 120.714 354.631 119.352 354.298L118.218 354.02C117.313 353.796 116.906 353.493 116.906 352.906C116.906 352.25 117.602 351.773 118.536 351.773C119.56 351.773 119.983 352.34 120.187 352.867L121.241 352.568ZM130.633 358.634C132.93 358.634 134.581 357.406 134.586 355.755C134.581 354.482 133.601 353.443 132.378 353.239V353.17C133.442 352.951 134.203 352.031 134.208 350.913C134.203 349.337 132.692 348.173 130.633 348.173C128.57 348.173 127.059 349.337 127.064 350.913C127.059 352.026 127.809 352.951 128.893 353.17V353.239C127.65 353.443 126.681 354.482 126.686 355.755C126.681 357.406 128.336 358.634 130.633 358.634ZM130.633 357.053C129.609 357.053 128.923 356.446 128.923 355.586C128.923 354.706 129.644 354.07 130.633 354.07C131.618 354.07 132.344 354.706 132.344 355.586C132.344 356.451 131.653 357.053 130.633 357.053ZM130.633 352.504C129.773 352.504 129.162 351.942 129.162 351.136C129.162 350.341 129.763 349.794 130.633 349.794C131.498 349.794 132.105 350.346 132.105 351.136C132.105 351.942 131.488 352.504 130.633 352.504ZM140.173 350.858H138.736V349.028H136.618V350.858H135.574V352.449H136.618V356.426C136.608 357.923 137.627 358.663 139.163 358.599C139.71 358.579 140.098 358.47 140.312 358.4L139.979 356.824C139.874 356.844 139.651 356.894 139.452 356.894C139.029 356.894 138.736 356.734 138.736 356.148V352.449H140.173V350.858ZM143.834 354.08C143.839 353.095 144.441 352.519 145.306 352.519C146.166 352.519 146.673 353.07 146.668 354.01V358.494H148.786V353.632C148.791 351.842 147.737 350.759 146.146 350.759C144.988 350.759 144.212 351.305 143.864 352.205H143.775V348.313H141.716V358.494H143.834V354.08ZM153.733 358.494H155.885V354.288H160.027V352.514H155.885V350.087H160.474V348.313H153.733V358.494ZM164.802 358.644C166.691 358.644 167.964 357.724 168.262 356.307L166.303 356.178C166.089 356.759 165.543 357.063 164.837 357.063C163.778 357.063 163.107 356.362 163.107 355.223V355.218H168.307V354.636C168.307 352.041 166.736 350.759 164.717 350.759C162.47 350.759 161.013 352.354 161.013 354.711C161.013 357.132 162.45 358.644 164.802 358.644ZM163.107 353.906C163.151 353.036 163.812 352.34 164.752 352.34C165.672 352.34 166.308 352.996 166.313 353.906H163.107ZM169.729 358.494H171.817V357.271H171.911C172.205 357.908 172.846 358.619 174.079 358.619C175.819 358.619 177.176 357.242 177.176 354.686C177.176 352.061 175.759 350.759 174.084 350.759C172.806 350.759 172.195 351.519 171.911 352.141H171.847V348.313H169.729V358.494ZM171.802 354.676C171.802 353.314 172.379 352.444 173.408 352.444C174.457 352.444 175.013 353.354 175.013 354.676C175.013 356.009 174.447 356.933 173.408 356.933C172.388 356.933 171.802 356.038 171.802 354.676ZM178.589 358.494H180.707V354.174C180.707 353.234 181.393 352.588 182.328 352.588C182.621 352.588 183.024 352.638 183.223 352.702V350.823C183.034 350.778 182.77 350.749 182.557 350.749C181.702 350.749 181.001 351.246 180.722 352.19H180.643V350.858H178.589V358.494ZM189.215 355.243C189.22 356.267 188.519 356.804 187.758 356.804C186.958 356.804 186.441 356.242 186.436 355.342V350.858H184.318V355.72C184.323 357.505 185.367 358.594 186.903 358.594C188.051 358.594 188.877 358.002 189.22 357.107H189.299V358.494H191.333V350.858H189.215V355.243ZM195.204 358.639C196.333 358.639 197.064 358.146 197.437 357.435H197.496V358.494H199.505V353.344C199.505 351.524 197.964 350.759 196.263 350.759C194.434 350.759 193.231 351.634 192.937 353.026L194.896 353.185C195.04 352.678 195.493 352.305 196.253 352.305C196.974 352.305 197.387 352.668 197.387 353.294V353.324C197.387 353.816 196.865 353.881 195.537 354.01C194.026 354.149 192.669 354.656 192.669 356.362C192.669 357.873 193.748 358.639 195.204 358.639ZM195.811 357.177C195.16 357.177 194.692 356.874 194.692 356.292C194.692 355.695 195.184 355.402 195.93 355.298C196.393 355.233 197.148 355.124 197.402 354.955V355.765C197.402 356.565 196.741 357.177 195.811 357.177ZM201.148 358.494H203.266V354.174C203.266 353.234 203.952 352.588 204.887 352.588C205.18 352.588 205.583 352.638 205.781 352.702V350.823C205.593 350.778 205.329 350.749 205.115 350.749C204.26 350.749 203.559 351.246 203.281 352.19H203.201V350.858H201.148V358.494ZM208.416 361.358C209.992 361.358 210.828 360.553 211.26 359.32L214.228 350.868L211.986 350.858L210.39 356.466H210.311L208.73 350.858H206.502L209.242 358.713L209.117 359.036C208.839 359.752 208.307 359.787 207.561 359.558L207.084 361.139C207.387 361.269 207.879 361.358 208.416 361.358ZM218.532 358.494H225.791V356.734H221.515V356.665L223.002 355.208C225.095 353.299 225.657 352.345 225.657 351.186C225.657 349.421 224.215 348.173 222.032 348.173C219.895 348.173 218.428 349.451 218.433 351.45H220.476C220.471 350.475 221.088 349.879 222.017 349.879C222.912 349.879 223.578 350.435 223.578 351.33C223.578 352.141 223.081 352.698 222.157 353.587L218.532 356.943V358.494ZM231.343 358.718C233.903 358.718 235.449 356.769 235.454 353.413C235.459 350.082 233.893 348.173 231.343 348.173C228.787 348.173 227.236 350.077 227.231 353.413C227.221 356.759 228.778 358.713 231.343 358.718ZM231.343 356.933C230.175 356.933 229.419 355.76 229.424 353.413C229.429 351.102 230.18 349.938 231.343 349.938C232.501 349.938 233.257 351.102 233.257 353.413C233.262 355.76 232.506 356.933 231.343 356.933ZM236.989 358.494H244.248V356.734H239.972V356.665L241.459 355.208C243.552 353.299 244.114 352.345 244.114 351.186C244.114 349.421 242.672 348.173 240.489 348.173C238.352 348.173 236.885 349.451 236.89 351.45H238.933C238.928 350.475 239.545 349.879 240.474 349.879C241.369 349.879 242.036 350.435 242.036 351.33C242.036 352.141 241.538 352.698 240.614 353.587L236.989 356.943V358.494ZM250.237 348.313H248.214L245.693 349.908V351.818L248.025 350.356H248.085V358.494H250.237V348.313Z" fill="#1D2B4F"/>
</svg>
