<svg width="744" height="406" viewBox="0 0 744 406" fill="none" xmlns="http://www.w3.org/2000/svg">
<rect width="744" height="406" rx="8" fill="white"/>
<path d="M27.3942 42L28.3658 39.0149H33.0895L34.0611 42H37.027L32.5142 28.9091H28.9474L24.4283 42H27.3942ZM29.0689 36.8544L30.6797 31.9006H30.782L32.3928 36.8544H29.0689ZM38.5515 45.6818H41.2745V40.4276H41.3576C41.7347 41.2457 42.5593 42.1598 44.1445 42.1598C46.3817 42.1598 48.1268 40.3892 48.1268 37.1037C48.1268 33.7287 46.305 32.054 44.1509 32.054C42.5082 32.054 41.7219 33.032 41.3576 33.831H41.2362V32.1818H38.5515V45.6818ZM41.217 37.0909C41.217 35.3395 41.9585 34.2209 43.2816 34.2209C44.6303 34.2209 45.3462 35.3906 45.3462 37.0909C45.3462 38.804 44.6175 39.9929 43.2816 39.9929C41.9712 39.9929 41.217 38.8423 41.217 37.0909ZM49.9421 45.6818H52.6651V40.4276H52.7482C53.1254 41.2457 53.9499 42.1598 55.5352 42.1598C57.7724 42.1598 59.5174 40.3892 59.5174 37.1037C59.5174 33.7287 57.6957 32.054 55.5415 32.054C53.8988 32.054 53.1126 33.032 52.7482 33.831H52.6268V32.1818H49.9421V45.6818ZM52.6076 37.0909C52.6076 35.3395 53.3491 34.2209 54.6722 34.2209C56.021 34.2209 56.7369 35.3906 56.7369 37.0909C56.7369 38.804 56.0082 39.9929 54.6722 39.9929C53.3619 39.9929 52.6076 38.8423 52.6076 37.0909ZM65.7688 42.1918C68.7475 42.1918 70.6012 40.1527 70.6012 37.1293C70.6012 34.0866 68.7475 32.054 65.7688 32.054C62.7901 32.054 60.9364 34.0866 60.9364 37.1293C60.9364 40.1527 62.7901 42.1918 65.7688 42.1918ZM65.7816 40.0824C64.4073 40.0824 63.7042 38.8232 63.7042 37.1101C63.7042 35.397 64.4073 34.1314 65.7816 34.1314C67.1303 34.1314 67.8335 35.397 67.8335 37.1101C67.8335 38.8232 67.1303 40.0824 65.7816 40.0824ZM72.3718 42H75.0948V32.1818H72.3718V42ZM73.7397 30.9162C74.5515 30.9162 75.2163 30.2962 75.2163 29.5355C75.2163 28.7812 74.5515 28.1612 73.7397 28.1612C72.9343 28.1612 72.2695 28.7812 72.2695 29.5355C72.2695 30.2962 72.9343 30.9162 73.7397 30.9162ZM79.9991 36.3239C80.0055 35.0582 80.7598 34.3168 81.8592 34.3168C82.9522 34.3168 83.6106 35.0327 83.6042 36.2344V42H86.3272V35.7486C86.3272 33.4602 84.9849 32.054 82.9395 32.054C81.4821 32.054 80.4274 32.7699 79.9863 33.9141H79.8713V32.1818H77.2761V42H79.9991V36.3239ZM93.6957 32.1818H91.8484V29.8295H89.1254V32.1818H87.783V34.2273H89.1254V39.3409C89.1126 41.2649 90.4229 42.2173 92.3981 42.1342C93.1012 42.1087 93.5998 41.968 93.8746 41.8786L93.4464 39.8523C93.3121 39.8778 93.0245 39.9418 92.7688 39.9418C92.2255 39.9418 91.8484 39.7372 91.8484 38.983V34.2273H93.6957V32.1818ZM95.4695 42H98.1925V36.1065C98.1925 35.0199 98.8828 34.2976 99.7905 34.2976C100.685 34.2976 101.286 34.9112 101.286 35.8764V42H103.926V36.0043C103.926 34.9879 104.508 34.2976 105.499 34.2976C106.368 34.2976 107.02 34.8409 107.02 35.9339V42H109.737V35.397C109.737 33.2685 108.471 32.054 106.643 32.054C105.205 32.054 104.086 32.7891 103.683 33.9141H103.581C103.268 32.7763 102.264 32.054 100.915 32.054C99.5923 32.054 98.5888 32.7571 98.1797 33.9141H98.0646V32.1818H95.4695V42ZM116.362 42.1918C118.791 42.1918 120.427 41.0092 120.811 39.1875L118.292 39.0213C118.017 39.7692 117.314 40.1591 116.407 40.1591C115.045 40.1591 114.182 39.2578 114.182 37.794V37.7876H120.868V37.0398C120.868 33.7031 118.848 32.054 116.253 32.054C113.364 32.054 111.491 34.1058 111.491 37.1357C111.491 40.2486 113.338 42.1918 116.362 42.1918ZM114.182 36.1001C114.24 34.9815 115.09 34.0866 116.298 34.0866C117.48 34.0866 118.299 34.9304 118.305 36.1001H114.182ZM125.368 36.3239C125.375 35.0582 126.129 34.3168 127.228 34.3168C128.321 34.3168 128.98 35.0327 128.973 36.2344V42H131.696V35.7486C131.696 33.4602 130.354 32.054 128.309 32.054C126.851 32.054 125.797 32.7699 125.355 33.9141H125.24V32.1818H122.645V42H125.368V36.3239ZM139.065 32.1818H137.218V29.8295H134.494V32.1818H133.152V34.2273H134.494V39.3409C134.482 41.2649 135.792 42.2173 137.767 42.1342C138.47 42.1087 138.969 41.968 139.244 41.8786L138.816 39.8523C138.681 39.8778 138.394 39.9418 138.138 39.9418C137.595 39.9418 137.218 39.7372 137.218 38.983V34.2273H139.065V32.1818ZM152.157 32.674H154.81C154.772 30.3409 152.854 28.7301 149.939 28.7301C147.069 28.7301 144.966 30.3153 144.979 32.6932C144.973 34.6236 146.334 35.7294 148.546 36.2599L149.971 36.6179C151.397 36.9631 152.189 37.3722 152.196 38.2543C152.189 39.2131 151.282 39.8651 149.875 39.8651C148.437 39.8651 147.402 39.2003 147.312 37.8899H144.634C144.704 40.7216 146.73 42.1854 149.907 42.1854C153.103 42.1854 154.983 40.6577 154.989 38.2607C154.983 36.081 153.34 34.924 151.064 34.4126L149.888 34.1314C148.75 33.8693 147.798 33.4474 147.817 32.5078C147.817 31.6641 148.565 31.044 149.92 31.044C151.243 31.044 152.055 31.6449 152.157 32.674ZM162.022 32.1818H160.175V29.8295H157.452V32.1818H156.109V34.2273H157.452V39.3409C157.439 41.2649 158.749 42.2173 160.724 42.1342C161.427 42.1087 161.926 41.968 162.201 41.8786L161.773 39.8523C161.638 39.8778 161.351 39.9418 161.095 39.9418C160.552 39.9418 160.175 39.7372 160.175 38.983V34.2273H162.022V32.1818ZM166.595 42.1854C168.046 42.1854 168.986 41.5526 169.465 40.6385H169.542V42H172.124V35.3778C172.124 33.0384 170.143 32.054 167.957 32.054C165.605 32.054 164.058 33.179 163.681 34.9688L166.199 35.1733C166.384 34.5213 166.966 34.0419 167.944 34.0419C168.871 34.0419 169.401 34.5085 169.401 35.3139V35.3523C169.401 35.9851 168.73 36.0682 167.024 36.2344C165.08 36.4134 163.335 37.0653 163.335 39.2578C163.335 41.201 164.722 42.1854 166.595 42.1854ZM167.375 40.3061C166.538 40.3061 165.937 39.9162 165.937 39.1683C165.937 38.4013 166.57 38.0241 167.529 37.8899C168.123 37.8068 169.095 37.6662 169.421 37.4489V38.4908C169.421 39.5199 168.57 40.3061 167.375 40.3061ZM179.459 32.1818H177.612V29.8295H174.889V32.1818H173.547V34.2273H174.889V39.3409C174.876 41.2649 176.187 42.2173 178.162 42.1342C178.865 42.1087 179.363 41.968 179.638 41.8786L179.21 39.8523C179.076 39.8778 178.788 39.9418 178.532 39.9418C177.989 39.9418 177.612 39.7372 177.612 38.983V34.2273H179.459V32.1818ZM181.233 42H183.956V32.1818H181.233V42ZM182.601 30.9162C183.413 30.9162 184.078 30.2962 184.078 29.5355C184.078 28.7812 183.413 28.1612 182.601 28.1612C181.796 28.1612 181.131 28.7812 181.131 29.5355C181.131 30.2962 181.796 30.9162 182.601 30.9162ZM194.306 34.9815C194.064 33.1726 192.606 32.054 190.126 32.054C187.614 32.054 185.958 33.2173 185.965 35.1094C185.958 36.5795 186.885 37.532 188.803 37.9155L190.503 38.2543C191.36 38.4268 191.75 38.7401 191.762 39.2322C191.75 39.8139 191.117 40.2294 190.164 40.2294C189.193 40.2294 188.547 39.8139 188.381 39.0149L185.703 39.1555C185.958 41.0348 187.556 42.1918 190.158 42.1918C192.702 42.1918 194.524 40.8942 194.53 38.9574C194.524 37.5384 193.597 36.6882 191.692 36.2983L189.915 35.9403C189.001 35.7422 188.662 35.429 188.669 34.956C188.662 34.3679 189.327 33.9844 190.171 33.9844C191.117 33.9844 191.679 34.5021 191.814 35.1349L194.306 34.9815ZM201.467 32.1818H199.62V29.8295H196.897V32.1818H195.555V34.2273H196.897V39.3409C196.884 41.2649 198.194 42.2173 200.17 42.1342C200.873 42.1087 201.371 41.968 201.646 41.8786L201.218 39.8523C201.084 39.8778 200.796 39.9418 200.54 39.9418C199.997 39.9418 199.62 39.7372 199.62 38.983V34.2273H201.467V32.1818ZM203.241 42H205.964V32.1818H203.241V42ZM204.609 30.9162C205.421 30.9162 206.085 30.2962 206.085 29.5355C206.085 28.7812 205.421 28.1612 204.609 28.1612C203.803 28.1612 203.139 28.7812 203.139 29.5355C203.139 30.2962 203.803 30.9162 204.609 30.9162ZM212.581 42.1918C215.196 42.1918 216.838 40.6577 216.966 38.4013H214.397C214.237 39.4496 213.547 40.0376 212.613 40.0376C211.341 40.0376 210.517 38.9702 210.517 37.0909C210.517 35.2372 211.348 34.1761 212.613 34.1761C213.61 34.1761 214.25 34.8345 214.397 35.8125H216.966C216.851 33.5433 215.132 32.054 212.569 32.054C209.59 32.054 207.749 34.1186 207.749 37.1293C207.749 40.1143 209.558 42.1918 212.581 42.1918ZM226.879 34.9815C226.636 33.1726 225.178 32.054 222.698 32.054C220.186 32.054 218.531 33.2173 218.537 35.1094C218.531 36.5795 219.458 37.532 221.375 37.9155L223.075 38.2543C223.932 38.4268 224.322 38.7401 224.335 39.2322C224.322 39.8139 223.689 40.2294 222.737 40.2294C221.765 40.2294 221.119 39.8139 220.953 39.0149L218.275 39.1555C218.531 41.0348 220.129 42.1918 222.73 42.1918C225.274 42.1918 227.096 40.8942 227.102 38.9574C227.096 37.5384 226.169 36.6882 224.264 36.2983L222.487 35.9403C221.573 35.7422 221.235 35.429 221.241 34.956C221.235 34.3679 221.899 33.9844 222.743 33.9844C223.689 33.9844 224.252 34.5021 224.386 35.1349L226.879 34.9815Z" fill="#1D2B4F"/>
<path d="M600.801 32.8636C600.741 32.3598 600.5 31.9688 600.075 31.6903C599.651 31.4119 599.131 31.2727 598.514 31.2727C598.063 31.2727 597.669 31.3456 597.331 31.4915C596.996 31.6373 596.734 31.8378 596.545 32.093C596.36 32.3482 596.267 32.6383 596.267 32.9631C596.267 33.2348 596.332 33.4685 596.461 33.6641C596.594 33.8563 596.763 34.017 596.968 34.1463C597.174 34.2723 597.389 34.3767 597.614 34.4595C597.84 34.5391 598.047 34.6037 598.236 34.6534L599.27 34.9318C599.535 35.0014 599.83 35.0975 600.155 35.2202C600.483 35.3428 600.796 35.5102 601.094 35.7223C601.396 35.9311 601.645 36.1996 601.84 36.5277C602.036 36.8558 602.134 37.2585 602.134 37.7358C602.134 38.286 601.989 38.7831 601.701 39.2273C601.416 39.6714 600.998 40.0244 600.448 40.2862C599.901 40.5481 599.237 40.679 598.455 40.679C597.725 40.679 597.094 40.5613 596.56 40.326C596.03 40.0907 595.612 39.7625 595.308 39.3416C595.006 38.9207 594.835 38.4318 594.795 37.875H596.068C596.101 38.2595 596.231 38.5777 596.456 38.8295C596.685 39.0781 596.973 39.2637 597.321 39.3864C597.672 39.5057 598.05 39.5653 598.455 39.5653C598.925 39.5653 599.348 39.4891 599.722 39.3366C600.097 39.1809 600.393 38.9654 600.612 38.6903C600.831 38.4119 600.94 38.0871 600.94 37.7159C600.94 37.3778 600.846 37.1027 600.657 36.8906C600.468 36.6785 600.219 36.5062 599.911 36.3736C599.603 36.241 599.27 36.125 598.912 36.0256L597.659 35.6676C596.864 35.4389 596.234 35.1125 595.77 34.6882C595.306 34.264 595.074 33.7088 595.074 33.0227C595.074 32.4527 595.228 31.9555 595.536 31.5312C595.848 31.1037 596.265 30.7723 596.789 30.5369C597.316 30.2983 597.904 30.179 598.554 30.179C599.21 30.179 599.794 30.2966 600.304 30.532C600.814 30.764 601.219 31.0821 601.517 31.4865C601.819 31.8909 601.978 32.3499 601.994 32.8636H600.801ZM605.175 35.9062V40.5H604.002V30.3182H605.175V34.0568H605.274C605.453 33.6624 605.722 33.3492 606.08 33.1172C606.441 32.8819 606.922 32.7642 607.521 32.7642C608.042 32.7642 608.498 32.8686 608.889 33.0774C609.28 33.2829 609.583 33.5994 609.798 34.027C610.017 34.4512 610.127 34.9915 610.127 35.6477V40.5H608.953V35.7273C608.953 35.1207 608.796 34.6518 608.481 34.3203C608.169 33.9856 607.737 33.8182 607.183 33.8182C606.799 33.8182 606.454 33.8994 606.149 34.0618C605.848 34.2242 605.609 34.4612 605.433 34.7727C605.261 35.0843 605.175 35.4621 605.175 35.9062ZM615.375 40.6591C614.686 40.6591 614.081 40.495 613.561 40.1669C613.044 39.8388 612.639 39.3797 612.348 38.7898C612.059 38.1998 611.915 37.5104 611.915 36.7216C611.915 35.9261 612.059 35.2318 612.348 34.6385C612.639 34.0452 613.044 33.5845 613.561 33.2564C614.081 32.9283 614.686 32.7642 615.375 32.7642C616.065 32.7642 616.668 32.9283 617.185 33.2564C617.705 33.5845 618.11 34.0452 618.398 34.6385C618.69 35.2318 618.836 35.9261 618.836 36.7216C618.836 37.5104 618.69 38.1998 618.398 38.7898C618.11 39.3797 617.705 39.8388 617.185 40.1669C616.668 40.495 616.065 40.6591 615.375 40.6591ZM615.375 39.6051C615.899 39.6051 616.33 39.4709 616.668 39.2024C617.006 38.9339 617.256 38.581 617.419 38.1435C617.581 37.706 617.662 37.232 617.662 36.7216C617.662 36.2112 617.581 35.7356 617.419 35.2947C617.256 34.8539 617.006 34.4976 616.668 34.2259C616.33 33.9541 615.899 33.8182 615.375 33.8182C614.852 33.8182 614.421 33.9541 614.083 34.2259C613.745 34.4976 613.494 34.8539 613.332 35.2947C613.17 35.7356 613.088 36.2112 613.088 36.7216C613.088 37.232 613.17 37.706 613.332 38.1435C613.494 38.581 613.745 38.9339 614.083 39.2024C614.421 39.4709 614.852 39.6051 615.375 39.6051ZM622.097 40.5L619.77 32.8636H621.003L622.654 38.7102H622.733L624.364 32.8636H625.617L627.228 38.6903H627.307L628.958 32.8636H630.191L627.864 40.5H626.711L625.04 34.6335H624.921L623.25 40.5H622.097Z" fill="#8692A6"/>
<path d="M635.49 40.5V30.3182H637.608V34.1463H637.673C637.766 33.9408 637.9 33.732 638.076 33.5199C638.255 33.3045 638.487 33.1255 638.772 32.983C639.06 32.8371 639.418 32.7642 639.846 32.7642C640.402 32.7642 640.916 32.91 641.387 33.2017C641.857 33.4901 642.234 33.9259 642.515 34.5092C642.797 35.0893 642.938 35.8168 642.938 36.6918C642.938 37.5436 642.8 38.2628 642.525 38.8494C642.253 39.4328 641.882 39.8752 641.412 40.1768C640.944 40.4751 640.421 40.6243 639.841 40.6243C639.43 40.6243 639.08 40.5563 638.792 40.4205C638.507 40.2846 638.273 40.1139 638.091 39.9084C637.908 39.6996 637.769 39.4891 637.673 39.277H637.578V40.5H635.49ZM637.564 36.6818C637.564 37.1359 637.627 37.532 637.752 37.87C637.878 38.2081 638.061 38.4716 638.299 38.6605C638.538 38.8461 638.828 38.9389 639.169 38.9389C639.514 38.9389 639.806 38.8445 640.044 38.6555C640.283 38.4633 640.464 38.1982 640.586 37.8601C640.712 37.5187 640.775 37.1259 640.775 36.6818C640.775 36.241 640.714 35.8532 640.591 35.5185C640.469 35.1837 640.288 34.9219 640.049 34.733C639.811 34.544 639.517 34.4496 639.169 34.4496C638.825 34.4496 638.533 34.5407 638.294 34.723C638.059 34.9053 637.878 35.1638 637.752 35.4986C637.627 35.8333 637.564 36.2277 637.564 36.6818ZM645.412 43.3636C645.144 43.3636 644.892 43.3421 644.657 43.299C644.425 43.2592 644.233 43.2079 644.08 43.1449L644.557 41.5639C644.806 41.6402 645.03 41.6816 645.229 41.6882C645.431 41.6948 645.605 41.6484 645.751 41.549C645.9 41.4496 646.021 41.2805 646.113 41.0419L646.238 40.7188L643.498 32.8636H645.726L647.307 38.4716H647.386L648.982 32.8636H651.224L648.256 41.3253C648.114 41.7363 647.92 42.0942 647.675 42.3991C647.433 42.7074 647.126 42.9444 646.755 43.1101C646.384 43.2791 645.936 43.3636 645.412 43.3636ZM655.548 40.5V32.8636H657.567V34.2109H657.656C657.815 33.7635 658.08 33.4105 658.452 33.152C658.823 32.8935 659.267 32.7642 659.784 32.7642C660.308 32.7642 660.754 32.8951 661.121 33.157C661.489 33.4155 661.735 33.7668 661.857 34.2109H661.937C662.093 33.7734 662.374 33.4238 662.782 33.1619C663.193 32.8968 663.679 32.7642 664.239 32.7642C664.951 32.7642 665.53 32.9912 665.974 33.4453C666.421 33.8961 666.645 34.5357 666.645 35.3643V40.5H664.532V35.782C664.532 35.3577 664.419 35.0395 664.194 34.8274C663.969 34.6153 663.687 34.5092 663.349 34.5092C662.964 34.5092 662.664 34.6319 662.449 34.8771C662.233 35.1191 662.126 35.4389 662.126 35.8366V40.5H660.072V35.7372C660.072 35.3627 659.965 35.0644 659.749 34.8423C659.537 34.6203 659.257 34.5092 658.909 34.5092C658.674 34.5092 658.462 34.5689 658.273 34.6882C658.087 34.8042 657.94 34.9683 657.83 35.1804C657.721 35.3892 657.666 35.6345 657.666 35.9162V40.5H655.548ZM671.768 40.6491C670.996 40.6491 670.328 40.4851 669.765 40.157C669.204 39.8255 668.772 39.3648 668.467 38.7749C668.162 38.1816 668.01 37.4938 668.01 36.7116C668.01 35.9228 668.162 35.2334 668.467 34.6435C668.772 34.0502 669.204 33.5895 669.765 33.2614C670.328 32.9299 670.996 32.7642 671.768 32.7642C672.54 32.7642 673.207 32.9299 673.767 33.2614C674.33 33.5895 674.764 34.0502 675.069 34.6435C675.374 35.2334 675.527 35.9228 675.527 36.7116C675.527 37.4938 675.374 38.1816 675.069 38.7749C674.764 39.3648 674.33 39.8255 673.767 40.157C673.207 40.4851 672.54 40.6491 671.768 40.6491ZM671.778 39.0085C672.129 39.0085 672.423 38.9091 672.658 38.7102C672.893 38.508 673.071 38.233 673.19 37.8849C673.313 37.5369 673.374 37.1409 673.374 36.6967C673.374 36.2526 673.313 35.8565 673.19 35.5085C673.071 35.1605 672.893 34.8854 672.658 34.6832C672.423 34.4811 672.129 34.38 671.778 34.38C671.423 34.38 671.125 34.4811 670.883 34.6832C670.645 34.8854 670.464 35.1605 670.341 35.5085C670.222 35.8565 670.162 36.2526 670.162 36.6967C670.162 37.1409 670.222 37.5369 670.341 37.8849C670.464 38.233 670.645 38.508 670.883 38.7102C671.125 38.9091 671.423 39.0085 671.778 39.0085ZM679.022 36.0852V40.5H676.904V32.8636H678.922V34.2109H679.012C679.181 33.7668 679.464 33.4155 679.862 33.157C680.26 32.8951 680.742 32.7642 681.309 32.7642C681.839 32.7642 682.301 32.8802 682.696 33.1122C683.09 33.3442 683.397 33.6757 683.615 34.1065C683.834 34.5341 683.944 35.0445 683.944 35.6378V40.5H681.826V36.0156C681.829 35.5483 681.71 35.1837 681.468 34.9219C681.226 34.6567 680.893 34.5241 680.468 34.5241C680.183 34.5241 679.931 34.5855 679.713 34.7081C679.497 34.8307 679.328 35.0097 679.206 35.245C679.086 35.477 679.025 35.7571 679.022 36.0852ZM689.675 32.8636V34.4545H685.076V32.8636H689.675ZM686.12 31.0341H688.238V38.1534C688.238 38.349 688.268 38.5014 688.327 38.6108C688.387 38.7169 688.47 38.7914 688.576 38.8345C688.685 38.8776 688.811 38.8991 688.954 38.8991C689.053 38.8991 689.153 38.8909 689.252 38.8743C689.351 38.8544 689.428 38.8395 689.481 38.8295L689.814 40.4055C689.708 40.4387 689.559 40.4768 689.366 40.5199C689.174 40.5663 688.94 40.5945 688.665 40.6044C688.155 40.6243 687.707 40.5563 687.323 40.4006C686.942 40.2448 686.645 40.0028 686.433 39.6747C686.221 39.3466 686.117 38.9323 686.12 38.4318V31.0341ZM693.336 36.0852V40.5H691.218V30.3182H693.276V34.2109H693.366C693.538 33.7602 693.817 33.4072 694.201 33.152C694.586 32.8935 695.068 32.7642 695.648 32.7642C696.178 32.7642 696.641 32.8802 697.035 33.1122C697.433 33.3409 697.741 33.6707 697.96 34.1016C698.182 34.5291 698.291 35.0412 698.288 35.6378V40.5H696.17V36.0156C696.173 35.545 696.054 35.1787 695.812 34.9169C695.573 34.6551 695.239 34.5241 694.808 34.5241C694.519 34.5241 694.264 34.5855 694.042 34.7081C693.823 34.8307 693.651 35.0097 693.525 35.245C693.402 35.477 693.339 35.7571 693.336 36.0852Z" fill="#40A3F8"/>
<path opacity="0.8" d="M710 32.1716L715 37.8284L720 32.1716" stroke="#40A3F8" stroke-width="3"/>
<path d="M24 62H72" stroke="#40A3F8" stroke-width="3"/>
<path d="M24 358H720" stroke="#8692A6" stroke-opacity="0.05"/>
<path d="M39 351.129C41.0866 351.129 42.2869 349.361 42.2869 346.273C42.2869 343.207 41.0682 341.416 39 341.416C36.9318 341.416 35.7131 343.207 35.7131 346.273C35.7131 349.361 36.9134 351.129 39 351.129ZM39 350.114C37.6243 350.114 36.821 348.733 36.821 346.273C36.821 343.817 37.6335 342.413 39 342.413C40.3665 342.413 41.179 343.817 41.179 346.273C41.179 348.733 40.3757 350.114 39 350.114Z" fill="#1D2B4F"/>
<path d="M24 318H720" stroke="#8692A6" stroke-opacity="0.05"/>
<path d="M36.2186 301.545H35.0737L32.71 303.115V304.278L35.0183 302.746H35.0737V311H36.2186V301.545ZM42.0215 311.129C44.1081 311.129 45.3084 309.361 45.3084 306.273C45.3084 303.207 44.0897 301.416 42.0215 301.416C39.9533 301.416 38.7346 303.207 38.7346 306.273C38.7346 309.361 39.9348 311.129 42.0215 311.129ZM42.0215 310.114C40.6458 310.114 39.8425 308.733 39.8425 306.273C39.8425 303.817 40.655 302.413 42.0215 302.413C43.388 302.413 44.2005 303.817 44.2005 306.273C44.2005 308.733 43.3972 310.114 42.0215 310.114Z" fill="#1D2B4F"/>
<path d="M24 278H720" stroke="#8692A6" stroke-opacity="0.05"/>
<path d="M31.9806 271H37.9451V269.984H33.5502V269.911L35.6738 267.639C37.2988 265.899 37.7789 265.086 37.7789 264.038C37.7789 262.58 36.5971 261.416 34.9352 261.416C33.2779 261.416 32.0176 262.543 32.0176 264.205H33.1071C33.1071 263.129 33.8042 262.413 34.8983 262.413C35.9231 262.413 36.7079 263.041 36.7079 264.038C36.7079 264.911 36.1955 265.557 35.1014 266.753L31.9806 270.169V271ZM42.9355 271.129C45.0222 271.129 46.2225 269.361 46.2225 266.273C46.2225 263.207 45.0037 261.416 42.9355 261.416C40.8674 261.416 39.6486 263.207 39.6486 266.273C39.6486 269.361 40.8489 271.129 42.9355 271.129ZM42.9355 270.114C41.5598 270.114 40.7566 268.733 40.7566 266.273C40.7566 263.817 41.5691 262.413 42.9355 262.413C44.302 262.413 45.1145 263.817 45.1145 266.273C45.1145 268.733 44.3113 270.114 42.9355 270.114Z" fill="#1D2B4F"/>
<path d="M24 238H720" stroke="#8692A6" stroke-opacity="0.05"/>
<path d="M34.9721 231.129C36.8049 231.129 38.1667 229.98 38.1667 228.433C38.1667 227.233 37.4558 226.36 36.2647 226.162V226.088C37.2203 225.797 37.8159 225.012 37.8159 223.946C37.8159 222.607 36.7587 221.416 35.0091 221.416C33.3748 221.416 32.0176 222.423 31.9622 223.909H33.0701C33.1117 222.967 34.0073 222.413 34.9906 222.413C36.0339 222.413 36.7079 223.046 36.7079 224.001C36.7079 224.999 35.9277 225.645 34.8059 225.645H34.0488V226.661H34.8059C36.2417 226.661 37.0403 227.39 37.0403 228.433C37.0403 229.435 36.1678 230.114 34.9537 230.114C33.8596 230.114 32.9917 229.55 32.9224 228.636H31.7591C31.8283 230.123 33.1394 231.129 34.9721 231.129ZM43.1387 231.129C45.2253 231.129 46.4256 229.361 46.4256 226.273C46.4256 223.207 45.2069 221.416 43.1387 221.416C41.0705 221.416 39.8517 223.207 39.8517 226.273C39.8517 229.361 41.052 231.129 43.1387 231.129ZM43.1387 230.114C41.763 230.114 40.9597 228.733 40.9597 226.273C40.9597 223.817 41.7722 222.413 43.1387 222.413C44.5051 222.413 45.3176 223.817 45.3176 226.273C45.3176 228.733 44.5144 230.114 43.1387 230.114Z" fill="#1D2B4F"/>
<path d="M24 198H720" stroke="#8692A6" stroke-opacity="0.05"/>
<path d="M31.5242 189.061H35.9745V191H37.064V189.061H38.3566V188.045H37.064V181.545H35.679L31.5242 188.119V189.061ZM35.9745 188.045H32.7614V187.972L35.9006 183.004H35.9745V188.045ZM43.1704 191.129C45.2571 191.129 46.4573 189.361 46.4573 186.273C46.4573 183.207 45.2386 181.416 43.1704 181.416C41.1022 181.416 39.8835 183.207 39.8835 186.273C39.8835 189.361 41.0838 191.129 43.1704 191.129ZM43.1704 190.114C41.7947 190.114 40.9914 188.733 40.9914 186.273C40.9914 183.817 41.8039 182.413 43.1704 182.413C44.5369 182.413 45.3494 183.817 45.3494 186.273C45.3494 188.733 44.5461 190.114 43.1704 190.114Z" fill="#1D2B4F"/>
<path d="M24 158H720" stroke="#8692A6" stroke-opacity="0.05"/>
<path d="M34.9161 151.129C36.7166 151.129 38.0369 149.8 38.0369 147.99C38.0369 146.157 36.7627 144.814 35.0269 144.814C34.3899 144.814 33.7713 145.04 33.3835 145.349H33.3281L33.6605 142.561H37.6122V141.545H32.7002L32.1278 146.199L33.1988 146.328C33.5912 146.047 34.2606 145.843 34.8423 145.848C36.0472 145.857 36.9289 146.771 36.9289 148.009C36.9289 149.223 36.0795 150.114 34.9161 150.114C33.9467 150.114 33.1757 149.49 33.088 148.636H31.9801C32.0493 150.077 33.2911 151.129 34.9161 151.129ZM42.9546 151.129C45.0412 151.129 46.2415 149.361 46.2415 146.273C46.2415 143.207 45.0228 141.416 42.9546 141.416C40.8864 141.416 39.6677 143.207 39.6677 146.273C39.6677 149.361 40.8679 151.129 42.9546 151.129ZM42.9546 150.114C41.5789 150.114 40.7756 148.733 40.7756 146.273C40.7756 143.817 41.5881 142.413 42.9546 142.413C44.3211 142.413 45.1336 143.817 45.1336 146.273C45.1336 148.733 44.3303 150.114 42.9546 150.114Z" fill="#1D2B4F"/>
<path d="M24 118H720" stroke="#8692A6" stroke-opacity="0.05"/>
<path d="M34.9992 111.129C36.9105 111.152 38.1569 109.712 38.1569 107.953C38.1569 106.125 36.8043 104.814 35.1839 104.814C34.2098 104.814 33.3742 105.289 32.8572 106.07H32.7833C32.788 103.766 33.6835 102.432 35.147 102.432C36.1441 102.432 36.7443 103.06 36.9566 103.909H38.0831C37.8522 102.441 36.735 101.416 35.147 101.416C33.0188 101.416 31.7123 103.3 31.7123 106.642C31.7123 110.137 33.4481 111.111 34.9992 111.129ZM34.9992 110.114C33.8128 110.114 32.9449 109.103 32.9495 107.972C32.9541 106.841 33.8636 105.83 35.0362 105.83C36.1949 105.83 37.049 106.781 37.049 107.953C37.049 109.153 36.158 110.114 34.9992 110.114ZM43.0562 111.129C45.1428 111.129 46.3431 109.361 46.3431 106.273C46.3431 103.207 45.1243 101.416 43.0562 101.416C40.988 101.416 39.7692 103.207 39.7692 106.273C39.7692 109.361 40.9695 111.129 43.0562 111.129ZM43.0562 110.114C41.6804 110.114 40.8772 108.733 40.8772 106.273C40.8772 103.817 41.6897 102.413 43.0562 102.413C44.4226 102.413 45.2351 103.817 45.2351 106.273C45.2351 108.733 44.4319 110.114 43.0562 110.114Z" fill="#1D2B4F"/>
<path d="M78.5415 365.545V372.249C78.5369 373.338 78.0291 373.92 77.1243 373.92C76.2887 373.92 75.707 373.421 75.7024 372.636H74.2852C74.2852 374.234 75.4854 375.129 77.0874 375.129C78.8232 375.129 79.9588 374.067 79.9634 372.249V365.545H78.5415ZM83.9925 375.157C85.165 375.157 85.8252 374.561 86.0883 374.031H86.1437V375H87.4917V370.291C87.4917 368.228 85.8667 367.817 84.7403 367.817C83.4569 367.817 82.2751 368.334 81.8135 369.626L83.1107 369.922C83.3138 369.419 83.8309 368.934 84.7588 368.934C85.6498 368.934 86.1068 369.4 86.1068 370.203V370.236C86.1068 370.739 85.5898 370.73 84.3156 370.877C82.9722 371.034 81.5965 371.385 81.5965 372.996C81.5965 374.391 82.6444 375.157 83.9925 375.157ZM84.2925 374.049C83.5123 374.049 82.9491 373.698 82.9491 373.015C82.9491 372.276 83.6047 372.013 84.4033 371.907C84.8511 371.847 85.9129 371.727 86.1114 371.528V372.442C86.1114 373.283 85.442 374.049 84.2925 374.049ZM90.7106 370.79C90.7106 369.659 91.4031 369.012 92.3633 369.012C93.3004 369.012 93.8683 369.626 93.8683 370.656V375H95.2486V370.49C95.2486 368.735 94.2837 367.817 92.8342 367.817C91.7678 367.817 91.0707 368.311 90.7429 369.063H90.6552V367.909H89.3303V375H90.7106V370.79Z" fill="#1D2B4F"/>
<rect x="80" y="238" width="4" height="120" fill="#06A77D"/>
<rect x="86" y="325" width="4" height="33" fill="#FF8080"/>
<path d="M128.607 375H130.033V370.877H134.049V369.654H130.033V366.773H134.47V365.545H128.607V375ZM138.649 375.143C140.195 375.143 141.289 374.381 141.603 373.227L140.297 372.992C140.047 373.661 139.447 374.003 138.662 374.003C137.481 374.003 136.687 373.237 136.65 371.87H141.691V371.381C141.691 368.819 140.158 367.817 138.552 367.817C136.576 367.817 135.274 369.322 135.274 371.501C135.274 373.703 136.557 375.143 138.649 375.143ZM136.654 370.836C136.71 369.83 137.439 368.957 138.561 368.957C139.632 368.957 140.334 369.751 140.338 370.836H136.654ZM143.333 375H144.681V373.897H144.797C145.046 374.349 145.554 375.138 146.846 375.138C148.564 375.138 149.81 373.763 149.81 371.468C149.81 369.169 148.545 367.817 146.832 367.817C145.517 367.817 145.041 368.62 144.797 369.059H144.713V365.545H143.333V375ZM144.686 371.455C144.686 369.973 145.332 368.989 146.537 368.989C147.788 368.989 148.416 370.047 148.416 371.455C148.416 372.876 147.77 373.961 146.537 373.961C145.351 373.961 144.686 372.946 144.686 371.455Z" fill="#1D2B4F"/>
<rect x="134" y="301" width="4" height="58" fill="#06A77D"/>
<rect x="140" y="338" width="4" height="21" fill="#FF8080"/>
<path d="M182.01 365.545V375H183.367V368.154H183.455L186.243 374.986H187.37L190.158 368.158H190.246V375H191.603V365.545H189.872L186.862 372.895H186.751L183.741 365.545H182.01ZM195.63 375.157C196.802 375.157 197.462 374.561 197.726 374.031H197.781V375H199.129V370.291C199.129 368.228 197.504 367.817 196.378 367.817C195.094 367.817 193.912 368.334 193.451 369.626L194.748 369.922C194.951 369.419 195.468 368.934 196.396 368.934C197.287 368.934 197.744 369.4 197.744 370.203V370.236C197.744 370.739 197.227 370.73 195.953 370.877C194.609 371.034 193.234 371.385 193.234 372.996C193.234 374.391 194.282 375.157 195.63 375.157ZM195.93 374.049C195.15 374.049 194.586 373.698 194.586 373.015C194.586 372.276 195.242 372.013 196.041 371.907C196.488 371.847 197.55 371.727 197.749 371.528V372.442C197.749 373.283 197.079 374.049 195.93 374.049ZM200.967 375H202.348V370.67C202.348 369.742 203.063 369.072 204.042 369.072C204.328 369.072 204.651 369.123 204.762 369.156V367.835C204.624 367.817 204.351 367.803 204.176 367.803C203.345 367.803 202.634 368.274 202.375 369.036H202.302V367.909H200.967V375Z" fill="#1D2B4F"/>
<rect x="188" y="294" width="4" height="64" fill="#06A77D"/>
<rect x="194" y="238" width="4" height="120" fill="#FF8080"/>
<path d="M237.78 375L238.648 372.498H242.341L243.204 375H244.718L241.316 365.545H239.668L236.266 375H237.78ZM239.063 371.298L240.457 367.263H240.531L241.925 371.298H239.063ZM245.973 377.659H247.353V373.897H247.436C247.686 374.349 248.193 375.138 249.486 375.138C251.203 375.138 252.45 373.763 252.45 371.468C252.45 369.169 251.185 367.817 249.472 367.817C248.156 367.817 247.681 368.62 247.436 369.059H247.321V367.909H245.973V377.659ZM247.325 371.455C247.325 369.973 247.972 368.989 249.177 368.989C250.428 368.989 251.056 370.047 251.056 371.455C251.056 372.876 250.409 373.961 249.177 373.961C247.99 373.961 247.325 372.946 247.325 371.455ZM253.996 375H255.377V370.67C255.377 369.742 256.092 369.072 257.071 369.072C257.357 369.072 257.68 369.123 257.791 369.156V367.835C257.653 367.817 257.38 367.803 257.205 367.803C256.374 367.803 255.663 368.274 255.404 369.036H255.33V367.909H253.996V375Z" fill="#1D2B4F"/>
<rect x="242" y="133" width="4" height="225" fill="#06A77D"/>
<rect x="248" y="278" width="4" height="80" fill="#FF8080"/>
<rect x="287" y="118" width="29" height="240" fill="#06A77D" fill-opacity="0.04"/>
<path d="M288.943 365.545V375H290.301V368.154H290.388L293.177 374.986H294.303L297.092 368.158H297.179V375H298.537V365.545H296.805L293.795 372.895H293.685L290.675 365.545H288.943ZM302.563 375.157C303.736 375.157 304.396 374.561 304.659 374.031H304.715V375H306.063V370.291C306.063 368.228 304.438 367.817 303.311 367.817C302.028 367.817 300.846 368.334 300.384 369.626L301.682 369.922C301.885 369.419 302.402 368.934 303.33 368.934C304.221 368.934 304.678 369.4 304.678 370.203V370.236C304.678 370.739 304.161 370.73 302.886 370.877C301.543 371.034 300.167 371.385 300.167 372.996C300.167 374.391 301.215 375.157 302.563 375.157ZM302.863 374.049C302.083 374.049 301.52 373.698 301.52 373.015C301.52 372.276 302.175 372.013 302.974 371.907C303.422 371.847 304.484 371.727 304.682 371.528V372.442C304.682 373.283 304.013 374.049 302.863 374.049ZM308.52 377.659C309.66 377.659 310.38 377.064 310.791 375.946L313.722 367.923L312.231 367.909L310.436 373.412H310.362L308.566 367.909H307.089L309.683 375.092L309.512 375.563C309.161 376.505 308.667 376.583 307.91 376.376L307.578 377.507C307.744 377.581 308.104 377.659 308.52 377.659Z" fill="#1D2B4F"/>
<rect x="296" y="250" width="4" height="108" fill="#06A77D"/>
<rect x="302" y="278" width="4" height="80" fill="#FF8080"/>
<path d="M348.377 365.545V372.249C348.372 373.338 347.864 373.92 346.959 373.92C346.124 373.92 345.542 373.421 345.537 372.636H344.12C344.12 374.234 345.32 375.129 346.922 375.129C348.658 375.129 349.794 374.067 349.798 372.249V365.545H348.377ZM356.256 372.059C356.26 373.264 355.365 373.837 354.589 373.837C353.735 373.837 353.144 373.218 353.144 372.253V367.909H351.764V372.419C351.764 374.178 352.729 375.092 354.091 375.092C355.157 375.092 355.882 374.529 356.21 373.772H356.283V375H357.641V367.909H356.256V372.059ZM360.876 370.79C360.876 369.659 361.568 369.012 362.528 369.012C363.465 369.012 364.033 369.626 364.033 370.656V375H365.414V370.49C365.414 368.735 364.449 367.817 362.999 367.817C361.933 367.817 361.236 368.311 360.908 369.063H360.82V367.909H359.495V375H360.876V370.79Z" fill="#1D2B4F"/>
<rect x="350" y="223" width="4" height="135" fill="#06A77D"/>
<rect x="356" y="278" width="4" height="80" fill="#FF8080"/>
<path d="M404.643 365.545V372.249C404.638 373.338 404.13 373.92 403.225 373.92C402.39 373.92 401.808 373.421 401.803 372.636H400.386C400.386 374.234 401.587 375.129 403.188 375.129C404.924 375.129 406.06 374.067 406.064 372.249V365.545H404.643ZM412.522 372.059C412.526 373.264 411.631 373.837 410.855 373.837C410.001 373.837 409.41 373.218 409.41 372.253V367.909H408.03V372.419C408.03 374.178 408.995 375.092 410.357 375.092C411.423 375.092 412.148 374.529 412.476 373.772H412.549V375H413.907V367.909H412.522V372.059ZM417.142 365.545H415.761V375H417.142V365.545Z" fill="#1D2B4F"/>
<rect x="404" y="278" width="4" height="80" fill="#06A77D"/>
<rect x="410" y="338" width="4" height="20" fill="#FF8080"/>
<path d="M452.409 375L453.277 372.498H456.97L457.833 375H459.347L455.945 365.545H454.297L450.894 375H452.409ZM453.692 371.298L455.086 367.263H455.16L456.554 371.298H453.692ZM465.094 372.059C465.098 373.264 464.203 373.837 463.427 373.837C462.573 373.837 461.982 373.218 461.982 372.253V367.909H460.602V372.419C460.602 374.178 461.567 375.092 462.928 375.092C463.995 375.092 464.72 374.529 465.047 373.772H465.121V375H466.479V367.909H465.094V372.059ZM471.306 377.807C473.111 377.807 474.505 376.98 474.505 375.157V367.909H473.153V369.059H473.051C472.807 368.62 472.317 367.817 470.997 367.817C469.284 367.817 468.024 369.169 468.024 371.427C468.024 373.689 469.312 374.894 470.988 374.894C472.29 374.894 472.793 374.16 473.042 373.707H473.13V375.102C473.13 376.214 472.368 376.694 471.32 376.694C470.171 376.694 469.723 376.117 469.478 375.711L468.292 376.2C468.666 377.068 469.612 377.807 471.306 377.807ZM471.292 373.749C470.06 373.749 469.418 372.803 469.418 371.408C469.418 370.047 470.046 368.989 471.292 368.989C472.497 368.989 473.144 369.973 473.144 371.408C473.144 372.872 472.483 373.749 471.292 373.749Z" fill="#1D2B4F"/>
<rect x="458" y="174" width="4" height="184" fill="#06A77D"/>
<rect x="464" y="278" width="4" height="80" fill="#FF8080"/>
<path d="M511.186 368.029H512.561C512.52 366.515 511.181 365.416 509.26 365.416C507.363 365.416 505.909 366.501 505.909 368.131C505.909 369.446 506.851 370.217 508.369 370.628L509.487 370.933C510.498 371.201 511.278 371.533 511.278 372.373C511.278 373.297 510.396 373.906 509.182 373.906C508.083 373.906 507.169 373.417 507.086 372.387H505.655C505.747 374.1 507.072 375.157 509.191 375.157C511.412 375.157 512.691 373.989 512.691 372.387C512.691 370.684 511.172 370.023 509.971 369.728L509.048 369.488C508.309 369.299 507.326 368.952 507.331 368.048C507.331 367.244 508.065 366.649 509.228 366.649C510.313 366.649 511.084 367.157 511.186 368.029ZM517.34 375.143C518.887 375.143 519.981 374.381 520.295 373.227L518.989 372.992C518.739 373.661 518.139 374.003 517.354 374.003C516.172 374.003 515.378 373.237 515.342 371.87H520.383V371.381C520.383 368.819 518.85 367.817 517.244 367.817C515.268 367.817 513.966 369.322 513.966 371.501C513.966 373.703 515.249 375.143 517.34 375.143ZM515.346 370.836C515.402 369.83 516.131 368.957 517.253 368.957C518.324 368.957 519.025 369.751 519.03 370.836H515.346ZM521.914 377.659H523.295V373.897H523.378C523.627 374.349 524.135 375.138 525.427 375.138C527.145 375.138 528.391 373.763 528.391 371.468C528.391 369.169 527.126 367.817 525.414 367.817C524.098 367.817 523.622 368.62 523.378 369.059H523.262V367.909H521.914V377.659ZM523.267 371.455C523.267 369.973 523.913 368.989 525.118 368.989C526.369 368.989 526.997 370.047 526.997 371.455C526.997 372.876 526.351 373.961 525.118 373.961C523.932 373.961 523.267 372.946 523.267 371.455Z" fill="#1D2B4F"/>
<rect x="512" y="205" width="4" height="154" fill="#06A77D"/>
<rect x="518" y="279" width="4" height="80" fill="#FF8080"/>
<path d="M569.149 370.273C569.149 367.249 567.34 365.416 564.893 365.416C562.437 365.416 560.632 367.249 560.632 370.273C560.632 373.292 562.437 375.129 564.893 375.129C567.34 375.129 569.149 373.297 569.149 370.273ZM567.737 370.273C567.737 372.576 566.518 373.827 564.893 373.827C563.263 373.827 562.049 372.576 562.049 370.273C562.049 367.969 563.263 366.718 564.893 366.718C566.518 366.718 567.737 367.969 567.737 370.273ZM573.804 375.143C575.48 375.143 576.565 374.137 576.717 372.756H575.374C575.198 373.523 574.603 373.975 573.813 373.975C572.645 373.975 571.893 373.001 571.893 371.455C571.893 369.936 572.659 368.98 573.813 368.98C574.69 368.98 575.226 369.534 575.374 370.199H576.717C576.569 368.768 575.401 367.817 573.79 367.817C571.791 367.817 570.499 369.322 570.499 371.487C570.499 373.624 571.745 375.143 573.804 375.143ZM581.503 367.909H580.049V366.21H578.669V367.909H577.63V369.017H578.669V373.204C578.664 374.492 579.647 375.115 580.737 375.092C581.175 375.088 581.471 375.005 581.632 374.945L581.383 373.804C581.291 373.823 581.12 373.864 580.898 373.864C580.451 373.864 580.049 373.717 580.049 372.918V369.017H581.503V367.909Z" fill="#1D2B4F"/>
<rect x="566" y="151" width="4" height="207" fill="#06A77D"/>
<rect x="572" y="186" width="4" height="172" fill="#FF8080"/>
<path d="M670.906 375C673.786 375 675.453 373.213 675.453 370.259C675.453 367.318 673.786 365.545 671.003 365.545H667.845V375H670.906ZM669.271 373.754V366.792H670.915C672.983 366.792 674.049 368.029 674.049 370.259C674.049 372.498 672.983 373.754 670.827 373.754H669.271ZM680.172 375.143C681.719 375.143 682.813 374.381 683.127 373.227L681.82 372.992C681.571 373.661 680.971 374.003 680.186 374.003C679.004 374.003 678.21 373.237 678.173 371.87H683.214V371.381C683.214 368.819 681.682 367.817 680.075 367.817C678.099 367.817 676.797 369.322 676.797 371.501C676.797 373.703 678.081 375.143 680.172 375.143ZM678.178 370.836C678.233 369.83 678.962 368.957 680.084 368.957C681.155 368.957 681.857 369.751 681.862 370.836H678.178ZM687.733 375.143C689.408 375.143 690.493 374.137 690.646 372.756H689.302C689.127 373.523 688.531 373.975 687.742 373.975C686.574 373.975 685.821 373.001 685.821 371.455C685.821 369.936 686.588 368.98 687.742 368.98C688.619 368.98 689.155 369.534 689.302 370.199H690.646C690.498 368.768 689.33 367.817 687.719 367.817C685.72 367.817 684.427 369.322 684.427 371.487C684.427 373.624 685.674 375.143 687.733 375.143Z" fill="#1D2B4F"/>
<rect x="674" y="198" width="4" height="160" fill="#06A77D"/>
<rect x="680" y="311" width="4" height="47" fill="#FF8080"/>
<path d="M621.343 365.545H619.93V372.489H619.842L615.032 365.545H613.712V375H615.138V368.066H615.226L620.032 375H621.343V365.545ZM626.3 375.143C628.298 375.143 629.605 373.68 629.605 371.487C629.605 369.28 628.298 367.817 626.3 367.817C624.301 367.817 622.994 369.28 622.994 371.487C622.994 373.68 624.301 375.143 626.3 375.143ZM626.304 373.984C624.998 373.984 624.388 372.844 624.388 371.482C624.388 370.125 624.998 368.971 626.304 368.971C627.601 368.971 628.211 370.125 628.211 371.482C628.211 372.844 627.601 373.984 626.304 373.984ZM636.958 367.909H635.476L633.685 373.366H633.611L631.815 367.909H630.333L632.909 375H634.386L636.958 367.909Z" fill="#1D2B4F"/>
<rect x="620" y="231" width="4" height="127" fill="#06A77D"/>
<rect x="626" y="278" width="4" height="80" fill="#FF8080"/>
</svg>
