<svg width="360" height="315" viewBox="0 0 360 315" fill="none" xmlns="http://www.w3.org/2000/svg">
<rect y="0.494141" width="360" height="314" rx="8" fill="white"/>
<path d="M25.1378 42.4941H27.9055V38.2498H30.2322C33.2429 38.2498 34.9943 36.4537 34.9943 33.8393C34.9943 31.2377 33.2749 29.4032 30.3026 29.4032H25.1378V42.4941ZM27.9055 36.0318V31.666H29.772C31.37 31.666 32.1435 32.5353 32.1435 33.8393C32.1435 35.1369 31.37 36.0318 29.7848 36.0318H27.9055ZM39.277 42.6795C40.728 42.6795 41.6676 42.0467 42.147 41.1326H42.2237V42.4941H44.8061V35.872C44.8061 33.5325 42.8246 32.5481 40.6385 32.5481C38.2862 32.5481 36.7393 33.6731 36.3622 35.4629L38.8807 35.6674C39.0661 35.0154 39.6477 34.536 40.6257 34.536C41.5526 34.536 42.0831 35.0027 42.0831 35.8081V35.8464C42.0831 36.4792 41.4119 36.5623 39.7053 36.7285C37.7621 36.9075 36.017 37.5595 36.017 39.752C36.017 41.6951 37.4041 42.6795 39.277 42.6795ZM40.0568 40.8002C39.2195 40.8002 38.6186 40.4103 38.6186 39.6625C38.6186 38.8954 39.2514 38.5183 40.2102 38.3841C40.8047 38.301 41.7763 38.1603 42.1023 37.943V38.9849C42.1023 40.014 41.2521 40.8002 40.0568 40.8002ZM52.141 32.676H50.2937V30.3237H47.5707V32.676H46.2283V34.7214H47.5707V39.835C47.5579 41.7591 48.8683 42.7115 50.8434 42.6284C51.5465 42.6028 52.0451 42.4622 52.32 42.3727L51.8917 40.3464C51.7575 40.372 51.4698 40.4359 51.2141 40.4359C50.6708 40.4359 50.2937 40.2314 50.2937 39.4771V34.7214H52.141V32.676ZM53.9148 42.4941H56.6378V32.676H53.9148V42.4941ZM55.2827 31.4103C56.0945 31.4103 56.7592 30.7903 56.7592 30.0297C56.7592 29.2754 56.0945 28.6554 55.2827 28.6554C54.4773 28.6554 53.8125 29.2754 53.8125 30.0297C53.8125 30.7903 54.4773 31.4103 55.2827 31.4103ZM63.2935 42.6859C65.7225 42.6859 67.3588 41.5034 67.7424 39.6816L65.2239 39.5154C64.949 40.2633 64.2459 40.6532 63.3382 40.6532C61.9767 40.6532 61.1138 39.752 61.1138 38.2882V38.2818H67.7999V37.5339C67.7999 34.1973 65.78 32.5481 63.1848 32.5481C60.2956 32.5481 58.4228 34.6 58.4228 37.6298C58.4228 40.7427 60.2701 42.6859 63.2935 42.6859ZM61.1138 36.5943C61.1713 35.4757 62.0215 34.5808 63.2296 34.5808C64.4121 34.5808 65.2303 35.4245 65.2367 36.5943H61.1138ZM72.2999 36.818C72.3063 35.5524 73.0605 34.8109 74.16 34.8109C75.253 34.8109 75.9114 35.5268 75.905 36.7285V42.4941H78.628V36.2427C78.628 33.9544 77.2857 32.5481 75.2402 32.5481C73.7828 32.5481 72.7282 33.264 72.2871 34.4082H72.1721V32.676H69.5769V42.4941H72.2999V36.818ZM85.9964 32.676H84.1491V30.3237H81.4261V32.676H80.0838V34.7214H81.4261V39.835C81.4134 41.7591 82.7237 42.7115 84.6989 42.6284C85.402 42.6028 85.9006 42.4622 86.1754 42.3727L85.7472 40.3464C85.6129 40.372 85.3253 40.4359 85.0696 40.4359C84.5263 40.4359 84.1491 40.2314 84.1491 39.4771V34.7214H85.9964V32.676ZM95.7987 35.4757C95.5558 33.6667 94.0984 32.5481 91.6183 32.5481C89.1062 32.5481 87.4506 33.7115 87.457 35.6035C87.4506 37.0737 88.3775 38.0261 90.2951 38.4096L91.9954 38.7484C92.8519 38.921 93.2418 39.2342 93.2546 39.7264C93.2418 40.3081 92.609 40.7235 91.6566 40.7235C90.685 40.7235 90.0394 40.3081 89.8732 39.5091L87.195 39.6497C87.4506 41.5289 89.0487 42.6859 91.6502 42.6859C94.1942 42.6859 96.016 41.3883 96.0224 39.4515C96.016 38.0325 95.0891 37.1824 93.1843 36.7924L91.4073 36.4345C90.4933 36.2363 90.1545 35.9231 90.1609 35.4501C90.1545 34.862 90.8192 34.4785 91.663 34.4785C92.609 34.4785 93.1715 34.9963 93.3058 35.6291L95.7987 35.4757ZM101.954 42.4941H104.639V40.9217H104.76C105.137 41.7399 105.962 42.6539 107.547 42.6539C109.784 42.6539 111.529 40.8833 111.529 37.5978C111.529 34.2228 109.708 32.5481 107.554 32.5481C105.911 32.5481 105.125 33.5261 104.76 34.3251H104.677V29.4032H101.954V42.4941ZM104.62 37.585C104.62 35.8336 105.361 34.715 106.684 34.715C108.033 34.715 108.749 35.8848 108.749 37.585C108.749 39.2981 108.02 40.487 106.684 40.487C105.374 40.487 104.62 39.3365 104.62 37.585ZM114.694 46.176C116.72 46.176 117.794 45.1404 118.35 43.5552L122.166 32.6887L119.283 32.676L117.231 39.8862H117.129L115.096 32.676H112.233L115.755 42.7754L115.595 43.1909C115.237 44.1113 114.553 44.1561 113.594 43.862L112.98 45.8947C113.37 46.0609 114.003 46.176 114.694 46.176ZM136.457 33.6348H139.269C138.911 31.046 136.629 29.2243 133.67 29.2243C130.212 29.2243 127.546 31.7172 127.546 35.9615C127.546 40.1035 130.039 42.6731 133.727 42.6731C137.032 42.6731 139.391 40.5829 139.391 37.1376V35.4885H133.913V37.5723H136.725C136.687 39.1958 135.581 40.225 133.74 40.225C131.663 40.225 130.352 38.6717 130.352 35.9359C130.352 33.2129 131.714 31.6724 133.715 31.6724C135.14 31.6724 136.105 32.4075 136.457 33.6348ZM145.893 42.6859C148.322 42.6859 149.958 41.5034 150.342 39.6816L147.824 39.5154C147.549 40.2633 146.846 40.6532 145.938 40.6532C144.576 40.6532 143.713 39.752 143.713 38.2882V38.2818H150.4V37.5339C150.4 34.1973 148.38 32.5481 145.784 32.5481C142.895 32.5481 141.022 34.6 141.022 37.6298C141.022 40.7427 142.87 42.6859 145.893 42.6859ZM143.713 36.5943C143.771 35.4757 144.621 34.5808 145.829 34.5808C147.012 34.5808 147.83 35.4245 147.836 36.5943H143.713ZM154.9 36.818C154.906 35.5524 155.66 34.8109 156.76 34.8109C157.853 34.8109 158.511 35.5268 158.505 36.7285V42.4941H161.228V36.2427C161.228 33.9544 159.885 32.5481 157.84 32.5481C156.382 32.5481 155.328 33.264 154.887 34.4082H154.772V32.676H152.176V42.4941H154.9V36.818ZM166.992 42.6539C168.577 42.6539 169.401 41.7399 169.779 40.9217H169.894V42.4941H172.578V29.4032H169.862V34.3251H169.779C169.414 33.5261 168.628 32.5481 166.985 32.5481C164.831 32.5481 163.009 34.2228 163.009 37.5978C163.009 40.8833 164.754 42.6539 166.992 42.6539ZM167.855 40.487C166.519 40.487 165.79 39.2981 165.79 37.585C165.79 35.8848 166.506 34.715 167.855 34.715C169.178 34.715 169.919 35.8336 169.919 37.585C169.919 39.3365 169.165 40.487 167.855 40.487ZM179.292 42.6859C181.721 42.6859 183.357 41.5034 183.74 39.6816L181.222 39.5154C180.947 40.2633 180.244 40.6532 179.336 40.6532C177.975 40.6532 177.112 39.752 177.112 38.2882V38.2818H183.798V37.5339C183.798 34.1973 181.778 32.5481 179.183 32.5481C176.294 32.5481 174.421 34.6 174.421 37.6298C174.421 40.7427 176.268 42.6859 179.292 42.6859ZM177.112 36.5943C177.169 35.4757 178.02 34.5808 179.228 34.5808C180.41 34.5808 181.228 35.4245 181.235 36.5943H177.112ZM185.575 42.4941H188.298V36.9395C188.298 35.7314 189.18 34.9004 190.382 34.9004C190.759 34.9004 191.277 34.9643 191.532 35.0474V32.6312C191.289 32.5737 190.951 32.5353 190.676 32.5353C189.576 32.5353 188.675 33.1745 188.317 34.389H188.215V32.676H185.575V42.4941Z" fill="#1D2B4F"/>
<path d="M240.676 31.9061H243.878V40.9941H245.111V31.9061H248.312V30.8123H240.676V31.9061ZM251.23 36.4004C251.23 35.068 252.08 34.3123 253.238 34.3123C254.342 34.3123 255.008 35.0083 255.008 36.2214V40.9941H256.181V36.1419C256.181 34.1781 255.137 33.2583 253.576 33.2583C252.373 33.2583 251.687 33.7605 251.329 34.551H251.23V30.8123H250.056V40.9941H251.23V36.4004ZM258.328 40.9941H259.501V33.3578H258.328V40.9941ZM258.924 32.085C259.382 32.085 259.76 31.7271 259.76 31.2896C259.76 30.8521 259.382 30.4941 258.924 30.4941C258.467 30.4941 258.089 30.8521 258.089 31.2896C258.089 31.7271 258.467 32.085 258.924 32.085ZM267.059 35.068C266.691 33.9842 265.866 33.2583 264.355 33.2583C262.744 33.2583 261.551 34.1731 261.551 35.4657C261.551 36.5197 262.177 37.2257 263.579 37.5538L264.852 37.8521C265.622 38.0311 265.985 38.399 265.985 38.926C265.985 39.5822 265.289 40.1191 264.195 40.1191C263.236 40.1191 262.634 39.7065 262.426 38.8862L261.312 39.1646C261.585 40.4622 262.654 41.1532 264.215 41.1532C265.99 41.1532 267.198 40.1838 267.198 38.8663C267.198 37.8024 266.532 37.1312 265.17 36.7981L264.036 36.5197C263.132 36.296 262.724 35.9927 262.724 35.4061C262.724 34.7498 263.42 34.2725 264.355 34.2725C265.379 34.2725 265.801 34.8393 266.005 35.3663L267.059 35.068Z" fill="#8692A6"/>
<path d="M271.976 40.9941H274.094V36.4103C274.094 35.5652 274.631 35.0034 275.337 35.0034C276.033 35.0034 276.5 35.4806 276.5 36.2314V40.9941H278.553V36.3308C278.553 35.5403 279.006 35.0034 279.776 35.0034C280.453 35.0034 280.96 35.426 280.96 36.2761V40.9941H283.073V35.8585C283.073 34.2029 282.088 33.2583 280.666 33.2583C279.548 33.2583 278.678 33.8301 278.365 34.7051H278.285C278.041 33.8201 277.261 33.2583 276.212 33.2583C275.183 33.2583 274.402 33.8052 274.084 34.7051H273.994V33.3578H271.976V40.9941ZM288.196 41.1433C290.513 41.1433 291.954 39.5574 291.954 37.2058C291.954 34.8393 290.513 33.2583 288.196 33.2583C285.879 33.2583 284.437 34.8393 284.437 37.2058C284.437 39.5574 285.879 41.1433 288.196 41.1433ZM288.206 39.5027C287.137 39.5027 286.59 38.5233 286.59 37.1909C286.59 35.8585 287.137 34.8741 288.206 34.8741C289.255 34.8741 289.802 35.8585 289.802 37.1909C289.802 38.5233 289.255 39.5027 288.206 39.5027ZM295.449 36.5794C295.454 35.595 296.041 35.0183 296.896 35.0183C297.746 35.0183 298.258 35.5751 298.253 36.5098V40.9941H300.371V36.1319C300.371 34.3521 299.327 33.2583 297.736 33.2583C296.603 33.2583 295.782 33.8152 295.439 34.7051H295.35V33.3578H293.331V40.9941H295.449V36.5794ZM306.102 33.3578H304.665V31.5282H302.548V33.3578H301.504V34.9487H302.548V38.926C302.538 40.4224 303.557 41.1632 305.093 41.0985C305.64 41.0787 306.028 40.9693 306.241 40.8997L305.908 39.3237C305.804 39.3436 305.58 39.3933 305.381 39.3933C304.959 39.3933 304.665 39.2342 304.665 38.6475V34.9487H306.102V33.3578ZM309.764 36.5794C309.769 35.595 310.37 35.0183 311.235 35.0183C312.096 35.0183 312.603 35.5701 312.598 36.5098V40.9941H314.716V36.1319C314.721 34.3422 313.667 33.2583 312.076 33.2583C310.917 33.2583 310.142 33.8052 309.794 34.7051H309.704V30.8123H307.646V40.9941H309.764V36.5794Z" fill="#40A3F8"/>
<path opacity="0.8" d="M326 32.6657L331 38.3226L336 32.6657" stroke="#40A3F8" stroke-width="3"/>
<path d="M24 62.4941H72" stroke="#40A3F8" stroke-width="3"/>
<circle cx="102" cy="173" r="74.904" stroke="#00CFDE" stroke-width="6.192"/>
<path d="M67.6378 102.977C57.8966 107.757 49.26 114.517 42.28 122.825C35.3 131.133 30.1301 140.806 27.101 151.225C24.0718 161.645 23.25 172.582 24.688 183.337C26.126 194.092 29.7922 204.429 35.4522 213.687C41.1123 222.944 48.6416 230.919 57.559 237.101C66.4764 243.284 76.5857 247.538 87.2405 249.591C97.8953 251.644 108.861 251.452 119.438 249.026C130.014 246.6 139.968 241.994 148.663 235.503L144.827 230.366C136.847 236.323 127.711 240.551 118.004 242.777C108.297 245.004 98.2327 245.18 88.4536 243.296C78.6745 241.411 69.3962 237.507 61.2118 231.833C53.0273 226.159 46.1168 218.839 40.9219 210.342C35.7271 201.846 32.3622 192.358 31.0424 182.487C29.7226 172.616 30.4769 162.578 33.2571 153.015C36.0373 143.452 40.7822 134.574 47.1885 126.949C53.5948 119.324 61.5216 113.12 70.4621 108.732L67.6378 102.977Z" fill="#20CB85"/>
<path d="M61.6522 239.754C72.4509 246.281 84.6719 250.091 97.2667 250.856C109.862 251.622 122.454 249.321 133.964 244.15C145.474 238.979 155.557 231.093 163.35 221.169C171.142 211.244 176.41 199.577 178.702 187.169L172.398 186.005C170.294 197.393 165.459 208.101 158.307 217.209C151.155 226.318 141.901 233.556 131.337 238.302C120.773 243.048 109.215 245.16 97.6558 244.457C86.0962 243.754 74.8796 240.258 64.9685 234.267L61.6522 239.754Z" fill="#5A5EED"/>
<path d="M143.277 106.817C132.134 99.8671 119.416 95.8435 106.304 95.1188C93.1916 94.3942 80.1085 96.992 68.2676 102.671L71.0402 108.452C81.9078 103.239 93.9156 100.855 105.95 101.52C117.985 102.185 129.657 105.878 139.884 112.256L143.277 106.817Z" fill="#FF8080"/>
<path d="M54.2869 169H67.2074V165.599H60.1335V165.489L62.2216 163.562C66.0057 160.264 66.9943 158.585 66.9943 156.582C66.9943 153.438 64.429 151.307 60.4659 151.307C56.6051 151.307 54.0227 153.531 54.0312 157.085H58.0284C58.0284 155.509 59 154.597 60.4489 154.597C61.8722 154.597 62.9034 155.474 62.9034 156.915C62.9034 158.219 62.0852 159.105 60.6534 160.392L54.2869 165.966V169ZM77.6626 151.545H73.7507L69.4467 154.222V157.869L73.3501 155.483H73.4524V169H77.6626V151.545ZM81.5213 169H94.4418V165.599H87.3679V165.489L89.456 163.562C93.2401 160.264 94.2287 158.585 94.2287 156.582C94.2287 153.438 91.6634 151.307 87.7003 151.307C83.8395 151.307 81.2571 153.531 81.2656 157.085H85.2628C85.2628 155.509 86.2344 154.597 87.6832 154.597C89.1065 154.597 90.1378 155.474 90.1378 156.915C90.1378 158.219 89.3196 159.105 87.8878 160.392L81.5213 165.966V169ZM101.113 166.614H97.8402L97.8232 167.568C97.772 169.886 97.0476 172.29 96.7834 173.261H99.4084C99.8175 172.273 100.832 169.92 101.036 167.56L101.113 166.614ZM110.403 169.239C114.494 169.239 117.4 167.074 117.391 164.04C117.4 161.892 115.994 160.358 113.3 160.043V159.906C115.32 159.616 116.752 158.261 116.744 156.301C116.752 153.455 114.178 151.307 110.437 151.307C106.67 151.307 103.925 153.489 103.891 156.591H107.923C107.957 155.398 109.031 154.597 110.437 154.597C111.775 154.597 112.687 155.406 112.678 156.574C112.687 157.784 111.613 158.619 110.062 158.619H108.366V161.619H110.062C111.826 161.619 112.977 162.489 112.96 163.716C112.977 164.952 111.92 165.812 110.42 165.812C108.928 165.812 107.829 165.02 107.786 163.869H103.542C103.576 167.023 106.414 169.239 110.403 169.239ZM119.558 166.102H127.987V169H132.018V166.102H134.107V162.778H132.018V151.545H126.709L119.558 162.812V166.102ZM128.072 162.778H123.751V162.642L127.936 156.011H128.072V162.778ZM143 169.239C147.065 169.239 149.776 166.682 149.776 163.085C149.776 159.761 147.457 157.392 144.321 157.392C142.668 157.392 141.295 158.099 140.716 159.062H140.614L141.014 154.946H148.744V151.545H137.545L136.787 160.955L140.511 161.653C140.98 160.869 141.952 160.384 142.974 160.392C144.577 160.392 145.719 161.526 145.71 163.205C145.719 164.875 144.594 166 143 166C141.645 166 140.528 165.156 140.469 163.869H136.378C136.429 167.006 139.182 169.239 143 169.239Z" fill="#1D2B4F"/>
<path d="M71.4091 194H72.8182V189.75H75.3636C78.0739 189.75 79.2955 188.102 79.2955 186.045C79.2955 183.989 78.0739 182.364 75.3409 182.364H71.4091V194ZM72.8182 188.5V183.614H75.2955C77.1875 183.614 77.9091 184.648 77.9091 186.045C77.9091 187.443 77.1875 188.5 75.3182 188.5H72.8182ZM83.9517 194.205C85.4744 194.205 86.2699 193.386 86.5426 192.818H86.6108V194H87.9517V188.25C87.9517 185.477 85.8381 185.159 84.7244 185.159C83.4062 185.159 81.9062 185.614 81.2244 187.205L82.4972 187.659C82.7926 187.023 83.4915 186.341 84.7699 186.341C86.0028 186.341 86.6108 186.994 86.6108 188.114V188.159C86.6108 188.807 85.9517 188.75 84.3608 188.955C82.7415 189.165 80.9744 189.523 80.9744 191.523C80.9744 193.227 82.2926 194.205 83.9517 194.205ZM84.1562 193C83.0881 193 82.3153 192.523 82.3153 191.591C82.3153 190.568 83.2472 190.25 84.2926 190.114C84.8608 190.045 86.3835 189.886 86.6108 189.614V190.841C86.6108 191.932 85.7472 193 84.1562 193ZM94.1946 185.273H92.331V183.182H90.9901V185.273H89.6719V186.409H90.9901V191.864C90.9901 193.386 92.2173 194.114 93.3537 194.114C93.8537 194.114 94.1719 194.023 94.3537 193.955L94.081 192.75C93.9673 192.773 93.7855 192.818 93.4901 192.818C92.8991 192.818 92.331 192.636 92.331 191.5V186.409H94.1946V185.273ZM96.2116 194H97.5526V185.273H96.2116V194ZM96.8935 183.818C97.4162 183.818 97.848 183.409 97.848 182.909C97.848 182.409 97.4162 182 96.8935 182C96.3707 182 95.9389 182.409 95.9389 182.909C95.9389 183.409 96.3707 183.818 96.8935 183.818ZM103.668 194.182C105.44 194.182 106.736 193.295 107.145 191.977L105.849 191.614C105.509 192.523 104.719 192.977 103.668 192.977C102.094 192.977 101.009 191.96 100.946 190.091H107.281V189.523C107.281 186.273 105.349 185.159 103.531 185.159C101.168 185.159 99.5994 187.023 99.5994 189.705C99.5994 192.386 101.145 194.182 103.668 194.182ZM100.946 188.932C101.037 187.574 101.997 186.364 103.531 186.364C104.986 186.364 105.918 187.455 105.918 188.932H100.946ZM110.662 188.75C110.662 187.227 111.605 186.364 112.889 186.364C114.134 186.364 114.889 187.176 114.889 188.545V194H116.23V188.455C116.23 186.227 115.043 185.159 113.276 185.159C111.957 185.159 111.139 185.75 110.73 186.636H110.616V185.273H109.321V194H110.662V188.75ZM122.476 185.273H120.612V183.182H119.271V185.273H117.953V186.409H119.271V191.864C119.271 193.386 120.499 194.114 121.635 194.114C122.135 194.114 122.453 194.023 122.635 193.955L122.362 192.75C122.249 192.773 122.067 192.818 121.771 192.818C121.18 192.818 120.612 192.636 120.612 191.5V186.409H122.476V185.273ZM130.518 187.227C130.098 185.989 129.155 185.159 127.428 185.159C125.587 185.159 124.223 186.205 124.223 187.682C124.223 188.886 124.939 189.693 126.541 190.068L127.996 190.409C128.876 190.614 129.291 191.034 129.291 191.636C129.291 192.386 128.496 193 127.246 193C126.149 193 125.462 192.528 125.223 191.591L123.95 191.909C124.263 193.392 125.484 194.182 127.268 194.182C129.297 194.182 130.678 193.074 130.678 191.568C130.678 190.352 129.916 189.585 128.359 189.205L127.064 188.886C126.03 188.631 125.564 188.284 125.564 187.614C125.564 186.864 126.359 186.318 127.428 186.318C128.598 186.318 129.081 186.966 129.314 187.568L130.518 187.227Z" fill="#8692A6"/>
<circle cx="208" cy="125" r="4" fill="#20CB85"/>
<path d="M221.409 119.364V131H222.727V122.159H222.841L226.477 131H227.75L231.386 122.159H231.5V131H232.818V119.364H231.136L227.182 129.023H227.045L223.091 119.364H221.409ZM238.03 131.205C239.553 131.205 240.348 130.386 240.621 129.818H240.689V131H242.03V125.25C242.03 122.477 239.916 122.159 238.803 122.159C237.484 122.159 235.984 122.614 235.303 124.205L236.575 124.659C236.871 124.023 237.57 123.341 238.848 123.341C240.081 123.341 240.689 123.994 240.689 125.114V125.159C240.689 125.807 240.03 125.75 238.439 125.955C236.82 126.165 235.053 126.523 235.053 128.523C235.053 130.227 236.371 131.205 238.03 131.205ZM238.234 130C237.166 130 236.393 129.523 236.393 128.591C236.393 127.568 237.325 127.25 238.371 127.114C238.939 127.045 240.462 126.886 240.689 126.614V127.841C240.689 128.932 239.825 130 238.234 130ZM245.818 119.364H244.477V131H245.818V119.364ZM251.933 131.182C253.706 131.182 255.001 130.295 255.411 128.977L254.115 128.614C253.774 129.523 252.984 129.977 251.933 129.977C250.359 129.977 249.274 128.96 249.212 127.091H255.547V126.523C255.547 123.273 253.615 122.159 251.797 122.159C249.433 122.159 247.865 124.023 247.865 126.705C247.865 129.386 249.411 131.182 251.933 131.182ZM249.212 125.932C249.303 124.574 250.263 123.364 251.797 123.364C253.251 123.364 254.183 124.455 254.183 125.932H249.212Z" fill="#1D2B4F"/>
<circle cx="208" cy="157" r="4" fill="#5A5EED"/>
<path d="M221.409 163H222.818V157.795H227.864V156.545H222.818V152.614H228.386V151.364H221.409V163ZM233.636 163.182C235.409 163.182 236.705 162.295 237.114 160.977L235.818 160.614C235.477 161.523 234.688 161.977 233.636 161.977C232.062 161.977 230.977 160.96 230.915 159.091H237.25V158.523C237.25 155.273 235.318 154.159 233.5 154.159C231.136 154.159 229.568 156.023 229.568 158.705C229.568 161.386 231.114 163.182 233.636 163.182ZM230.915 157.932C231.006 156.574 231.966 155.364 233.5 155.364C234.955 155.364 235.886 156.455 235.886 157.932H230.915ZM239.29 163H240.631V157.545C240.631 156.267 241.562 155.364 242.608 155.364C243.625 155.364 244.335 156.028 244.335 157.023V163H245.699V157.318C245.699 156.193 246.403 155.364 247.631 155.364C248.585 155.364 249.403 155.869 249.403 157.159V163H250.744V157.159C250.744 155.108 249.642 154.159 248.085 154.159C246.835 154.159 245.92 154.733 245.472 155.636H245.381C244.949 154.705 244.188 154.159 243.04 154.159C241.903 154.159 241.062 154.705 240.699 155.636H240.585V154.273H239.29V163ZM255.764 163.205C257.287 163.205 258.082 162.386 258.355 161.818H258.423V163H259.764V157.25C259.764 154.477 257.651 154.159 256.537 154.159C255.219 154.159 253.719 154.614 253.037 156.205L254.31 156.659C254.605 156.023 255.304 155.341 256.582 155.341C257.815 155.341 258.423 155.994 258.423 157.114V157.159C258.423 157.807 257.764 157.75 256.173 157.955C254.554 158.165 252.787 158.523 252.787 160.523C252.787 162.227 254.105 163.205 255.764 163.205ZM255.969 162C254.901 162 254.128 161.523 254.128 160.591C254.128 159.568 255.06 159.25 256.105 159.114C256.673 159.045 258.196 158.886 258.423 158.614V159.841C258.423 160.932 257.56 162 255.969 162ZM263.553 151.364H262.212V163H263.553V151.364ZM269.668 163.182C271.44 163.182 272.736 162.295 273.145 160.977L271.849 160.614C271.509 161.523 270.719 161.977 269.668 161.977C268.094 161.977 267.009 160.96 266.946 159.091H273.281V158.523C273.281 155.273 271.349 154.159 269.531 154.159C267.168 154.159 265.599 156.023 265.599 158.705C265.599 161.386 267.145 163.182 269.668 163.182ZM266.946 157.932C267.037 156.574 267.997 155.364 269.531 155.364C270.986 155.364 271.918 156.455 271.918 157.932H266.946Z" fill="#1D2B4F"/>
<circle cx="208" cy="189" r="4" fill="#00CFDE"/>
<path d="M220.773 184.614H224.432V195H225.841V184.614H229.5V183.364H220.773V184.614ZM230.587 195H231.928V189.477C231.928 188.295 232.859 187.432 234.132 187.432C234.49 187.432 234.859 187.5 234.95 187.523V186.159C234.797 186.148 234.445 186.136 234.246 186.136C233.2 186.136 232.291 186.727 231.973 187.591H231.882V186.273H230.587V195ZM239.108 195.205C240.631 195.205 241.426 194.386 241.699 193.818H241.767V195H243.108V189.25C243.108 186.477 240.994 186.159 239.881 186.159C238.562 186.159 237.062 186.614 236.381 188.205L237.653 188.659C237.949 188.023 238.648 187.341 239.926 187.341C241.159 187.341 241.767 187.994 241.767 189.114V189.159C241.767 189.807 241.108 189.75 239.517 189.955C237.898 190.165 236.131 190.523 236.131 192.523C236.131 194.227 237.449 195.205 239.108 195.205ZM239.312 194C238.244 194 237.472 193.523 237.472 192.591C237.472 191.568 238.403 191.25 239.449 191.114C240.017 191.045 241.54 190.886 241.767 190.614V191.841C241.767 192.932 240.903 194 239.312 194ZM246.896 189.75C246.896 188.227 247.839 187.364 249.124 187.364C250.368 187.364 251.124 188.176 251.124 189.545V195H252.464V189.455C252.464 187.227 251.277 186.159 249.51 186.159C248.192 186.159 247.374 186.75 246.964 187.636H246.851V186.273H245.555V195H246.896V189.75ZM261.097 188.227C260.676 186.989 259.733 186.159 258.006 186.159C256.165 186.159 254.801 187.205 254.801 188.682C254.801 189.886 255.517 190.693 257.119 191.068L258.574 191.409C259.455 191.614 259.869 192.034 259.869 192.636C259.869 193.386 259.074 194 257.824 194C256.727 194 256.04 193.528 255.801 192.591L254.528 192.909C254.841 194.392 256.062 195.182 257.847 195.182C259.875 195.182 261.256 194.074 261.256 192.568C261.256 191.352 260.494 190.585 258.938 190.205L257.642 189.886C256.608 189.631 256.142 189.284 256.142 188.614C256.142 187.864 256.938 187.318 258.006 187.318C259.176 187.318 259.659 187.966 259.892 188.568L261.097 188.227ZM266.797 198.455C268.888 198.455 270.57 197.5 270.57 195.25V186.273H269.274V187.659H269.138C268.842 187.205 268.297 186.159 266.592 186.159C264.388 186.159 262.865 187.909 262.865 190.591C262.865 193.318 264.456 194.864 266.57 194.864C268.274 194.864 268.82 193.864 269.115 193.386H269.229V195.159C269.229 196.614 268.206 197.273 266.797 197.273C265.212 197.273 264.655 196.438 264.297 195.955L263.229 196.705C263.774 197.619 264.848 198.455 266.797 198.455ZM266.751 193.659C265.07 193.659 264.206 192.386 264.206 190.568C264.206 188.795 265.047 187.364 266.751 187.364C268.388 187.364 269.251 188.682 269.251 190.568C269.251 192.5 268.365 193.659 266.751 193.659ZM276.683 195.182C278.456 195.182 279.751 194.295 280.161 192.977L278.865 192.614C278.524 193.523 277.734 193.977 276.683 193.977C275.109 193.977 274.024 192.96 273.962 191.091H280.297V190.523C280.297 187.273 278.365 186.159 276.547 186.159C274.183 186.159 272.615 188.023 272.615 190.705C272.615 193.386 274.161 195.182 276.683 195.182ZM273.962 189.932C274.053 188.574 275.013 187.364 276.547 187.364C278.001 187.364 278.933 188.455 278.933 189.932H273.962ZM283.678 189.75C283.678 188.227 284.621 187.364 285.905 187.364C287.149 187.364 287.905 188.176 287.905 189.545V195H289.246V189.455C289.246 187.227 288.058 186.159 286.291 186.159C284.973 186.159 284.155 186.75 283.746 187.636H283.632V186.273H282.337V195H283.678V189.75ZM294.991 195.182C296.673 195.182 297.241 194.136 297.537 193.659H297.696V195H298.991V183.364H297.651V187.659H297.537C297.241 187.205 296.719 186.159 295.014 186.159C292.81 186.159 291.287 187.909 291.287 190.659C291.287 193.432 292.81 195.182 294.991 195.182ZM295.173 193.977C293.491 193.977 292.628 192.5 292.628 190.636C292.628 188.795 293.469 187.364 295.173 187.364C296.81 187.364 297.673 188.682 297.673 190.636C297.673 192.614 296.787 193.977 295.173 193.977ZM305.293 195.182C307.065 195.182 308.361 194.295 308.77 192.977L307.474 192.614C307.134 193.523 306.344 193.977 305.293 193.977C303.719 193.977 302.634 192.96 302.571 191.091H308.906V190.523C308.906 187.273 306.974 186.159 305.156 186.159C302.793 186.159 301.224 188.023 301.224 190.705C301.224 193.386 302.77 195.182 305.293 195.182ZM302.571 189.932C302.662 188.574 303.622 187.364 305.156 187.364C306.611 187.364 307.543 188.455 307.543 189.932H302.571ZM310.946 195H312.287V189.477C312.287 188.295 313.219 187.432 314.491 187.432C314.849 187.432 315.219 187.5 315.31 187.523V186.159C315.156 186.148 314.804 186.136 314.605 186.136C313.56 186.136 312.651 186.727 312.332 187.591H312.241V186.273H310.946V195Z" fill="#1D2B4F"/>
<circle cx="208" cy="221" r="4" fill="#FF8080"/>
<path d="M231.227 221.182C231.227 217.5 229.068 215.205 226.091 215.205C223.114 215.205 220.955 217.5 220.955 221.182C220.955 224.864 223.114 227.159 226.091 227.159C229.068 227.159 231.227 224.864 231.227 221.182ZM229.864 221.182C229.864 224.205 228.205 225.841 226.091 225.841C223.977 225.841 222.318 224.205 222.318 221.182C222.318 218.159 223.977 216.523 226.091 216.523C228.205 216.523 229.864 218.159 229.864 221.182ZM237.21 218.273H235.347V216.182H234.006V218.273H232.688V219.409H234.006V224.864C234.006 226.386 235.233 227.114 236.369 227.114C236.869 227.114 237.188 227.023 237.369 226.955L237.097 225.75C236.983 225.773 236.801 225.818 236.506 225.818C235.915 225.818 235.347 225.636 235.347 224.5V219.409H237.21V218.273ZM240.756 221.75C240.756 220.227 241.727 219.364 243.051 219.364C244.312 219.364 245.074 220.159 245.074 221.545V227H246.415V221.455C246.415 219.21 245.222 218.159 243.438 218.159C242.062 218.159 241.278 218.733 240.869 219.636H240.756V215.364H239.415V227H240.756V221.75ZM252.527 227.182C254.3 227.182 255.595 226.295 256.004 224.977L254.709 224.614C254.368 225.523 253.578 225.977 252.527 225.977C250.953 225.977 249.868 224.96 249.805 223.091H256.141V222.523C256.141 219.273 254.209 218.159 252.391 218.159C250.027 218.159 248.459 220.023 248.459 222.705C248.459 225.386 250.004 227.182 252.527 227.182ZM249.805 221.932C249.896 220.574 250.857 219.364 252.391 219.364C253.845 219.364 254.777 220.455 254.777 221.932H249.805ZM258.18 227H259.521V221.477C259.521 220.295 260.453 219.432 261.726 219.432C262.084 219.432 262.453 219.5 262.544 219.523V218.159C262.391 218.148 262.038 218.136 261.839 218.136C260.794 218.136 259.885 218.727 259.567 219.591H259.476V218.273H258.18V227Z" fill="#1D2B4F"/>
</svg>
