<svg width="24" height="25" viewBox="0 0 24 25" fill="none" xmlns="http://www.w3.org/2000/svg">
<rect y="0.494141" width="24" height="24" rx="4" fill="#8692A6" fill-opacity="0.1"/>
<path fill-rule="evenodd" clip-rule="evenodd" d="M12.0007 19.0005C12.734 19.0005 13.334 18.4005 13.334 17.6672H10.6674C10.6674 18.4005 11.2607 19.0005 12.0007 19.0005ZM16.0005 15V11.6667C16.0005 9.62 14.9072 7.90667 13.0005 7.45333V7C13.0005 6.44667 12.5538 6 12.0005 6C11.4472 6 11.0005 6.44667 11.0005 7V7.45333C9.08718 7.90667 8.00051 9.61333 8.00051 11.6667V15L6.66718 16.3333V17H17.3338V16.3333L16.0005 15Z" fill="#40A3F8"/>
<path fill-rule="evenodd" clip-rule="evenodd" d="M16.6667 11.9997C18.1394 11.9997 19.3333 10.8058 19.3333 9.33308C19.3333 7.86032 18.1394 6.66641 16.6667 6.66641C15.1939 6.66641 14 7.86032 14 9.33308C14 10.8058 15.1939 11.9997 16.6667 11.9997Z" fill="#FF8080" stroke="white" stroke-width="1.2"/>
</svg>
