<svg width="50" height="50" viewBox="0 0 50 50" fill="none" xmlns="http://www.w3.org/2000/svg">
<rect width="50" height="50" rx="8" fill="#FFF9EA"/>
<path opacity="0.5" d="M34 23.2H16V31.3C16 32.0161 16.2845 32.7028 16.7908 33.2092C17.2972 33.7155 17.9839 34 18.7 34H31.3C32.0161 34 32.7028 33.7155 33.2092 33.2092C33.7155 32.7028 34 32.0161 34 31.3V23.2ZM20.5 21.4C20.2613 21.4 20.0324 21.3052 19.8636 21.1364C19.6948 20.9676 19.6 20.7387 19.6 20.5V16.9C19.6 16.6613 19.6948 16.4324 19.8636 16.2636C20.0324 16.0948 20.2613 16 20.5 16C20.7387 16 20.9676 16.0948 21.1364 16.2636C21.3052 16.4324 21.4 16.6613 21.4 16.9V20.5C21.4 20.7387 21.3052 20.9676 21.1364 21.1364C20.9676 21.3052 20.7387 21.4 20.5 21.4ZM29.5 21.4C29.2613 21.4 29.0324 21.3052 28.8636 21.1364C28.6948 20.9676 28.6 20.7387 28.6 20.5V16.9C28.6 16.6613 28.6948 16.4324 28.8636 16.2636C29.0324 16.0948 29.2613 16 29.5 16C29.7387 16 29.9676 16.0948 30.1364 16.2636C30.3052 16.4324 30.4 16.6613 30.4 16.9V20.5C30.4 20.7387 30.3052 20.9676 30.1364 21.1364C29.9676 21.3052 29.7387 21.4 29.5 21.4Z" fill="#FDB557"/>
<path d="M31.3 17.8H30.4V20.5C30.4 20.7387 30.3052 20.9676 30.1364 21.1364C29.9676 21.3052 29.7387 21.4 29.5 21.4C29.2613 21.4 29.0324 21.3052 28.8636 21.1364C28.6948 20.9676 28.6 20.7387 28.6 20.5V17.8H21.4V20.5C21.4 20.7387 21.3052 20.9676 21.1364 21.1364C20.9676 21.3052 20.7387 21.4 20.5 21.4C20.2613 21.4 20.0324 21.3052 19.8636 21.1364C19.6948 20.9676 19.6 20.7387 19.6 20.5V17.8H18.7C17.9839 17.8 17.2972 18.0845 16.7908 18.5908C16.2845 19.0971 16 19.7839 16 20.5V23.2H34V20.5C34 19.7839 33.7155 19.0971 33.2092 18.5908C32.7028 18.0845 32.0161 17.8 31.3 17.8Z" fill="#FDB557"/>
</svg>
