<svg width="19" height="18" viewBox="0 0 19 18" fill="none" xmlns="http://www.w3.org/2000/svg">
<path d="M18.8323 2.35403C18.8323 1.72971 18.5843 1.13095 18.1428 0.689481C17.7013 0.248014 17.1026 0 16.4782 0L2.35403 0C1.72971 0 1.13095 0.248014 0.689481 0.689481C0.248014 1.13095 0 1.72971 0 2.35403L0 11.7702C0 12.3945 0.248014 12.9933 0.689481 13.4347C1.13095 13.8762 1.72971 14.1242 2.35403 14.1242H13.6369C13.9491 14.1243 14.2484 14.2483 14.4691 14.4691L17.8271 17.8271C17.9093 17.9095 18.0142 17.9657 18.1284 17.9886C18.2426 18.0114 18.361 17.9999 18.4686 17.9554C18.5762 17.9109 18.6682 17.8355 18.7329 17.7387C18.7977 17.6419 18.8323 17.5281 18.8323 17.4116V2.35403ZM4.11956 3.53105H14.7127C14.8688 3.53105 15.0185 3.59306 15.1289 3.70342C15.2392 3.81379 15.3012 3.96348 15.3012 4.11956C15.3012 4.27564 15.2392 4.42533 15.1289 4.5357C15.0185 4.64607 14.8688 4.70807 14.7127 4.70807H4.11956C3.96348 4.70807 3.81379 4.64607 3.70342 4.5357C3.59306 4.42533 3.53105 4.27564 3.53105 4.11956C3.53105 3.96348 3.59306 3.81379 3.70342 3.70342C3.81379 3.59306 3.96348 3.53105 4.11956 3.53105ZM4.11956 6.47359H14.7127C14.8688 6.47359 15.0185 6.5356 15.1289 6.64597C15.2392 6.75633 15.3012 6.90602 15.3012 7.0621C15.3012 7.21819 15.2392 7.36787 15.1289 7.47824C15.0185 7.58861 14.8688 7.65061 14.7127 7.65061H4.11956C3.96348 7.65061 3.81379 7.58861 3.70342 7.47824C3.59306 7.36787 3.53105 7.21819 3.53105 7.0621C3.53105 6.90602 3.59306 6.75633 3.70342 6.64597C3.81379 6.5356 3.96348 6.47359 4.11956 6.47359ZM4.11956 9.41614H10.0046C10.1607 9.41614 10.3104 9.47814 10.4208 9.58851C10.5312 9.69887 10.5932 9.84856 10.5932 10.0046C10.5932 10.1607 10.5312 10.3104 10.4208 10.4208C10.3104 10.5312 10.1607 10.5932 10.0046 10.5932H4.11956C3.96348 10.5932 3.81379 10.5312 3.70342 10.4208C3.59306 10.3104 3.53105 10.1607 3.53105 10.0046C3.53105 9.84856 3.59306 9.69887 3.70342 9.58851C3.81379 9.47814 3.96348 9.41614 4.11956 9.41614Z" fill="white"/>
</svg>
