<svg width="17" height="17" viewBox="0 0 17 17" fill="none" xmlns="http://www.w3.org/2000/svg">
<path d="M6.68747 8.5C6.68747 8.96413 6.87184 9.40925 7.20003 9.73744C7.52822 10.0656 7.97334 10.25 8.43747 10.25C8.9016 10.25 9.34672 10.0656 9.67491 9.73744C10.0031 9.40925 10.1875 8.96413 10.1875 8.5C10.1875 8.03587 10.0031 7.59075 9.67491 7.26256C9.34672 6.93437 8.9016 6.75 8.43747 6.75C7.97334 6.75 7.52822 6.93437 7.20003 7.26256C6.87184 7.59075 6.68747 8.03587 6.68747 8.5ZM15.2218 8.09688C13.7406 4.97656 11.5015 3.40625 8.49997 3.40625C5.49684 3.40625 3.25934 4.97656 1.77809 8.09844C1.71868 8.22425 1.68787 8.36165 1.68787 8.50078C1.68787 8.63991 1.71868 8.77732 1.77809 8.90312C3.25934 12.0234 5.49841 13.5938 8.49997 13.5938C11.5031 13.5938 13.7406 12.0234 15.2218 8.90156C15.3422 8.64844 15.3422 8.35469 15.2218 8.09688ZM8.43747 11.25C6.91872 11.25 5.68747 10.0188 5.68747 8.5C5.68747 6.98125 6.91872 5.75 8.43747 5.75C9.95622 5.75 11.1875 6.98125 11.1875 8.5C11.1875 10.0188 9.95622 11.25 8.43747 11.25Z" fill="white"/>
</svg>
