<svg width="40" height="41" viewBox="0 0 40 41" fill="none" xmlns="http://www.w3.org/2000/svg">
<path d="M0 11.5095C0 7.69483 0 5.78752 0.730584 4.32539C1.40116 2.98336 2.48925 1.89527 3.83128 1.22469C5.29341 0.49411 7.20073 0.49411 11.0154 0.49411H28.9846C32.7993 0.49411 34.7066 0.49411 36.1687 1.22469C37.5107 1.89527 38.5988 2.98336 39.2694 4.32539C40 5.78752 40 7.69484 40 11.5095V29.4788C40 33.2934 40 35.2007 39.2694 36.6628C38.5988 38.0049 37.5107 39.093 36.1687 39.7635C34.7066 40.4941 32.7993 40.4941 28.9846 40.4941H11.0154C7.20072 40.4941 5.29341 40.4941 3.83128 39.7635C2.48925 39.093 1.40116 38.0049 0.730584 36.6628C0 35.2007 0 33.2934 0 29.4787V11.5095Z" fill="#00CFDE" fill-opacity="0.1"/>
<g clip-path="url(#clip0_21_470)">
<path d="M20.1249 8.49411C13.4291 8.49411 8 13.9232 8 20.619C8 27.3147 13.4291 32.7439 20.1249 32.7439C26.8206 32.7439 32.2498 27.3147 32.2498 20.619C32.2498 13.9232 26.8206 8.49411 20.1249 8.49411ZM20.1249 30.687C14.5658 30.687 10.0569 26.178 10.0569 20.619C10.0569 15.06 14.5658 10.551 20.1249 10.551C25.6839 10.551 30.1929 15.06 30.1929 20.619C30.1929 26.178 25.6839 30.687 20.1249 30.687Z" fill="#00CFDE"/>
<path d="M19 15.7932C19 16.1377 19.1369 16.4682 19.3805 16.7118C19.6241 16.9554 19.9546 17.0923 20.2991 17.0923C20.6436 17.0923 20.9741 16.9554 21.2177 16.7118C21.4613 16.4682 21.5982 16.1377 21.5982 15.7932C21.5982 15.4487 21.4613 15.1182 21.2177 14.8746C20.9741 14.631 20.6436 14.4941 20.2991 14.4941C19.9546 14.4941 19.6241 14.631 19.3805 14.8746C19.1369 15.1182 19 15.4487 19 15.7932ZM20.9486 18.8244H19.6495C19.5305 18.8244 19.433 18.9219 19.433 19.0409V26.4025C19.433 26.5216 19.5305 26.619 19.6495 26.619H20.9486C21.0677 26.619 21.1652 26.5216 21.1652 26.4025V19.0409C21.1652 18.9219 21.0677 18.8244 20.9486 18.8244Z" fill="#00CFDE"/>
</g>
<defs>
<clipPath id="clip0_21_470">
<rect width="24" height="24" fill="white" transform="translate(8 8.49414)"/>
</clipPath>
</defs>
</svg>
