<svg width="30" height="30" viewBox="0 0 30 30" fill="none" xmlns="http://www.w3.org/2000/svg">
<path d="M-1.31134e-06 15C-1.05198e-06 17.9667 0.879733 20.8668 2.52796 23.3336C4.17618 25.8003 6.51886 27.7229 9.25975 28.8582C12.0006 29.9935 15.0166 30.2906 17.9264 29.7118C20.8361 29.133 23.5088 27.7044 25.6066 25.6066C27.7044 23.5088 29.133 20.8361 29.7118 17.9264C30.2906 15.0166 29.9935 12.0006 28.8582 9.25975C27.7229 6.51886 25.8003 4.17618 23.3336 2.52796C20.8668 0.879735 17.9667 1.05198e-06 15 1.31134e-06L15 15L-1.31134e-06 15Z" fill="#FED7A1"/>
</svg>
