<svg width="26" height="32" viewBox="0 0 26 32" fill="none" xmlns="http://www.w3.org/2000/svg">
<path fill-rule="evenodd" clip-rule="evenodd" d="M11.5171 6.00439C15.7549 6.00439 19.2935 9.2359 19.6772 13.4563L20.2648 19.9204C20.3164 20.4878 20.6579 20.9882 21.1676 21.243L21.1722 21.2453C22.3133 21.8159 23.0341 22.9822 23.0341 24.258V24.7607C23.0341 26.3963 21.7082 27.7223 20.0726 27.7223H15.1367V28.38C15.1367 30.3791 13.5161 31.9997 11.517 31.9997C9.51794 31.9997 7.89737 30.3791 7.89737 28.38V27.7223H2.96153C1.32592 27.7223 0 26.3963 0 24.7607V24.258C0 22.9822 0.720817 21.8159 1.86193 21.2453L1.86655 21.243C2.37619 20.9882 2.7177 20.4878 2.76929 19.9204L3.35693 13.4563C3.7406 9.2359 7.27921 6.00439 11.5171 6.00439ZM9.87172 27.7223V28.38C9.87172 29.2887 10.6083 30.0253 11.517 30.0253C12.4257 30.0253 13.1623 29.2887 13.1623 28.38V27.7223H9.87172ZM11.517 7.97839C8.30033 7.97839 5.61438 10.4312 5.32316 13.6347L4.73552 20.0988C4.62203 21.3472 3.8707 22.448 2.74949 23.0086C2.27264 23.247 1.97434 23.7296 1.97434 24.2576V24.7604C1.97434 25.3056 2.41631 25.7476 2.96151 25.7476H20.0726C20.6178 25.7476 21.0597 25.3056 21.0597 24.7604V24.2576C21.0597 23.7296 20.7614 23.247 20.2892 23.0109C19.1634 22.448 18.4121 21.3472 18.2986 20.0988L17.7109 13.6347C17.4197 10.4312 14.7337 7.97839 11.517 7.97839Z" fill="#8692A6"/>
<circle cx="18.4938" cy="7.11114" r="7.11114" fill="#FF8080"/>
<path d="M19.2372 7.52247L17.4558 9.28765H20.8641V10.6667H15.1994V9.42004L17.9427 6.71711C18.0773 6.59208 18.2752 6.39717 18.5365 6.1324C18.9324 5.6911 19.1303 5.2829 19.1303 4.9078C19.1303 4.57683 19.0076 4.30838 18.7621 4.10244C18.5167 3.88915 18.204 3.7825 17.824 3.7825C17.1827 3.7825 16.5137 4.08405 15.817 4.68716L14.9382 3.60599C15.8249 2.78224 16.8264 2.37036 17.9427 2.37036C18.7582 2.37036 19.4351 2.60204 19.9735 3.0654C20.5039 3.52876 20.7691 4.12451 20.7691 4.85264C20.7691 5.61755 20.2585 6.5075 19.2372 7.52247Z" fill="white"/>
</svg>
