<svg width="50" height="50" viewBox="0 0 50 50" fill="none" xmlns="http://www.w3.org/2000/svg">
<rect width="50" height="50" rx="8" fill="#5A5EED" fill-opacity="0.1"/>
<path d="M26.8751 34C26.6253 34 26.3906 33.8755 26.2511 33.6663L24.9738 31.75H23.5001C23.0861 31.75 22.7501 31.414 22.7501 31C22.7501 30.586 23.0861 30.25 23.5001 30.25H25.3751C25.6256 30.25 25.8596 30.3753 25.9991 30.5838L26.7821 31.7583L28.4539 28.414C28.5769 28.1695 28.8221 28.0105 29.0959 28C29.3869 27.9932 29.6269 28.129 29.7679 28.363L31.7996 31.75H33.2501C33.6641 31.75 34.0001 32.086 34.0001 32.5C34.0001 32.914 33.6641 33.25 33.2501 33.25H31.3751C31.1119 33.25 30.8674 33.112 30.7324 32.8863L29.1851 30.3078L27.5463 33.586C27.4263 33.8253 27.1886 33.9828 26.9216 33.9993C26.9066 34 26.8908 34 26.8751 34Z" fill="#5A5EED"/>
<path d="M22.7501 23.5001C24.8211 23.5001 26.5001 21.8211 26.5001 19.75C26.5001 17.6789 24.8211 16 22.7501 16C20.679 16 19 17.6789 19 19.75C19 21.8211 20.679 23.5001 22.7501 23.5001Z" fill="#5A5EED"/>
<path d="M21.25 31.0001C21.25 29.7596 22.2595 28.7501 23.5001 28.7501H25.3751C25.7643 28.7501 26.1393 28.8498 26.4686 29.0328L27.1128 27.7436C27.4406 27.0903 28.0646 26.6621 28.7733 26.5481C28.0908 25.6143 26.9958 25.0001 25.7501 25.0001H19.75C17.6793 25.0001 16 26.6793 16 28.7501V31.1876C16 31.4981 16.252 31.7501 16.5625 31.7501H21.388C21.304 31.5146 21.25 31.2641 21.25 31.0001Z" fill="#5A5EED"/>
</svg>
