<svg width="18" height="18" viewBox="0 0 18 18" fill="none" xmlns="http://www.w3.org/2000/svg">
<path d="M10.8751 18C10.6253 18 10.3906 17.8755 10.2511 17.6663L8.97383 15.75H7.50007C7.08606 15.75 6.75006 15.414 6.75006 15C6.75006 14.586 7.08606 14.25 7.50007 14.25H9.37508C9.62558 14.25 9.85958 14.3753 9.99909 14.5838L10.7821 15.7583L12.4539 12.414C12.5769 12.1695 12.8221 12.0105 13.0959 12C13.3869 11.9932 13.6269 12.129 13.7679 12.363L15.7996 15.75H17.2501C17.6641 15.75 18.0001 16.086 18.0001 16.5C18.0001 16.914 17.6641 17.25 17.2501 17.25H15.3751C15.1119 17.25 14.8674 17.112 14.7324 16.8863L13.1851 14.3078L11.5463 17.586C11.4263 17.8253 11.1886 17.9828 10.9216 17.9993C10.9066 18 10.8908 18 10.8751 18Z" fill="white"/>
<path d="M6.75003 7.50006C8.82111 7.50006 10.5001 5.82111 10.5001 3.75003C10.5001 1.67894 8.82111 0 6.75003 0C4.67894 0 3 1.67894 3 3.75003C3 5.82111 4.67894 7.50006 6.75003 7.50006Z" fill="white"/>
<path d="M5.25004 15.0001C5.25004 13.7596 6.25955 12.7501 7.50006 12.7501H9.37507C9.76432 12.7501 10.1393 12.8498 10.4686 13.0328L11.1128 11.7436C11.4406 11.0903 12.0646 10.6621 12.7733 10.5481C12.0908 9.61432 10.9958 9.00006 9.75007 9.00006H3.75003C1.67926 9.00006 0 10.6793 0 12.7501V15.1876C0 15.4981 0.252002 15.7501 0.562504 15.7501H5.38804C5.30404 15.5146 5.25004 15.2641 5.25004 15.0001Z" fill="white"/>
</svg>
