<svg width="40" height="41" viewBox="0 0 40 41" fill="none" xmlns="http://www.w3.org/2000/svg">
<path d="M0 11.5095C0 7.69486 0 5.78755 0.730584 4.32542C1.40116 2.98339 2.48925 1.8953 3.83128 1.22473C5.29341 0.494141 7.20073 0.494141 11.0154 0.494141H28.9846C32.7993 0.494141 34.7066 0.494141 36.1687 1.22473C37.5107 1.8953 38.5988 2.98339 39.2694 4.32542C40 5.78755 40 7.69487 40 11.5095V29.4788C40 33.2934 40 35.2007 39.2694 36.6629C38.5988 38.0049 37.5107 39.093 36.1687 39.7636C34.7066 40.4941 32.7993 40.4941 28.9846 40.4941H11.0154C7.20072 40.4941 5.29341 40.4941 3.83128 39.7636C2.48925 39.093 1.40116 38.0049 0.730584 36.6629C0 35.2007 0 33.2934 0 29.4788V11.5095Z" fill="#E9FFF4"/>
<path d="M28.0297 15.2582L22.9859 10.2145C22.8453 10.0738 22.6555 9.99414 22.4562 9.99414H12.5C12.0852 9.99414 11.75 10.3293 11.75 10.7441V30.2441C11.75 30.659 12.0852 30.9941 12.5 30.9941H27.5C27.9148 30.9941 28.25 30.659 28.25 30.2441V15.7902C28.25 15.591 28.1703 15.3988 28.0297 15.2582ZM26.5203 16.1348H22.1094V11.7238L26.5203 16.1348ZM26.5625 29.3066H13.4375V11.6816H20.5156V16.7441C20.5156 17.0052 20.6193 17.2556 20.8039 17.4402C20.9885 17.6248 21.2389 17.7285 21.5 17.7285H26.5625V29.3066ZM19.8125 22.9785H15.5C15.3969 22.9785 15.3125 23.0629 15.3125 23.166V24.291C15.3125 24.3941 15.3969 24.4785 15.5 24.4785H19.8125C19.9156 24.4785 20 24.3941 20 24.291V23.166C20 23.0629 19.9156 22.9785 19.8125 22.9785ZM15.3125 19.9785V21.1035C15.3125 21.2066 15.3969 21.291 15.5 21.291H24.5C24.6031 21.291 24.6875 21.2066 24.6875 21.1035V19.9785C24.6875 19.8754 24.6031 19.791 24.5 19.791H15.5C15.3969 19.791 15.3125 19.8754 15.3125 19.9785Z" fill="#45DB91"/>
</svg>
