<svg width="24" height="24" viewBox="0 0 24 24" fill="none" xmlns="http://www.w3.org/2000/svg">
<path opacity="0.5" d="M21 10.2H3V18.3C3 19.0161 3.28446 19.7028 3.79081 20.2092C4.29716 20.7155 4.98392 21 5.7 21H18.3C19.0161 21 19.7028 20.7155 20.2092 20.2092C20.7155 19.7028 21 19.0161 21 18.3V10.2ZM7.5 8.4C7.2613 8.4 7.03239 8.30518 6.8636 8.1364C6.69482 7.96761 6.6 7.73869 6.6 7.5V3.9C6.6 3.66131 6.69482 3.43239 6.8636 3.2636C7.03239 3.09482 7.2613 3 7.5 3C7.73869 3 7.96761 3.09482 8.1364 3.2636C8.30518 3.43239 8.4 3.66131 8.4 3.9V7.5C8.4 7.73869 8.30518 7.96761 8.1364 8.1364C7.96761 8.30518 7.73869 8.4 7.5 8.4ZM16.5 8.4C16.2613 8.4 16.0324 8.30518 15.8636 8.1364C15.6948 7.96761 15.6 7.73869 15.6 7.5V3.9C15.6 3.66131 15.6948 3.43239 15.8636 3.2636C16.0324 3.09482 16.2613 3 16.5 3C16.7387 3 16.9676 3.09482 17.1364 3.2636C17.3052 3.43239 17.4 3.66131 17.4 3.9V7.5C17.4 7.73869 17.3052 7.96761 17.1364 8.1364C16.9676 8.30518 16.7387 8.4 16.5 8.4Z" fill="white"/>
<path d="M18.3 4.79999H17.4V7.49999C17.4 7.73868 17.3052 7.9676 17.1364 8.13638C16.9676 8.30517 16.7387 8.39999 16.5 8.39999C16.2613 8.39999 16.0324 8.30517 15.8636 8.13638C15.6948 7.9676 15.6 7.73868 15.6 7.49999V4.79999H8.4V7.49999C8.4 7.73868 8.30518 7.9676 8.1364 8.13638C7.96761 8.30517 7.73869 8.39999 7.5 8.39999C7.2613 8.39999 7.03239 8.30517 6.8636 8.13638C6.69482 7.9676 6.6 7.73868 6.6 7.49999V4.79999H5.7C4.98392 4.79999 4.29716 5.08445 3.79081 5.5908C3.28446 6.09715 3 6.7839 3 7.49999V10.2H21V7.49999C21 6.7839 20.7155 6.09715 20.2092 5.5908C19.7028 5.08445 19.0161 4.79999 18.3 4.79999Z" fill="white"/>
</svg>
