<svg width="18" height="18" viewBox="0 0 18 18" fill="none" xmlns="http://www.w3.org/2000/svg">
<path d="M17.2246 10.9725L15.5701 9.67876C15.5911 9.47925 15.6091 9.24602 15.6091 8.99926C15.6091 8.7525 15.5919 8.51927 15.5701 8.31976L17.2262 7.02527C17.5337 6.78227 17.6176 6.35101 17.4219 5.99179L15.7014 3.015C15.5176 2.67901 15.1149 2.5065 14.7062 2.65725L12.7539 3.44099C12.3797 3.17099 11.9874 2.943 11.5816 2.76075L11.2846 0.690012C11.2359 0.297 10.8939 0 10.4896 0H7.03966C6.6354 0 6.29417 0.297 6.24615 0.684L5.94841 2.76226C5.5554 2.93927 5.16917 3.16427 4.77841 3.4425L2.82091 2.65651C2.45413 2.51476 2.01538 2.67374 1.83313 3.00825L0.1104 5.98876C-0.0928385 6.33227 -0.00885025 6.77851 0.305411 7.02752L1.9599 8.32127C1.93364 8.57401 1.92091 8.79377 1.92091 9.00004C1.92091 9.2063 1.93367 9.42602 1.9599 9.67954L0.3039 10.974C-0.00361196 11.2178 -0.086862 11.649 0.108888 12.0075L1.8294 14.9843C2.01316 15.3195 2.41215 15.4935 2.82464 15.342L4.7769 14.5583C5.1504 14.8275 5.54264 15.0555 5.94841 15.2385L6.24541 17.3085C6.29414 17.703 6.6354 18 7.0404 18H10.4904C10.8946 18 11.2367 17.703 11.2846 17.316L11.5824 15.2385C11.9754 15.0608 12.3609 14.8365 12.7524 14.5575L14.7099 15.3435C14.8044 15.3802 14.9026 15.399 15.0039 15.399C15.2949 15.399 15.5626 15.24 15.6976 14.9925L17.4256 12C17.6177 11.649 17.5336 11.2178 17.2246 10.9725ZM8.76464 12C7.11015 12 5.76465 10.6545 5.76465 9C5.76465 7.34551 7.11015 6.00001 8.76464 6.00001C10.4191 6.00001 11.7646 7.34551 11.7646 9C11.7646 10.6545 10.4191 12 8.76464 12Z" fill="white"/>
</svg>
