<svg width="15" height="22" viewBox="0 0 15 22" fill="none" xmlns="http://www.w3.org/2000/svg">
<path fill-rule="evenodd" clip-rule="evenodd" d="M0 7.58479C0 13.1796 7.33687 21.4387 7.33687 21.4387C7.33687 21.4387 14.6737 13.1796 14.6737 7.58479C14.6737 3.46059 11.3931 0.125 7.33687 0.125C3.28063 0.125 0 3.46059 0 7.58479ZM5.48403 9.46868C4.99263 8.96904 4.71656 8.29139 4.71656 7.58479C4.71656 6.8782 4.99263 6.20055 5.48403 5.70091C5.97544 5.20127 6.64193 4.92058 7.33687 4.92058C8.03183 4.92058 8.69831 5.20127 9.18972 5.70091C9.68112 6.20055 9.95719 6.8782 9.95719 7.58479C9.95719 8.29139 9.68112 8.96904 9.18972 9.46868C8.69831 9.96831 8.03183 10.249 7.33687 10.249C6.64193 10.249 5.97544 9.96831 5.48403 9.46868Z" fill="#FD4C5C"/>
</svg>
