<svg width="18" height="18" viewBox="0 0 18 18" fill="none" xmlns="http://www.w3.org/2000/svg">
<path d="M12.9754 11.3681C12.4869 11.2014 11.8864 11.3543 11.5883 11.6606L9.6206 13.1465C7.33863 11.928 5.93299 10.5224 4.7315 8.25683L6.1732 6.33981C6.54776 5.96563 6.68211 5.41905 6.52115 4.90619C6.19029 3.90374 6.02222 2.85191 6.02222 1.77971C6.02226 1.00515 5.39231 0.375 4.61803 0.375H1.40423C0.629953 0.375 0 1.00515 0 1.77967C0 10.6577 7.22046 17.8803 16.0958 17.8803C16.87 17.8803 17.5 17.2502 17.5 16.4757V13.2699C17.5 12.4954 16.87 11.8653 16.0958 11.8653C15.0243 11.8653 13.9723 11.6976 12.9754 11.3681Z" fill="#FD4C5C"/>
</svg>
