<svg width="19" height="14" viewBox="0 0 19 14" fill="none" xmlns="http://www.w3.org/2000/svg">
<path d="M8.91489 7.96463C9.09523 8.11371 9.28865 8.1895 9.48944 8.1895C9.68983 8.1895 9.88292 8.11442 10.0628 7.96606C11.4073 6.86044 15.9779 3.31768 18.5827 1.30415C18.7448 1.17903 18.7696 0.959106 18.6383 0.80614C18.3348 0.452669 17.8822 0.25 17.3972 0.25H1.58165C1.09669 0.25 0.644126 0.45267 0.340652 0.806174C0.209358 0.959106 0.234082 1.17903 0.396254 1.30415C3.00101 3.31768 7.57155 6.8601 8.91489 7.96463Z" fill="#FD4C5C"/>
<path d="M18.3278 2.44556C15.4391 4.68074 11.7524 7.54579 10.5925 8.49983C9.94149 9.03624 9.03796 9.03624 8.38542 8.49912C7.14906 7.48232 3.00902 4.26979 0.650986 2.44553C0.533592 2.35458 0.368343 2.33452 0.229339 2.39335C0.089593 2.4526 0 2.58019 0 2.72081V11.7969C0 12.5931 0.709294 13.2406 1.58157 13.2406H17.3972C18.2695 13.2406 18.9788 12.5931 18.9788 11.7969V2.72081C18.9788 2.58019 18.8892 2.45226 18.7494 2.39339C18.6093 2.33384 18.4444 2.35461 18.3278 2.44556Z" fill="#FD4C5C"/>
</svg>
